<svg width="47" height="35" viewBox="0 0 47 35" fill="none" xmlns="http://www.w3.org/2000/svg">
<path d="M41.6989 0.988647H4.64945C2.20949 0.988647 0.231689 2.96 0.231689 5.39199V29.608C0.231689 32.04 2.20949 34.0113 4.64945 34.0113H41.6989C44.1389 34.0113 46.1167 32.04 46.1167 29.608V5.39199C46.1167 2.96 44.1389 0.988647 41.6989 0.988647ZM36.7685 12.5368C35.658 13.762 33.9987 13.854 32.3563 14.0667L27.4941 14.6953C27.7572 15.5846 27.9001 16.5259 27.9001 17.5C27.9001 22.9558 23.4622 27.3791 17.9886 27.3791C12.5149 27.3791 8.0771 22.9558 8.0771 17.5C8.0771 15.9389 8.44859 14.3866 9.16349 12.9975C9.89042 11.5851 10.9616 10.3552 12.2606 9.43706C12.9137 8.97481 13.623 8.59254 14.3684 8.30063C14.7463 8.15268 15.1338 8.02792 15.5278 7.92796C16.6061 7.65365 17.7992 7.76881 18.9025 7.76081C19.8765 7.75361 20.8506 7.74722 21.8254 7.74002C22.9856 7.73122 24.1466 7.72322 25.3076 7.71443C26.532 7.70563 27.7572 7.69683 28.9816 7.68804C30.1474 7.67924 31.3141 7.67124 32.4799 7.66244C33.4644 7.65525 34.4497 7.64805 35.4341 7.64085C36.1153 7.63605 36.7957 7.63126 37.4769 7.62646C37.7313 7.62486 37.9864 7.62246 38.2408 7.62086C38.2408 7.62086 38.6123 10.5015 36.7685 12.5368Z" fill="#521DA4"/>
</svg>
