<svg width="225" height="63" viewBox="0 0 225 63" fill="none" xmlns="http://www.w3.org/2000/svg">
<path d="M84.1156 22.275L83.9207 24.2512C82.9715 22.7669 81.5008 22.0247 79.5093 22.0247C77.5179 22.0247 76.0191 22.6189 74.7345 23.8057C73.3569 25.1237 72.6685 26.7104 72.6685 28.565C72.6685 30.5691 73.3103 32.1646 74.5949 33.3522C75.8787 34.5398 77.4521 35.1332 79.3135 35.1332C81.0627 35.1332 82.4588 34.447 83.5018 33.0739V34.02C83.5018 35.3379 83.1063 36.3344 82.3152 37.0118C81.524 37.6891 80.4208 38.0274 79.0062 38.0274C77.2563 38.0274 75.7768 37.4332 74.5668 36.2464L73.0865 39.475C74.7618 40.8473 76.8567 41.5343 79.3689 41.5343C81.3981 41.5343 83.1295 41.0145 84.5626 39.9756C86.3125 38.7136 87.1878 36.6727 87.1878 33.8528V22.275H84.1156ZM82.4965 30.9026C81.9003 31.4968 81.0819 31.7935 80.0397 31.7935C78.9974 31.7935 78.2151 31.4968 77.5821 30.9026C76.9306 30.3092 76.6048 29.5486 76.6048 28.6209C76.6048 27.786 76.9306 27.0255 77.5821 26.3385C78.1967 25.7635 79.0062 25.4756 80.0116 25.4756C81.0908 25.4756 81.9196 25.7635 82.4965 26.3385C83.1665 26.9511 83.5018 27.7116 83.5018 28.6209C83.5018 29.5854 83.1665 30.346 82.4965 30.9026Z" fill="#521DA4"/>
<path d="M101.846 23.6666C100.729 22.5725 99.1469 22.0247 97.0993 22.0247C94.754 22.0247 92.6783 22.7301 90.873 24.14L92.7433 26.8671C94.0094 25.8099 95.3213 25.2812 96.6805 25.2812C97.7043 25.2812 98.4673 25.5316 98.9704 26.0322C99.4542 26.5152 99.6965 27.2758 99.6965 28.3146C98.505 27.9068 97.3231 27.702 96.1501 27.702C94.5863 27.702 93.2833 28.0779 92.241 28.8297C91.198 29.5806 90.6772 30.5971 90.6772 31.8767C90.6772 33.1562 91.1426 34.2471 92.0733 34.9804C93.0041 35.713 94.2325 36.0793 95.7594 36.0793C97.4347 36.0793 98.9423 35.4579 100.282 34.2151L100.478 35.829H103.521V27.8692C103.521 26.1258 102.963 24.7246 101.846 23.6666ZM99.0105 31.3504C98.9977 31.3952 98.9832 31.4392 98.9688 31.4832C98.6398 32.4677 97.8728 33.0259 96.8538 33.1442C96.4349 33.193 96.0009 33.185 95.6037 33.0427C94.9939 32.8228 94.5831 32.2134 94.6136 31.5664C94.6545 30.7123 95.3822 30.2924 96.1517 30.162C97.1691 29.9909 98.2121 30.1372 99.2408 30.0677C99.187 30.4987 99.1332 30.9338 99.0105 31.3504Z" fill="#521DA4"/>
<path d="M128.036 23.4722C127.031 22.5078 125.756 22.0247 124.211 22.0247C122.238 22.0247 120.73 22.8508 119.688 24.5015C119.409 24.0752 119.129 23.7322 118.85 23.4722C117.826 22.5078 116.551 22.0247 115.025 22.0247C113.256 22.0247 111.85 22.8045 110.808 24.3623L110.613 22.275H107.514V35.829H111.339V28.4258C111.339 27.5725 111.627 26.8583 112.205 26.2833C112.689 25.8195 113.321 25.5875 114.103 25.5875C114.886 25.5875 115.453 25.8195 115.918 26.2833C116.439 26.8023 116.7 27.5261 116.7 28.4538V35.829H120.525V28.4258C120.525 27.4981 120.833 26.7656 121.447 26.2273C121.93 25.8011 122.545 25.5875 123.29 25.5875C124.034 25.5875 124.621 25.8195 125.104 26.2833C125.608 26.7656 125.859 27.4893 125.859 28.4538V35.829H129.684V28.0083C129.684 26.0602 129.135 24.5487 128.036 23.4722Z" fill="#521DA4"/>
<path d="M147.023 29.3167C147.023 26.9415 146.399 25.1605 145.152 23.9729C143.831 22.6749 142.137 22.0247 140.07 22.0247C138.003 22.0247 136.319 22.7117 134.904 24.084C133.583 25.346 132.923 27.0063 132.923 29.0664C132.923 31.1265 133.574 32.8236 134.877 34.0479C136.236 35.4027 138.014 36.0793 140.21 36.0793C142.575 36.0793 144.466 35.4131 145.886 34.0783L143.206 31.9454C142.373 32.4749 141.411 32.7396 140.322 32.7396C139.233 32.7396 138.33 32.3965 137.641 31.7103C137.287 31.3576 137.036 30.8474 136.887 30.1796H147.023V29.3167ZM136.832 27.6469C136.962 27.0535 137.251 26.5152 137.697 26.0322C138.311 25.4388 139.102 25.1421 140.07 25.1421C141.038 25.1797 141.792 25.4668 142.332 26.005C142.741 26.4129 143.002 26.9607 143.114 27.6469H136.832Z" fill="#521DA4"/>
<path d="M162.883 23.8897C161.598 22.6469 160.016 22.0247 158.136 22.0247C156.256 22.0247 154.747 22.8141 153.724 24.3903L153.529 22.275H150.429V41.3951H154.255V34.5206C155.259 35.5603 156.554 36.0793 158.136 36.0793C160.034 36.0793 161.616 35.4675 162.883 34.2423C164.279 32.8883 164.977 31.1633 164.977 29.0664C164.977 26.9695 164.279 25.2253 162.883 23.8897ZM160.09 31.5712C159.401 32.2206 158.592 32.5452 157.661 32.5452C156.674 32.5452 155.856 32.2206 155.204 31.5712C154.515 30.9218 154.171 30.0869 154.171 29.0664C154.171 28.0459 154.515 27.211 155.204 26.5616C155.856 25.9122 156.674 25.5875 157.661 25.5875C158.592 25.5875 159.401 25.9122 160.09 26.5616C160.76 27.267 161.096 28.1019 161.096 29.0664C161.096 30.0309 160.76 30.9026 160.09 31.5712Z" fill="#521DA4"/>
<path d="M168.439 16.3474V35.829H172.264V16.3474H168.439Z" fill="#521DA4"/>
<path d="M204.067 23.4722C203.043 22.5078 201.749 22.0247 200.186 22.0247C198.38 22.0247 196.955 22.8229 195.913 24.4183L195.718 22.275H192.619V35.829H196.443V28.4538C196.443 27.5453 196.76 26.8023 197.393 26.2273C197.914 25.8011 198.538 25.5875 199.264 25.5875C200.046 25.5875 200.669 25.8195 201.135 26.2833C201.674 26.8215 201.944 27.5541 201.944 28.4818V35.829H205.769V28.0083C205.769 26.0602 205.202 24.5487 204.067 23.4722Z" fill="#521DA4"/>
<path d="M60.6989 14.9886H23.6494C21.2095 14.9886 19.2317 16.96 19.2317 19.392V43.608C19.2317 46.04 21.2095 48.0113 23.6494 48.0113H60.6989C63.1389 48.0113 65.1167 46.04 65.1167 43.608V19.392C65.1167 16.96 63.1389 14.9886 60.6989 14.9886ZM55.7685 26.5368C54.658 27.762 52.9987 27.854 51.3563 28.0667L46.4941 28.6953C46.7572 29.5846 46.9001 30.5259 46.9001 31.5C46.9001 36.9558 42.4622 41.3791 36.9886 41.3791C31.5149 41.3791 27.0771 36.9558 27.0771 31.5C27.0771 29.9389 27.4486 28.3866 28.1635 26.9975C28.8904 25.5851 29.9616 24.3552 31.2606 23.4371C31.9137 22.9748 32.623 22.5925 33.3684 22.3006C33.7463 22.1527 34.1338 22.0279 34.5278 21.928C35.6061 21.6536 36.7992 21.7688 37.9025 21.7608C38.8765 21.7536 39.8506 21.7472 40.8254 21.74C41.9856 21.7312 43.1466 21.7232 44.3076 21.7144C45.532 21.7056 46.7572 21.6968 47.9816 21.688C49.1474 21.6792 50.3141 21.6712 51.4799 21.6624C52.4644 21.6552 53.4497 21.648 54.4341 21.6409C55.1153 21.6361 55.7957 21.6313 56.4769 21.6265C56.7313 21.6249 56.9864 21.6225 57.2408 21.6209C57.2408 21.6209 57.6123 24.5015 55.7685 26.5368Z" fill="#521DA4"/>
<path d="M186.947 23.621C185.83 22.5269 184.248 21.9791 182.2 21.9791C179.855 21.9791 177.779 22.6845 175.974 24.0944L177.844 26.8215C179.11 25.7643 180.422 25.2357 181.781 25.2357C182.805 25.2357 183.568 25.486 184.071 25.9866C184.555 26.4696 184.797 27.2302 184.797 28.2691C183.606 27.8612 182.424 27.6565 181.251 27.6565C179.687 27.6565 178.384 28.0323 177.342 28.7841C176.299 29.535 175.778 30.5515 175.778 31.8311C175.778 33.1107 176.243 34.2015 177.174 34.9348C178.105 35.6674 179.333 36.0337 180.86 36.0337C182.536 36.0337 184.043 35.4123 185.383 34.1695L185.579 35.7834H188.622V27.8236C188.622 26.0802 188.064 24.679 186.947 23.621ZM184.111 31.3056C184.098 31.3496 184.085 31.3944 184.07 31.4384C183.741 32.4221 182.974 32.9803 181.955 33.0995C181.537 33.1482 181.102 33.1402 180.705 32.9971C180.096 32.778 179.685 32.1678 179.715 31.5216C179.755 30.6675 180.483 30.2468 181.253 30.1172C182.27 29.9461 183.313 30.0924 184.342 30.0221C184.289 30.4539 184.234 30.8882 184.111 31.3056Z" fill="#521DA4"/>
</svg>
