<svg width="131" height="130" viewBox="0 0 131 130" fill="none" xmlns="http://www.w3.org/2000/svg">
<circle opacity="0.1" cx="65.5" cy="65" r="65" fill="url(#paint0_linear_196_831)"/>
<circle cx="65.5" cy="65" r="45" fill="url(#paint1_linear_196_831)"/>
<path d="M65.4998 51.6667C58.1532 51.6667 52.1665 57.6534 52.1665 65C52.1665 72.3467 58.1532 78.3334 65.4998 78.3334C72.8465 78.3334 78.8332 72.3467 78.8332 65C78.8332 57.6534 72.8465 51.6667 65.4998 51.6667ZM71.8732 61.9334L64.3132 69.4934C64.1265 69.68 63.8732 69.7867 63.6065 69.7867C63.3398 69.7867 63.0865 69.68 62.8998 69.4934L59.1265 65.72C58.7398 65.3334 58.7398 64.6934 59.1265 64.3067C59.5132 63.92 60.1532 63.92 60.5398 64.3067L63.6065 67.3734L70.4598 60.52C70.8465 60.1334 71.4865 60.1334 71.8732 60.52C72.2598 60.9067 72.2598 61.5334 71.8732 61.9334Z" fill="white"/>
<defs>
<linearGradient id="paint0_linear_196_831" x1="65.5" y1="0" x2="65.5" y2="130" gradientUnits="userSpaceOnUse">
<stop stop-color="#00B6FE"/>
<stop offset="0.5" stop-color="#5C7DFB"/>
<stop offset="1" stop-color="#8C3AFD"/>
</linearGradient>
<linearGradient id="paint1_linear_196_831" x1="65.5" y1="20" x2="65.5" y2="110" gradientUnits="userSpaceOnUse">
<stop stop-color="#00B6FE"/>
<stop offset="0.5" stop-color="#5C7DFB"/>
<stop offset="1" stop-color="#8C3AFD"/>
</linearGradient>
</defs>
</svg>
