<svg width="18" height="17" viewBox="0 0 18 17" fill="none" xmlns="http://www.w3.org/2000/svg">
<path d="M6.25841 4.75418L8.16675 2.83751V10.8292C8.16675 11.0502 8.25455 11.2622 8.41083 11.4184C8.56711 11.5747 8.77907 11.6625 9.00008 11.6625C9.2211 11.6625 9.43306 11.5747 9.58934 11.4184C9.74562 11.2622 9.83341 11.0502 9.83341 10.8292V2.83751L11.7417 4.75418C11.8192 4.83228 11.9114 4.89428 12.0129 4.93659C12.1145 4.97889 12.2234 5.00068 12.3334 5.00068C12.4434 5.00068 12.5523 4.97889 12.6539 4.93659C12.7554 4.89428 12.8476 4.83228 12.9251 4.75418C13.0032 4.67671 13.0652 4.58454 13.1075 4.48299C13.1498 4.38144 13.1716 4.27252 13.1716 4.16251C13.1716 4.0525 13.1498 3.94358 13.1075 3.84203C13.0652 3.74048 13.0032 3.64831 12.9251 3.57084L9.59175 0.237511C9.5125 0.161644 9.41904 0.102173 9.31675 0.0625113C9.11386 -0.0208371 8.8863 -0.0208371 8.68341 0.0625113C8.58112 0.102173 8.48767 0.161644 8.40841 0.237511L5.07508 3.57084C4.99738 3.64854 4.93575 3.74079 4.8937 3.8423C4.85165 3.94382 4.83 4.05263 4.83 4.16251C4.83 4.27239 4.85165 4.3812 4.8937 4.48272C4.93575 4.58424 4.99738 4.67648 5.07508 4.75418C5.15278 4.83188 5.24502 4.89351 5.34654 4.93556C5.44806 4.97761 5.55687 4.99925 5.66675 4.99925C5.77663 4.99925 5.88544 4.97761 5.98696 4.93556C6.08847 4.89351 6.18072 4.83188 6.25841 4.75418ZM16.5001 9.99584C16.2791 9.99584 16.0671 10.0836 15.9108 10.2399C15.7545 10.3962 15.6667 10.6082 15.6667 10.8292V14.1625C15.6667 14.3835 15.579 14.5955 15.4227 14.7518C15.2664 14.908 15.0544 14.9958 14.8334 14.9958H3.16675C2.94573 14.9958 2.73377 14.908 2.57749 14.7518C2.42121 14.5955 2.33341 14.3835 2.33341 14.1625V10.8292C2.33341 10.6082 2.24562 10.3962 2.08934 10.2399C1.93306 10.0836 1.7211 9.99584 1.50008 9.99584C1.27907 9.99584 1.06711 10.0836 0.910826 10.2399C0.754545 10.3962 0.666748 10.6082 0.666748 10.8292V14.1625C0.666748 14.8256 0.93014 15.4614 1.39898 15.9303C1.86782 16.3991 2.50371 16.6625 3.16675 16.6625H14.8334C15.4965 16.6625 16.1323 16.3991 16.6012 15.9303C17.07 15.4614 17.3334 14.8256 17.3334 14.1625V10.8292C17.3334 10.6082 17.2456 10.3962 17.0893 10.2399C16.9331 10.0836 16.7211 9.99584 16.5001 9.99584Z" fill="black"/>
</svg>
