<svg width="19" height="18" viewBox="0 0 19 18" fill="none" xmlns="http://www.w3.org/2000/svg">
<path d="M1.625 16.8751L5.67625 12.8229M5.68063 12.8186L3.24813 10.3861C2.41338 9.5522 3.25337 7.76457 4.39437 7.69282C5.42512 7.6272 7.81125 8.00082 8.60488 7.2072L10.7836 5.02845C11.3235 4.4877 10.9805 3.27845 10.9455 2.6117C10.8948 1.7227 12.3087 0.624575 13.0586 1.37445L17.1248 5.44145C17.8773 6.1922 16.7748 7.60182 15.8884 7.55457C15.2216 7.51957 14.0115 7.17657 13.4708 7.71645L11.292 9.8952C10.4993 10.6888 10.872 13.0741 10.8073 14.1048C10.7355 15.2467 8.94787 16.0867 8.11225 15.2511L5.68063 12.8186Z" stroke="black" stroke-width="1.5" stroke-linecap="round" stroke-linejoin="round"/>
</svg>
