<svg width="5" height="16" viewBox="0 0 12 16" fill="none" xmlns="http://www.w3.org/2000/svg">
<path fill-rule="evenodd" clip-rule="evenodd" d="M1.5 0.5C1.10218 0.5 0.720644 0.658035 0.43934 0.93934C0.158035 1.22064 0 1.60218 0 2V14C0 14.3978 0.158035 14.7794 0.43934 15.0607C0.720644 15.342 1.10218 15.5 1.5 15.5H10.5C10.8978 15.5 11.2794 15.342 11.5607 15.0607C11.842 14.7794 12 14.3978 12 14V3.8105C11.9999 3.41271 11.8418 3.03124 11.5605 2.75L9.75 0.9395C9.46876 0.658176 9.08729 0.500085 8.6895 0.5H1.5ZM1.5 2H8.6895L10.5 3.8105V14H1.5V2ZM9.1785 7.09475C9.25013 7.02557 9.30727 6.94281 9.34658 6.8513C9.38588 6.7598 9.40657 6.66139 9.40744 6.5618C9.4083 6.46222 9.38933 6.36346 9.35162 6.27128C9.31391 6.17911 9.25822 6.09537 9.1878 6.02495C9.11738 5.95453 9.03364 5.89884 8.94147 5.86113C8.84929 5.82342 8.75053 5.80445 8.65095 5.80531C8.55136 5.80618 8.45295 5.82687 8.36145 5.86617C8.26994 5.90548 8.18719 5.96262 8.118 6.03425L4.9365 9.2165L3.87525 8.15525C3.7338 8.01863 3.54435 7.94304 3.3477 7.94474C3.15105 7.94645 2.96294 8.02533 2.82389 8.16439C2.68483 8.30344 2.60595 8.49155 2.60424 8.6882C2.60254 8.88485 2.67813 9.0743 2.81475 9.21575L4.35225 10.754C4.42886 10.8306 4.51983 10.8915 4.61995 10.9329C4.72007 10.9744 4.82738 10.9958 4.93575 10.9958C5.04412 10.9958 5.15143 10.9744 5.25155 10.9329C5.35167 10.8915 5.44264 10.8306 5.51925 10.754L9.1785 7.09475Z" fill="#434343"/>
</svg>
