<svg width="43" height="41" viewBox="0 0 43 41" fill="none" xmlns="http://www.w3.org/2000/svg">
<path d="M3.97 37.13C3.32333 37.13 2.75333 36.98 2.26 36.68C1.77333 36.38 1.39333 35.9567 1.12 35.41C0.846667 34.8633 0.71 34.23 0.71 33.51C0.71 32.79 0.846667 32.16 1.12 31.62C1.39333 31.0733 1.77333 30.65 2.26 30.35C2.75333 30.05 3.32333 29.9 3.97 29.9C4.68333 29.9 5.3 30.0767 5.82 30.43C6.34667 30.7833 6.72333 31.2733 6.95 31.9L6 32.25C5.83333 31.8167 5.57667 31.48 5.23 31.24C4.88333 30.9933 4.46333 30.87 3.97 30.87C3.51667 30.87 3.12 30.98 2.78 31.2C2.44667 31.4133 2.18667 31.7167 2 32.11C1.82 32.4967 1.73 32.9633 1.73 33.51C1.73 34.0567 1.82 34.5267 2 34.92C2.18667 35.3133 2.44667 35.62 2.78 35.84C3.12 36.0533 3.51667 36.16 3.97 36.16C4.46333 36.16 4.88333 36.04 5.23 35.8C5.57667 35.5533 5.83333 35.2133 6 34.78L6.95 35.12C6.72333 35.74 6.34667 36.23 5.82 36.59C5.3 36.95 4.68333 37.13 3.97 37.13ZM11.2105 37L11.1305 36.09V33.9C11.1305 33.5533 11.0305 33.2867 10.8305 33.1C10.6305 32.9133 10.3405 32.82 9.96055 32.82C9.69388 32.82 9.43721 32.8733 9.19055 32.98C8.95055 33.0867 8.72055 33.26 8.50055 33.5L7.89055 32.87C8.18388 32.5633 8.50721 32.34 8.86055 32.2C9.22055 32.0533 9.61055 31.98 10.0305 31.98C10.6905 31.98 11.2005 32.15 11.5605 32.49C11.9272 32.8233 12.1105 33.2933 12.1105 33.9V37H11.2105ZM9.62055 37.09C9.25388 37.09 8.93055 37.0233 8.65055 36.89C8.37055 36.7567 8.15388 36.5733 8.00055 36.34C7.84721 36.1 7.77055 35.8233 7.77055 35.51C7.77055 35.2367 7.82721 35.0033 7.94055 34.81C8.05388 34.61 8.20055 34.4567 8.38055 34.35C8.54721 34.2433 8.73721 34.17 8.95055 34.13C9.17055 34.0833 9.40388 34.06 9.65055 34.06H11.2205V34.8H9.79055C9.65721 34.8 9.51721 34.8133 9.37055 34.84C9.23055 34.86 9.11055 34.9067 9.01055 34.98C8.93055 35.04 8.86721 35.1167 8.82055 35.21C8.77388 35.2967 8.75055 35.4 8.75055 35.52C8.75055 35.7533 8.84055 35.94 9.02055 36.08C9.20055 36.22 9.44055 36.29 9.74055 36.29C9.99388 36.29 10.2239 36.2333 10.4305 36.12C10.6439 36 10.8139 35.84 10.9405 35.64C11.0672 35.4333 11.1305 35.2 11.1305 34.94L11.4805 35.4C11.4205 35.7467 11.3039 36.05 11.1305 36.31C10.9572 36.5633 10.7405 36.7567 10.4805 36.89C10.2272 37.0233 9.94055 37.09 9.62055 37.09ZM14.4605 37.09C14.1471 37.09 13.8905 36.9933 13.6905 36.8C13.4905 36.6067 13.3905 36.3 13.3905 35.88V30.03H14.3605V35.69C14.3605 35.8633 14.3971 35.99 14.4705 36.07C14.5505 36.1433 14.6538 36.18 14.7805 36.18C14.8338 36.18 14.8938 36.1767 14.9605 36.17C15.0338 36.1567 15.1071 36.1367 15.1805 36.11V36.94C15.0605 36.9933 14.9338 37.03 14.8005 37.05C14.6738 37.0767 14.5605 37.09 14.4605 37.09ZM18.216 37.09C17.816 37.09 17.4693 37.0233 17.176 36.89C16.8827 36.7567 16.6393 36.5733 16.446 36.34C16.2527 36.1 16.106 35.83 16.006 35.53C15.9127 35.2233 15.866 34.9033 15.866 34.57C15.866 34.2367 15.9127 33.9167 16.006 33.61C16.0993 33.2967 16.2393 33.02 16.426 32.78C16.6127 32.5333 16.846 32.34 17.126 32.2C17.4127 32.0533 17.7493 31.98 18.136 31.98C18.5227 31.98 18.856 32.0467 19.136 32.18C19.416 32.3067 19.646 32.4867 19.826 32.72C20.006 32.9467 20.1393 33.2033 20.226 33.49C20.3193 33.7767 20.366 34.08 20.366 34.4C20.366 34.4333 20.3627 34.4967 20.356 34.59C20.356 34.6767 20.3493 34.76 20.336 34.84H16.846C16.866 35.28 16.9993 35.62 17.246 35.86C17.4993 36.0933 17.8327 36.21 18.246 36.21C18.526 36.21 18.776 36.1667 18.996 36.08C19.216 35.9867 19.4193 35.8433 19.606 35.65L20.206 36.27C20.0127 36.4633 19.8127 36.62 19.606 36.74C19.406 36.86 19.1927 36.9467 18.966 37C18.746 37.06 18.496 37.09 18.216 37.09ZM19.396 34.35C19.4093 34.2967 19.416 34.2433 19.416 34.19C19.4227 34.1367 19.426 34.0833 19.426 34.03C19.426 33.8767 19.3993 33.7267 19.346 33.58C19.2927 33.4333 19.2127 33.3033 19.106 33.19C18.9993 33.07 18.866 32.9767 18.706 32.91C18.5527 32.8367 18.3727 32.8 18.166 32.8C17.8927 32.8 17.6593 32.8633 17.466 32.99C17.2727 33.11 17.1227 33.27 17.016 33.47C16.916 33.67 16.856 33.8867 16.836 34.12H19.716L19.396 34.35ZM21.4964 37V32.07H22.4864V33.14L22.2864 33.2C22.3731 32.9267 22.4964 32.7033 22.6564 32.53C22.8231 32.35 23.0164 32.2133 23.2364 32.12C23.4631 32.0267 23.7064 31.98 23.9664 31.98C24.5131 31.98 24.9397 32.14 25.2464 32.46C25.5597 32.7733 25.7164 33.2333 25.7164 33.84V37H24.7364V34.2C24.7364 33.7267 24.6497 33.38 24.4764 33.16C24.3097 32.94 24.0497 32.83 23.6964 32.83C23.4297 32.83 23.2064 32.89 23.0264 33.01C22.8531 33.13 22.7197 33.32 22.6264 33.58C22.5331 33.84 22.4864 34.17 22.4864 34.57V37H21.4964ZM28.9938 37.09C28.5471 37.09 28.1604 36.98 27.8338 36.76C27.5071 36.5333 27.2504 36.2267 27.0638 35.84C26.8838 35.4467 26.7938 35.01 26.7938 34.53C26.7938 34.0033 26.8904 33.55 27.0838 33.17C27.2838 32.79 27.5504 32.4967 27.8838 32.29C28.2171 32.0833 28.5871 31.98 28.9938 31.98C29.2871 31.98 29.5538 32.04 29.7938 32.16C30.0404 32.28 30.2471 32.4467 30.4138 32.66C30.5804 32.8733 30.6971 33.1233 30.7638 33.41L30.5138 33.49V30.03H31.4837V37H30.5138V35.58L30.8038 35.59C30.7171 35.91 30.5871 36.1833 30.4138 36.41C30.2404 36.63 30.0304 36.8 29.7838 36.92C29.5438 37.0333 29.2804 37.09 28.9938 37.09ZM29.1938 36.19C29.4804 36.19 29.7271 36.12 29.9338 35.98C30.1471 35.84 30.3104 35.6467 30.4238 35.4C30.5438 35.1467 30.6038 34.8567 30.6038 34.53C30.6038 34.2033 30.5438 33.9167 30.4238 33.67C30.3104 33.4167 30.1471 33.2233 29.9338 33.09C29.7271 32.95 29.4804 32.88 29.1938 32.88C28.9138 32.88 28.6671 32.95 28.4538 33.09C28.2404 33.2233 28.0738 33.4167 27.9538 33.67C27.8404 33.9167 27.7838 34.2033 27.7838 34.53C27.7838 34.8567 27.8404 35.1467 27.9538 35.4C28.0738 35.6467 28.2404 35.84 28.4538 35.98C28.6671 36.12 28.9138 36.19 29.1938 36.19ZM36.0738 37L35.9938 36.09V33.9C35.9938 33.5533 35.8938 33.2867 35.6938 33.1C35.4938 32.9133 35.2038 32.82 34.8238 32.82C34.5572 32.82 34.3005 32.8733 34.0538 32.98C33.8138 33.0867 33.5838 33.26 33.3638 33.5L32.7538 32.87C33.0472 32.5633 33.3705 32.34 33.7238 32.2C34.0838 32.0533 34.4738 31.98 34.8938 31.98C35.5538 31.98 36.0638 32.15 36.4238 32.49C36.7905 32.8233 36.9738 33.2933 36.9738 33.9V37H36.0738ZM34.4838 37.09C34.1172 37.09 33.7938 37.0233 33.5138 36.89C33.2338 36.7567 33.0172 36.5733 32.8638 36.34C32.7105 36.1 32.6338 35.8233 32.6338 35.51C32.6338 35.2367 32.6905 35.0033 32.8038 34.81C32.9172 34.61 33.0638 34.4567 33.2438 34.35C33.4105 34.2433 33.6005 34.17 33.8138 34.13C34.0338 34.0833 34.2672 34.06 34.5138 34.06H36.0838V34.8H34.6538C34.5205 34.8 34.3805 34.8133 34.2338 34.84C34.0938 34.86 33.9738 34.9067 33.8738 34.98C33.7938 35.04 33.7305 35.1167 33.6838 35.21C33.6372 35.2967 33.6138 35.4 33.6138 35.52C33.6138 35.7533 33.7038 35.94 33.8838 36.08C34.0638 36.22 34.3038 36.29 34.6038 36.29C34.8572 36.29 35.0872 36.2333 35.2938 36.12C35.5072 36 35.6772 35.84 35.8038 35.64C35.9305 35.4333 35.9938 35.2 35.9938 34.94L36.3438 35.4C36.2838 35.7467 36.1672 36.05 35.9938 36.31C35.8205 36.5633 35.6038 36.7567 35.3438 36.89C35.0905 37.0233 34.8038 37.09 34.4838 37.09ZM38.2738 37V32.07H39.2638V33.4L39.0538 33.44C39.0871 33.1467 39.1871 32.8933 39.3538 32.68C39.5271 32.46 39.7304 32.29 39.9638 32.17C40.1971 32.0433 40.4271 31.98 40.6538 31.98C40.8138 31.98 40.9638 32 41.1038 32.04C41.2504 32.0733 41.3971 32.1333 41.5438 32.22L41.0638 33.1C40.9904 33.06 40.8971 33.0267 40.7838 33C40.6704 32.9733 40.5638 32.96 40.4638 32.96C40.3104 32.96 40.1604 32.9867 40.0138 33.04C39.8671 33.0933 39.7338 33.18 39.6138 33.3C39.5004 33.42 39.4138 33.5767 39.3538 33.77C39.3271 33.8633 39.3038 33.9867 39.2838 34.14C39.2704 34.2867 39.2638 34.49 39.2638 34.75V37H38.2738Z" fill="url(#paint0_linear_197_2313)"/>
<path fill-rule="evenodd" clip-rule="evenodd" d="M15.25 2H27.25C28.3109 2 29.3283 2.42143 30.0784 3.17157C30.8286 3.92172 31.25 4.93913 31.25 6V16C31.25 17.0609 30.8286 18.0783 30.0784 18.8284C29.3283 19.5786 28.3109 20 27.25 20H15.25C14.1891 20 13.1717 19.5786 12.4216 18.8284C11.6714 18.0783 11.25 17.0609 11.25 16V6C11.25 4.93913 11.6714 3.92172 12.4216 3.17157C13.1717 2.42143 14.1891 2 15.25 2ZM15.25 4C14.7196 4 14.2109 4.21071 13.8358 4.58579C13.4607 4.96086 13.25 5.46957 13.25 6V16C13.25 16.5304 13.4607 17.0391 13.8358 17.4142C14.2109 17.7893 14.7196 18 15.25 18H27.25C27.7804 18 28.2891 17.7893 28.6642 17.4142C29.0393 17.0391 29.25 16.5304 29.25 16V6C29.25 5.46957 29.0393 4.96086 28.6642 4.58579C28.2891 4.21071 27.7804 4 27.25 4H15.25Z" fill="url(#paint1_linear_197_2313)"/>
<path fill-rule="evenodd" clip-rule="evenodd" d="M12.25 8C12.25 7.73478 12.3554 7.48043 12.5429 7.29289C12.7304 7.10536 12.9848 7 13.25 7H29.25C29.5152 7 29.7696 7.10536 29.9571 7.29289C30.1446 7.48043 30.25 7.73478 30.25 8C30.25 8.26522 30.1446 8.51957 29.9571 8.70711C29.7696 8.89464 29.5152 9 29.25 9H13.25C12.9848 9 12.7304 8.89464 12.5429 8.70711C12.3554 8.51957 12.25 8.26522 12.25 8ZM17.25 0C17.5152 0 17.7696 0.105357 17.9571 0.292893C18.1446 0.48043 18.25 0.734784 18.25 1V5C18.25 5.26522 18.1446 5.51957 17.9571 5.70711C17.7696 5.89464 17.5152 6 17.25 6C16.9848 6 16.7304 5.89464 16.5429 5.70711C16.3554 5.51957 16.25 5.26522 16.25 5V1C16.25 0.734784 16.3554 0.48043 16.5429 0.292893C16.7304 0.105357 16.9848 0 17.25 0ZM25.25 0C25.5152 0 25.7696 0.105357 25.9571 0.292893C26.1446 0.48043 26.25 0.734784 26.25 1V5C26.25 5.26522 26.1446 5.51957 25.9571 5.70711C25.7696 5.89464 25.5152 6 25.25 6C24.9848 6 24.7304 5.89464 24.5429 5.70711C24.3554 5.51957 24.25 5.26522 24.25 5V1C24.25 0.734784 24.3554 0.48043 24.5429 0.292893C24.7304 0.105357 24.9848 0 25.25 0Z" fill="url(#paint2_linear_197_2313)"/>
<path d="M17.25 11C17.25 11.2652 17.1446 11.5196 16.9571 11.7071C16.7696 11.8946 16.5152 12 16.25 12C15.9848 12 15.7304 11.8946 15.5429 11.7071C15.3554 11.5196 15.25 11.2652 15.25 11C15.25 10.7348 15.3554 10.4804 15.5429 10.2929C15.7304 10.1054 15.9848 10 16.25 10C16.5152 10 16.7696 10.1054 16.9571 10.2929C17.1446 10.4804 17.25 10.7348 17.25 11ZM17.25 15C17.25 15.2652 17.1446 15.5196 16.9571 15.7071C16.7696 15.8946 16.5152 16 16.25 16C15.9848 16 15.7304 15.8946 15.5429 15.7071C15.3554 15.5196 15.25 15.2652 15.25 15C15.25 14.7348 15.3554 14.4804 15.5429 14.2929C15.7304 14.1054 15.9848 14 16.25 14C16.5152 14 16.7696 14.1054 16.9571 14.2929C17.1446 14.4804 17.25 14.7348 17.25 15ZM22.25 11C22.25 11.2652 22.1446 11.5196 21.9571 11.7071C21.7696 11.8946 21.5152 12 21.25 12C20.9848 12 20.7304 11.8946 20.5429 11.7071C20.3554 11.5196 20.25 11.2652 20.25 11C20.25 10.7348 20.3554 10.4804 20.5429 10.2929C20.7304 10.1054 20.9848 10 21.25 10C21.5152 10 21.7696 10.1054 21.9571 10.2929C22.1446 10.4804 22.25 10.7348 22.25 11ZM22.25 15C22.25 15.2652 22.1446 15.5196 21.9571 15.7071C21.7696 15.8946 21.5152 16 21.25 16C20.9848 16 20.7304 15.8946 20.5429 15.7071C20.3554 15.5196 20.25 15.2652 20.25 15C20.25 14.7348 20.3554 14.4804 20.5429 14.2929C20.7304 14.1054 20.9848 14 21.25 14C21.5152 14 21.7696 14.1054 21.9571 14.2929C22.1446 14.4804 22.25 14.7348 22.25 15ZM27.25 11C27.25 11.2652 27.1446 11.5196 26.9571 11.7071C26.7696 11.8946 26.5152 12 26.25 12C25.9848 12 25.7304 11.8946 25.5429 11.7071C25.3554 11.5196 25.25 11.2652 25.25 11C25.25 10.7348 25.3554 10.4804 25.5429 10.2929C25.7304 10.1054 25.9848 10 26.25 10C26.5152 10 26.7696 10.1054 26.9571 10.2929C27.1446 10.4804 27.25 10.7348 27.25 11ZM27.25 15C27.25 15.2652 27.1446 15.5196 26.9571 15.7071C26.7696 15.8946 26.5152 16 26.25 16C25.9848 16 25.7304 15.8946 25.5429 15.7071C25.3554 15.5196 25.25 15.2652 25.25 15C25.25 14.7348 25.3554 14.4804 25.5429 14.2929C25.7304 14.1054 25.9848 14 26.25 14C26.5152 14 26.7696 14.1054 26.9571 14.2929C27.1446 14.4804 27.25 14.7348 27.25 15Z" fill="url(#paint3_linear_197_2313)"/>
<defs>
<linearGradient id="paint0_linear_197_2313" x1="21.25" y1="26" x2="21.25" y2="41" gradientUnits="userSpaceOnUse">
<stop stop-color="#591DA9"/>
<stop offset="1" stop-color="#051960"/>
</linearGradient>
<linearGradient id="paint1_linear_197_2313" x1="21.25" y1="2" x2="21.25" y2="20" gradientUnits="userSpaceOnUse">
<stop stop-color="#591DA9"/>
<stop offset="1" stop-color="#051960"/>
</linearGradient>
<linearGradient id="paint2_linear_197_2313" x1="21.25" y1="0" x2="21.25" y2="9" gradientUnits="userSpaceOnUse">
<stop stop-color="#591DA9"/>
<stop offset="1" stop-color="#051960"/>
</linearGradient>
<linearGradient id="paint3_linear_197_2313" x1="21.25" y1="10" x2="21.25" y2="16" gradientUnits="userSpaceOnUse">
<stop stop-color="#591DA9"/>
<stop offset="1" stop-color="#051960"/>
</linearGradient>
</defs>
</svg>
