<svg width="25" height="43" viewBox="0 0 25 43" fill="none" xmlns="http://www.w3.org/2000/svg">
<path d="M2 39V32.03H4.15C4.91667 32.03 5.49667 32.1967 5.89 32.53C6.29 32.8633 6.49 33.36 6.49 34.02C6.49 34.6733 6.29 35.1733 5.89 35.52C5.49 35.8667 4.91 36.04 4.15 36.04H3.01V39H2ZM3.01 35.14H4.05C4.49667 35.14 4.84667 35.0533 5.1 34.88C5.35333 34.7 5.48 34.4167 5.48 34.03C5.48 33.65 5.35667 33.3733 5.11 33.2C4.87 33.0267 4.51667 32.94 4.05 32.94H3.01V35.14ZM8.54641 39.09C8.23307 39.09 7.97641 38.9933 7.77641 38.8C7.57641 38.6067 7.47641 38.3 7.47641 37.88V32.03H8.44641V37.69C8.44641 37.8633 8.48307 37.99 8.55641 38.07C8.63641 38.1433 8.73974 38.18 8.86641 38.18C8.91974 38.18 8.97974 38.1767 9.04641 38.17C9.11974 38.1567 9.19307 38.1367 9.26641 38.11V38.94C9.14641 38.9933 9.01974 39.03 8.88641 39.05C8.75974 39.0767 8.64641 39.09 8.54641 39.09ZM13.402 39L13.322 38.09V35.9C13.322 35.5533 13.222 35.2867 13.022 35.1C12.822 34.9133 12.532 34.82 12.152 34.82C11.8853 34.82 11.6286 34.8733 11.382 34.98C11.142 35.0867 10.912 35.26 10.692 35.5L10.082 34.87C10.3753 34.5633 10.6986 34.34 11.052 34.2C11.412 34.0533 11.802 33.98 12.222 33.98C12.882 33.98 13.392 34.15 13.752 34.49C14.1186 34.8233 14.302 35.2933 14.302 35.9V39H13.402ZM11.812 39.09C11.4453 39.09 11.122 39.0233 10.842 38.89C10.562 38.7567 10.3453 38.5733 10.192 38.34C10.0386 38.1 9.96195 37.8233 9.96195 37.51C9.96195 37.2367 10.0186 37.0033 10.132 36.81C10.2453 36.61 10.392 36.4567 10.572 36.35C10.7386 36.2433 10.9286 36.17 11.142 36.13C11.362 36.0833 11.5953 36.06 11.842 36.06H13.412V36.8H11.982C11.8486 36.8 11.7086 36.8133 11.562 36.84C11.422 36.86 11.302 36.9067 11.202 36.98C11.122 37.04 11.0586 37.1167 11.012 37.21C10.9653 37.2967 10.942 37.4 10.942 37.52C10.942 37.7533 11.032 37.94 11.212 38.08C11.392 38.22 11.632 38.29 11.932 38.29C12.1853 38.29 12.4153 38.2333 12.622 38.12C12.8353 38 13.0053 37.84 13.132 37.64C13.2586 37.4333 13.322 37.2 13.322 36.94L13.672 37.4C13.612 37.7467 13.4953 38.05 13.322 38.31C13.1486 38.5633 12.932 38.7567 12.672 38.89C12.4186 39.0233 12.132 39.09 11.812 39.09ZM15.6019 39V34.07H16.5919V35.14L16.3919 35.2C16.4785 34.9267 16.6019 34.7033 16.7619 34.53C16.9285 34.35 17.1219 34.2133 17.3419 34.12C17.5685 34.0267 17.8119 33.98 18.0719 33.98C18.6185 33.98 19.0452 34.14 19.3519 34.46C19.6652 34.7733 19.8219 35.2333 19.8219 35.84V39H18.8419V36.2C18.8419 35.7267 18.7552 35.38 18.5819 35.16C18.4152 34.94 18.1552 34.83 17.8019 34.83C17.5352 34.83 17.3119 34.89 17.1319 35.01C16.9585 35.13 16.8252 35.32 16.7319 35.58C16.6385 35.84 16.5919 36.17 16.5919 36.57V39H15.6019Z" fill="url(#paint0_linear_197_2281)"/>
<path d="M9.3571 5.448C9.9551 3.698 12.3731 3.645 13.0821 5.289L13.1421 5.449L13.9491 7.809C14.134 8.35023 14.4329 8.84551 14.8255 9.26142C15.2182 9.67734 15.6954 10.0042 16.2251 10.22L16.4421 10.301L18.8021 11.107C20.5521 11.705 20.6051 14.123 18.9621 14.832L18.8021 14.892L16.4421 15.699C15.9007 15.8838 15.4052 16.1826 14.9891 16.5753C14.573 16.9679 14.246 17.4452 14.0301 17.975L13.9491 18.191L13.1431 20.552C12.5451 22.302 10.1271 22.355 9.4191 20.712L9.3571 20.552L8.5511 18.192C8.36628 17.6506 8.06748 17.1551 7.67485 16.739C7.28222 16.3229 6.8049 15.9959 6.2751 15.78L6.0591 15.699L3.6991 14.893C1.9481 14.295 1.8951 11.877 3.5391 11.169L3.6991 11.107L6.0591 10.301C6.60034 10.1161 7.09562 9.81719 7.51153 9.42457C7.92744 9.03195 8.25432 8.55469 8.4701 8.025L8.5511 7.809L9.3571 5.448ZM11.2501 6.094L10.4441 8.454C10.1625 9.2793 9.70437 10.0333 9.10164 10.6635C8.49891 11.2937 7.76605 11.7849 6.9541 12.103L6.7041 12.194L4.3441 13L6.7041 13.806C7.52941 14.0876 8.28341 14.5457 8.9136 15.1485C9.54379 15.7512 10.035 16.4841 10.3531 17.296L10.4441 17.546L11.2501 19.906L12.0561 17.546C12.3377 16.7207 12.7958 15.9667 13.3986 15.3365C14.0013 14.7063 14.7342 14.2151 15.5461 13.897L15.7961 13.807L18.1561 13L15.7961 12.194C14.9708 11.9124 14.2168 11.4543 13.5866 10.8515C12.9564 10.2488 12.4652 9.51595 12.1471 8.704L12.0571 8.454L11.2501 6.094ZM19.2501 2C19.4372 2 19.6205 2.05248 19.7793 2.15147C19.938 2.25046 20.0658 2.392 20.1481 2.56L20.1961 2.677L20.5461 3.703L21.5731 4.053C21.7606 4.1167 21.9249 4.23462 22.0453 4.39182C22.1657 4.54902 22.2367 4.73842 22.2494 4.93602C22.262 5.13362 22.2157 5.33053 22.1163 5.50179C22.0169 5.67304 21.8689 5.81094 21.6911 5.898L21.5731 5.946L20.5471 6.296L20.1971 7.323C20.1333 7.51043 20.0153 7.6747 19.858 7.79499C19.7008 7.91529 19.5113 7.98619 19.3137 7.99872C19.1161 8.01125 18.9193 7.96484 18.7481 7.86538C18.5769 7.76591 18.4391 7.61787 18.3521 7.44L18.3041 7.323L17.9541 6.297L16.9271 5.947C16.7396 5.8833 16.5753 5.76538 16.4549 5.60819C16.3345 5.45099 16.2635 5.26158 16.2508 5.06398C16.2382 4.86638 16.2845 4.66947 16.3839 4.49821C16.4833 4.32696 16.6313 4.18906 16.8091 4.102L16.9271 4.054L17.9531 3.704L18.3031 2.677C18.3705 2.47943 18.4981 2.30791 18.6679 2.1865C18.8378 2.06509 19.0413 1.99987 19.2501 2Z" fill="url(#paint1_linear_197_2281)"/>
<defs>
<linearGradient id="paint0_linear_197_2281" x1="11.25" y1="28" x2="11.25" y2="43" gradientUnits="userSpaceOnUse">
<stop stop-color="#591DA9"/>
<stop offset="1" stop-color="#051960"/>
</linearGradient>
<linearGradient id="paint1_linear_197_2281" x1="12.2981" y1="2" x2="12.2981" y2="21.9056" gradientUnits="userSpaceOnUse">
<stop stop-color="#591DA9"/>
<stop offset="1" stop-color="#051960"/>
</linearGradient>
</defs>
</svg>
