<svg width="25" height="43" viewBox="0 0 25 43" fill="none" xmlns="http://www.w3.org/2000/svg">
<path d="M4.97 39.13C4.32333 39.13 3.75333 38.98 3.26 38.68C2.77333 38.38 2.39333 37.9567 2.12 37.41C1.84667 36.8633 1.71 36.23 1.71 35.51C1.71 34.79 1.84667 34.16 2.12 33.62C2.39333 33.0733 2.77333 32.65 3.26 32.35C3.75333 32.05 4.32333 31.9 4.97 31.9C5.68333 31.9 6.3 32.0767 6.82 32.43C7.34667 32.7833 7.72333 33.2733 7.95 33.9L7 34.25C6.83333 33.8167 6.57667 33.48 6.23 33.24C5.88333 32.9933 5.46333 32.87 4.97 32.87C4.51667 32.87 4.12 32.98 3.78 33.2C3.44667 33.4133 3.18667 33.7167 3 34.11C2.82 34.4967 2.73 34.9633 2.73 35.51C2.73 36.0567 2.82 36.5267 3 36.92C3.18667 37.3133 3.44667 37.62 3.78 37.84C4.12 38.0533 4.51667 38.16 4.97 38.16C5.46333 38.16 5.88333 38.04 6.23 37.8C6.57667 37.5533 6.83333 37.2133 7 36.78L7.95 37.12C7.72333 37.74 7.34667 38.23 6.82 38.59C6.3 38.95 5.68333 39.13 4.97 39.13ZM8.99055 39V32.03H9.98055V35.14L9.77055 35.21C9.85721 34.9367 9.98388 34.71 10.1505 34.53C10.3239 34.35 10.5205 34.2133 10.7405 34.12C10.9672 34.0267 11.2072 33.98 11.4605 33.98C12.0072 33.98 12.4339 34.14 12.7405 34.46C13.0539 34.7733 13.2105 35.2333 13.2105 35.84V39H12.2305V36.2C12.2305 35.7267 12.1439 35.38 11.9705 35.16C11.8039 34.94 11.5439 34.83 11.1905 34.83C10.7972 34.83 10.4972 34.97 10.2905 35.25C10.0839 35.5233 9.98055 35.9633 9.98055 36.57V39H8.99055ZM17.7379 39L17.6579 38.09V35.9C17.6579 35.5533 17.5579 35.2867 17.3579 35.1C17.1579 34.9133 16.8679 34.82 16.4879 34.82C16.2212 34.82 15.9646 34.8733 15.7179 34.98C15.4779 35.0867 15.2479 35.26 15.0279 35.5L14.4179 34.87C14.7112 34.5633 15.0346 34.34 15.3879 34.2C15.7479 34.0533 16.1379 33.98 16.5579 33.98C17.2179 33.98 17.7279 34.15 18.0879 34.49C18.4546 34.8233 18.6379 35.2933 18.6379 35.9V39H17.7379ZM16.1479 39.09C15.7812 39.09 15.4579 39.0233 15.1779 38.89C14.8979 38.7567 14.6812 38.5733 14.5279 38.34C14.3746 38.1 14.2979 37.8233 14.2979 37.51C14.2979 37.2367 14.3546 37.0033 14.4679 36.81C14.5812 36.61 14.7279 36.4567 14.9079 36.35C15.0746 36.2433 15.2646 36.17 15.4779 36.13C15.6979 36.0833 15.9312 36.06 16.1779 36.06H17.7479V36.8H16.3179C16.1846 36.8 16.0446 36.8133 15.8979 36.84C15.7579 36.86 15.6379 36.9067 15.5379 36.98C15.4579 37.04 15.3946 37.1167 15.3479 37.21C15.3012 37.2967 15.2779 37.4 15.2779 37.52C15.2779 37.7533 15.3679 37.94 15.5479 38.08C15.7279 38.22 15.9679 38.29 16.2679 38.29C16.5212 38.29 16.7512 38.2333 16.9579 38.12C17.1712 38 17.3412 37.84 17.4679 37.64C17.5946 37.4333 17.6579 37.2 17.6579 36.94L18.0079 37.4C17.9479 37.7467 17.8312 38.05 17.6579 38.31C17.4846 38.5633 17.2679 38.7567 17.0079 38.89C16.7546 39.0233 16.4679 39.09 16.1479 39.09ZM21.6578 39.09C21.4178 39.09 21.1945 39.0433 20.9878 38.95C20.7878 38.8567 20.6278 38.7067 20.5078 38.5C20.3945 38.2867 20.3378 38.0133 20.3378 37.68V32.81L21.3278 32.26V37.42C21.3278 37.6933 21.3678 37.9067 21.4478 38.06C21.5345 38.2067 21.6911 38.28 21.9178 38.28C21.9845 38.28 22.0611 38.2733 22.1478 38.26C22.2411 38.24 22.3411 38.2167 22.4478 38.19V38.95C22.3145 38.9967 22.1811 39.03 22.0478 39.05C21.9145 39.0767 21.7845 39.09 21.6578 39.09ZM19.3578 34.83V34.07H22.4478V34.83H19.3578Z" fill="url(#paint0_linear_197_2281)"/>
<path d="M9.3571 5.448C9.9551 3.698 12.3731 3.645 13.0821 5.289L13.1421 5.449L13.9491 7.809C14.134 8.35023 14.4329 8.84551 14.8255 9.26142C15.2182 9.67734 15.6954 10.0042 16.2251 10.22L16.4421 10.301L18.8021 11.107C20.5521 11.705 20.6051 14.123 18.9621 14.832L18.8021 14.892L16.4421 15.699C15.9007 15.8838 15.4052 16.1826 14.9891 16.5753C14.573 16.9679 14.246 17.4452 14.0301 17.975L13.9491 18.191L13.1431 20.552C12.5451 22.302 10.1271 22.355 9.4191 20.712L9.3571 20.552L8.5511 18.192C8.36628 17.6506 8.06748 17.1551 7.67485 16.739C7.28222 16.3229 6.8049 15.9959 6.2751 15.78L6.0591 15.699L3.6991 14.893C1.9481 14.295 1.8951 11.877 3.5391 11.169L3.6991 11.107L6.0591 10.301C6.60034 10.1161 7.09562 9.81719 7.51153 9.42457C7.92744 9.03195 8.25432 8.55469 8.4701 8.025L8.5511 7.809L9.3571 5.448ZM11.2501 6.094L10.4441 8.454C10.1625 9.2793 9.70437 10.0333 9.10164 10.6635C8.49891 11.2937 7.76605 11.7849 6.9541 12.103L6.7041 12.194L4.3441 13L6.7041 13.806C7.52941 14.0876 8.28341 14.5457 8.9136 15.1485C9.54379 15.7512 10.035 16.4841 10.3531 17.296L10.4441 17.546L11.2501 19.906L12.0561 17.546C12.3377 16.7207 12.7958 15.9667 13.3986 15.3365C14.0013 14.7063 14.7342 14.2151 15.5461 13.897L15.7961 13.807L18.1561 13L15.7961 12.194C14.9708 11.9124 14.2168 11.4543 13.5866 10.8515C12.9564 10.2488 12.4652 9.51595 12.1471 8.704L12.0571 8.454L11.2501 6.094ZM19.2501 2C19.4372 2 19.6205 2.05248 19.7793 2.15147C19.938 2.25046 20.0658 2.392 20.1481 2.56L20.1961 2.677L20.5461 3.703L21.5731 4.053C21.7606 4.1167 21.9249 4.23462 22.0453 4.39182C22.1657 4.54902 22.2367 4.73842 22.2494 4.93602C22.262 5.13362 22.2157 5.33053 22.1163 5.50179C22.0169 5.67304 21.8689 5.81094 21.6911 5.898L21.5731 5.946L20.5471 6.296L20.1971 7.323C20.1333 7.51043 20.0153 7.6747 19.858 7.79499C19.7008 7.91529 19.5113 7.98619 19.3137 7.99872C19.1161 8.01125 18.9193 7.96484 18.7481 7.86538C18.5769 7.76591 18.4391 7.61787 18.3521 7.44L18.3041 7.323L17.9541 6.297L16.9271 5.947C16.7396 5.8833 16.5753 5.76538 16.4549 5.60819C16.3345 5.45099 16.2635 5.26158 16.2508 5.06398C16.2382 4.86638 16.2845 4.66947 16.3839 4.49821C16.4833 4.32696 16.6313 4.18906 16.8091 4.102L16.9271 4.054L17.9531 3.704L18.3031 2.677C18.3705 2.47943 18.4981 2.30791 18.6679 2.1865C18.8378 2.06509 19.0413 1.99987 19.2501 2Z" fill="url(#paint1_linear_197_2281)"/>
<defs>
<linearGradient id="paint0_linear_197_2281" x1="12.25" y1="28" x2="12.25" y2="43" gradientUnits="userSpaceOnUse">
<stop stop-color="#591DA9"/>
<stop offset="1" stop-color="#051960"/>
</linearGradient>
<linearGradient id="paint1_linear_197_2281" x1="12.2981" y1="2" x2="12.2981" y2="21.9056" gradientUnits="userSpaceOnUse">
<stop stop-color="#591DA9"/>
<stop offset="1" stop-color="#051960"/>
</linearGradient>
</defs>
</svg>
