<svg width="34" height="43" viewBox="0 0 34 43" fill="none" xmlns="http://www.w3.org/2000/svg">
<path d="M1 39V32.03H2.02V34.95H5.31V32.03H6.33V39H5.31V35.9H2.02V39H1ZM7.74617 39V34.07H8.72617V39H7.74617ZM7.67617 33.22V32.03H8.78617V33.22H7.67617ZM11.7404 39.09C11.3937 39.09 11.0871 39.04 10.8204 38.94C10.5537 38.8333 10.3237 38.7 10.1304 38.54C9.94372 38.3733 9.79372 38.2033 9.68039 38.03L10.3504 37.45C10.4771 37.6767 10.6571 37.8733 10.8904 38.04C11.1304 38.2 11.4171 38.28 11.7504 38.28C12.0437 38.28 12.2737 38.22 12.4404 38.1C12.6137 37.9733 12.7004 37.81 12.7004 37.61C12.7004 37.45 12.6471 37.3233 12.5404 37.23C12.4337 37.13 12.2937 37.05 12.1204 36.99C11.9471 36.9233 11.7571 36.8667 11.5504 36.82C11.3637 36.7667 11.1737 36.7067 10.9804 36.64C10.7871 36.5733 10.6104 36.49 10.4504 36.39C10.2971 36.2833 10.1704 36.15 10.0704 35.99C9.97706 35.8233 9.93039 35.62 9.93039 35.38C9.93039 34.96 10.0904 34.6233 10.4104 34.37C10.7371 34.11 11.1671 33.98 11.7004 33.98C12.0804 33.98 12.4271 34.06 12.7404 34.22C13.0537 34.3733 13.2971 34.6033 13.4704 34.91L12.8604 35.38C12.7271 35.16 12.5537 35 12.3404 34.9C12.1337 34.8 11.9071 34.75 11.6604 34.75C11.4271 34.75 11.2304 34.8 11.0704 34.9C10.9171 34.9933 10.8404 35.1233 10.8404 35.29C10.8404 35.41 10.8737 35.51 10.9404 35.59C11.0137 35.6633 11.1237 35.73 11.2704 35.79C11.4237 35.8433 11.6104 35.8967 11.8304 35.95C12.0371 35.9967 12.2471 36.0533 12.4604 36.12C12.6737 36.1867 12.8704 36.2733 13.0504 36.38C13.2304 36.4867 13.3771 36.63 13.4904 36.81C13.6037 36.99 13.6604 37.2233 13.6604 37.51C13.6604 37.8233 13.5804 38.1 13.4204 38.34C13.2604 38.5733 13.0371 38.7567 12.7504 38.89C12.4637 39.0233 12.1271 39.09 11.7404 39.09ZM16.5074 39.09C16.2674 39.09 16.0441 39.0433 15.8374 38.95C15.6374 38.8567 15.4774 38.7067 15.3574 38.5C15.2441 38.2867 15.1874 38.0133 15.1874 37.68V32.81L16.1774 32.26V37.42C16.1774 37.6933 16.2174 37.9067 16.2974 38.06C16.3841 38.2067 16.5408 38.28 16.7674 38.28C16.8341 38.28 16.9108 38.2733 16.9974 38.26C17.0908 38.24 17.1908 38.2167 17.2974 38.19V38.95C17.1641 38.9967 17.0308 39.03 16.8974 39.05C16.7641 39.0767 16.6341 39.09 16.5074 39.09ZM14.2074 34.83V34.07H17.2974V34.83H14.2074ZM20.4152 39.09C19.9485 39.09 19.5318 38.98 19.1652 38.76C18.7985 38.54 18.5085 38.2367 18.2952 37.85C18.0885 37.4633 17.9852 37.0233 17.9852 36.53C17.9852 36.0367 18.0885 35.6 18.2952 35.22C18.5018 34.8333 18.7885 34.53 19.1552 34.31C19.5285 34.09 19.9485 33.98 20.4152 33.98C20.8885 33.98 21.3052 34.09 21.6652 34.31C22.0252 34.53 22.3085 34.8333 22.5152 35.22C22.7285 35.6 22.8352 36.0367 22.8352 36.53C22.8352 37.0233 22.7285 37.4633 22.5152 37.85C22.3085 38.23 22.0218 38.5333 21.6552 38.76C21.2952 38.98 20.8818 39.09 20.4152 39.09ZM20.4152 38.22C20.7085 38.22 20.9618 38.15 21.1752 38.01C21.3952 37.87 21.5618 37.6733 21.6752 37.42C21.7952 37.1667 21.8552 36.87 21.8552 36.53C21.8552 36.1833 21.7952 35.8833 21.6752 35.63C21.5618 35.3767 21.3952 35.1833 21.1752 35.05C20.9618 34.91 20.7085 34.84 20.4152 34.84C20.1152 34.84 19.8552 34.91 19.6352 35.05C19.4218 35.19 19.2552 35.3867 19.1352 35.64C19.0218 35.8867 18.9652 36.1833 18.9652 36.53C18.9652 36.87 19.0218 37.1667 19.1352 37.42C19.2552 37.6733 19.4218 37.87 19.6352 38.01C19.8552 38.15 20.1152 38.22 20.4152 38.22ZM23.9671 39V34.07H24.9571V35.4L24.7471 35.44C24.7804 35.1467 24.8804 34.8933 25.0471 34.68C25.2204 34.46 25.4238 34.29 25.6571 34.17C25.8904 34.0433 26.1204 33.98 26.3471 33.98C26.5071 33.98 26.6571 34 26.7971 34.04C26.9438 34.0733 27.0904 34.1333 27.2371 34.22L26.7571 35.1C26.6838 35.06 26.5904 35.0267 26.4771 35C26.3638 34.9733 26.2571 34.96 26.1571 34.96C26.0038 34.96 25.8538 34.9867 25.7071 35.04C25.5604 35.0933 25.4271 35.18 25.3071 35.3C25.1938 35.42 25.1071 35.5767 25.0471 35.77C25.0204 35.8633 24.9971 35.9867 24.9771 36.14C24.9638 36.2867 24.9571 36.49 24.9571 36.75V39H23.9671ZM28.558 41.03L29.518 38.71L27.618 34.07H28.698L30.038 37.73L31.398 34.07H32.458L29.628 41.03H28.558Z" fill="url(#paint0_linear_197_2197)"/>
<path fill-rule="evenodd" clip-rule="evenodd" d="M10.75 2C10.2196 2 9.71086 2.21071 9.33579 2.58579C8.96071 2.96086 8.75 3.46957 8.75 4V20C8.75 20.5304 8.96071 21.0391 9.33579 21.4142C9.71086 21.7893 10.2196 22 10.75 22H22.75C23.2804 22 23.7891 21.7893 24.1642 21.4142C24.5393 21.0391 24.75 20.5304 24.75 20V6.414C24.7499 5.88361 24.5391 5.37499 24.164 5L21.75 2.586C21.375 2.2109 20.8664 2.00011 20.336 2H10.75ZM10.75 4H20.336L22.75 6.414V20H10.75V4ZM20.988 10.793C21.0835 10.7008 21.1597 10.5904 21.2121 10.4684C21.2645 10.3464 21.2921 10.2152 21.2933 10.0824C21.2944 9.94962 21.2691 9.81794 21.2188 9.69505C21.1685 9.57215 21.0943 9.4605 21.0004 9.3666C20.9065 9.27271 20.7949 9.19846 20.672 9.14818C20.5491 9.0979 20.4174 9.0726 20.2846 9.07375C20.1518 9.0749 20.0206 9.10249 19.8986 9.1549C19.7766 9.20731 19.6662 9.28349 19.574 9.379L15.332 13.622L13.917 12.207C13.7284 12.0248 13.4758 11.924 13.2136 11.9263C12.9514 11.9286 12.7006 12.0338 12.5152 12.2192C12.3298 12.4046 12.2246 12.6554 12.2223 12.9176C12.22 13.1798 12.3208 13.4324 12.503 13.621L14.553 15.672C14.6552 15.7742 14.7764 15.8553 14.9099 15.9106C15.0434 15.9659 15.1865 15.9944 15.331 15.9944C15.4755 15.9944 15.6186 15.9659 15.7521 15.9106C15.8856 15.8553 16.0068 15.7742 16.109 15.672L20.988 10.793Z" fill="url(#paint1_linear_197_2197)"/>
<defs>
<linearGradient id="paint0_linear_197_2197" x1="16.75" y1="28" x2="16.75" y2="43" gradientUnits="userSpaceOnUse">
<stop stop-color="#591DA9"/>
<stop offset="1" stop-color="#051960"/>
</linearGradient>
<linearGradient id="paint1_linear_197_2197" x1="16.75" y1="2" x2="16.75" y2="22" gradientUnits="userSpaceOnUse">
<stop stop-color="#591DA9"/>
<stop offset="1" stop-color="#051960"/>
</linearGradient>
</defs>
</svg>
