<svg width="33" height="43" viewBox="0 0 33 43" fill="none" xmlns="http://www.w3.org/2000/svg">
<path d="M16.25 21C14.15 21 12.2917 20.3627 10.675 19.088C9.05833 17.8133 8.00833 16.184 7.525 14.2C7.45833 13.95 7.50833 13.721 7.675 13.513C7.84167 13.305 8.06667 13.184 8.35 13.15C8.61667 13.1167 8.85833 13.1667 9.075 13.3C9.29167 13.4333 9.44167 13.6333 9.525 13.9C9.925 15.4 10.75 16.625 12 17.575C13.25 18.525 14.6667 19 16.25 19C18.2 19 19.8543 18.321 21.213 16.963C22.5717 15.605 23.2507 13.9507 23.25 12C23.2493 10.0493 22.5703 8.39533 21.213 7.038C19.8557 5.68067 18.2013 5.00133 16.25 5C15.1 5 14.025 5.26667 13.025 5.8C12.025 6.33333 11.1833 7.06667 10.5 8H12.25C12.5333 8 12.771 8.096 12.963 8.288C13.155 8.48 13.2507 8.71733 13.25 9C13.2493 9.28267 13.1533 9.52033 12.962 9.713C12.7707 9.90567 12.5333 10.0013 12.25 10H8.25C7.96667 10 7.72933 9.904 7.538 9.712C7.34667 9.52 7.25067 9.28267 7.25 9V5C7.25 4.71667 7.346 4.47933 7.538 4.288C7.73 4.09667 7.96733 4.00067 8.25 4C8.53267 3.99933 8.77033 4.09533 8.963 4.288C9.15567 4.48067 9.25133 4.718 9.25 5V6.35C10.1 5.28333 11.1377 4.45833 12.363 3.875C13.5883 3.29167 14.884 3 16.25 3C17.5 3 18.671 3.23767 19.763 3.713C20.855 4.18833 21.805 4.82967 22.613 5.637C23.421 6.44433 24.0627 7.39433 24.538 8.487C25.0133 9.57967 25.2507 10.7507 25.25 12C25.2493 13.2493 25.012 14.4203 24.538 15.513C24.064 16.6057 23.4223 17.5557 22.613 18.363C21.8037 19.1703 20.8537 19.812 19.763 20.288C18.6723 20.764 17.5013 21.0013 16.25 21ZM17.25 11.6L19.75 14.1C19.9333 14.2833 20.025 14.5167 20.025 14.8C20.025 15.0833 19.9333 15.3167 19.75 15.5C19.5667 15.6833 19.3333 15.775 19.05 15.775C18.7667 15.775 18.5333 15.6833 18.35 15.5L15.55 12.7C15.45 12.6 15.375 12.4877 15.325 12.363C15.275 12.2383 15.25 12.109 15.25 11.975V8C15.25 7.71667 15.346 7.47933 15.538 7.288C15.73 7.09667 15.9673 7.00067 16.25 7C16.5327 6.99933 16.7703 7.09533 16.963 7.288C17.1557 7.48067 17.2513 7.718 17.25 8V11.6Z" fill="url(#paint0_linear_1036_7490)"/>
<path d="M0.75 39V32.03H1.77V34.95H5.06V32.03H6.08V39H5.06V35.9H1.77V39H0.75ZM7.49617 39V34.07H8.47617V39H7.49617ZM7.42617 33.22V32.03H8.53617V33.22H7.42617ZM11.4904 39.09C11.1437 39.09 10.8371 39.04 10.5704 38.94C10.3037 38.8333 10.0737 38.7 9.88039 38.54C9.69372 38.3733 9.54372 38.2033 9.43039 38.03L10.1004 37.45C10.2271 37.6767 10.4071 37.8733 10.6404 38.04C10.8804 38.2 11.1671 38.28 11.5004 38.28C11.7937 38.28 12.0237 38.22 12.1904 38.1C12.3637 37.9733 12.4504 37.81 12.4504 37.61C12.4504 37.45 12.3971 37.3233 12.2904 37.23C12.1837 37.13 12.0437 37.05 11.8704 36.99C11.6971 36.9233 11.5071 36.8667 11.3004 36.82C11.1137 36.7667 10.9237 36.7067 10.7304 36.64C10.5371 36.5733 10.3604 36.49 10.2004 36.39C10.0471 36.2833 9.92039 36.15 9.82039 35.99C9.72706 35.8233 9.68039 35.62 9.68039 35.38C9.68039 34.96 9.84039 34.6233 10.1604 34.37C10.4871 34.11 10.9171 33.98 11.4504 33.98C11.8304 33.98 12.1771 34.06 12.4904 34.22C12.8037 34.3733 13.0471 34.6033 13.2204 34.91L12.6104 35.38C12.4771 35.16 12.3037 35 12.0904 34.9C11.8837 34.8 11.6571 34.75 11.4104 34.75C11.1771 34.75 10.9804 34.8 10.8204 34.9C10.6671 34.9933 10.5904 35.1233 10.5904 35.29C10.5904 35.41 10.6237 35.51 10.6904 35.59C10.7637 35.6633 10.8737 35.73 11.0204 35.79C11.1737 35.8433 11.3604 35.8967 11.5804 35.95C11.7871 35.9967 11.9971 36.0533 12.2104 36.12C12.4237 36.1867 12.6204 36.2733 12.8004 36.38C12.9804 36.4867 13.1271 36.63 13.2404 36.81C13.3537 36.99 13.4104 37.2233 13.4104 37.51C13.4104 37.8233 13.3304 38.1 13.1704 38.34C13.0104 38.5733 12.7871 38.7567 12.5004 38.89C12.2137 39.0233 11.8771 39.09 11.4904 39.09ZM16.2574 39.09C16.0174 39.09 15.7941 39.0433 15.5874 38.95C15.3874 38.8567 15.2274 38.7067 15.1074 38.5C14.9941 38.2867 14.9374 38.0133 14.9374 37.68V32.81L15.9274 32.26V37.42C15.9274 37.6933 15.9674 37.9067 16.0474 38.06C16.1341 38.2067 16.2908 38.28 16.5174 38.28C16.5841 38.28 16.6608 38.2733 16.7474 38.26C16.8408 38.24 16.9408 38.2167 17.0474 38.19V38.95C16.9141 38.9967 16.7808 39.03 16.6474 39.05C16.5141 39.0767 16.3841 39.09 16.2574 39.09ZM13.9574 34.83V34.07H17.0474V34.83H13.9574ZM20.1652 39.09C19.6985 39.09 19.2818 38.98 18.9152 38.76C18.5485 38.54 18.2585 38.2367 18.0452 37.85C17.8385 37.4633 17.7352 37.0233 17.7352 36.53C17.7352 36.0367 17.8385 35.6 18.0452 35.22C18.2518 34.8333 18.5385 34.53 18.9052 34.31C19.2785 34.09 19.6985 33.98 20.1652 33.98C20.6385 33.98 21.0552 34.09 21.4152 34.31C21.7752 34.53 22.0585 34.8333 22.2652 35.22C22.4785 35.6 22.5852 36.0367 22.5852 36.53C22.5852 37.0233 22.4785 37.4633 22.2652 37.85C22.0585 38.23 21.7718 38.5333 21.4052 38.76C21.0452 38.98 20.6318 39.09 20.1652 39.09ZM20.1652 38.22C20.4585 38.22 20.7118 38.15 20.9252 38.01C21.1452 37.87 21.3118 37.6733 21.4252 37.42C21.5452 37.1667 21.6052 36.87 21.6052 36.53C21.6052 36.1833 21.5452 35.8833 21.4252 35.63C21.3118 35.3767 21.1452 35.1833 20.9252 35.05C20.7118 34.91 20.4585 34.84 20.1652 34.84C19.8652 34.84 19.6052 34.91 19.3852 35.05C19.1718 35.19 19.0052 35.3867 18.8852 35.64C18.7718 35.8867 18.7152 36.1833 18.7152 36.53C18.7152 36.87 18.7718 37.1667 18.8852 37.42C19.0052 37.6733 19.1718 37.87 19.3852 38.01C19.6052 38.15 19.8652 38.22 20.1652 38.22ZM23.7171 39V34.07H24.7071V35.4L24.4971 35.44C24.5304 35.1467 24.6304 34.8933 24.7971 34.68C24.9704 34.46 25.1738 34.29 25.4071 34.17C25.6404 34.0433 25.8704 33.98 26.0971 33.98C26.2571 33.98 26.4071 34 26.5471 34.04C26.6938 34.0733 26.8404 34.1333 26.9871 34.22L26.5071 35.1C26.4338 35.06 26.3404 35.0267 26.2271 35C26.1138 34.9733 26.0071 34.96 25.9071 34.96C25.7538 34.96 25.6038 34.9867 25.4571 35.04C25.3104 35.0933 25.1771 35.18 25.0571 35.3C24.9438 35.42 24.8571 35.5767 24.7971 35.77C24.7704 35.8633 24.7471 35.9867 24.7271 36.14C24.7138 36.2867 24.7071 36.49 24.7071 36.75V39H23.7171ZM28.308 41.03L29.268 38.71L27.368 34.07H28.448L29.788 37.73L31.148 34.07H32.208L29.378 41.03H28.308Z" fill="url(#paint1_linear_1036_7490)"/>
<defs>
<linearGradient id="paint0_linear_1036_7490" x1="16.25" y1="3" x2="16.25" y2="21" gradientUnits="userSpaceOnUse">
<stop stop-color="#591DA9"/>
<stop offset="1" stop-color="#051960"/>
</linearGradient>
<linearGradient id="paint1_linear_1036_7490" x1="16.5" y1="28" x2="16.5" y2="43" gradientUnits="userSpaceOnUse">
<stop stop-color="#591DA9"/>
<stop offset="1" stop-color="#051960"/>
</linearGradient>
</defs>
</svg>
