<svg width="34" height="43" viewBox="0 0 34 43" fill="none" xmlns="http://www.w3.org/2000/svg">
<path d="M1.5 39V32.03H2.52V34.95H5.81V32.03H6.83V39H5.81V35.9H2.52V39H1.5ZM8.24617 39V34.07H9.22617V39H8.24617ZM8.17617 33.22V32.03H9.28617V33.22H8.17617ZM12.2404 39.09C11.8937 39.09 11.5871 39.04 11.3204 38.94C11.0537 38.8333 10.8237 38.7 10.6304 38.54C10.4437 38.3733 10.2937 38.2033 10.1804 38.03L10.8504 37.45C10.9771 37.6767 11.1571 37.8733 11.3904 38.04C11.6304 38.2 11.9171 38.28 12.2504 38.28C12.5437 38.28 12.7737 38.22 12.9404 38.1C13.1137 37.9733 13.2004 37.81 13.2004 37.61C13.2004 37.45 13.1471 37.3233 13.0404 37.23C12.9337 37.13 12.7937 37.05 12.6204 36.99C12.4471 36.9233 12.2571 36.8667 12.0504 36.82C11.8637 36.7667 11.6737 36.7067 11.4804 36.64C11.2871 36.5733 11.1104 36.49 10.9504 36.39C10.7971 36.2833 10.6704 36.15 10.5704 35.99C10.4771 35.8233 10.4304 35.62 10.4304 35.38C10.4304 34.96 10.5904 34.6233 10.9104 34.37C11.2371 34.11 11.6671 33.98 12.2004 33.98C12.5804 33.98 12.9271 34.06 13.2404 34.22C13.5537 34.3733 13.7971 34.6033 13.9704 34.91L13.3604 35.38C13.2271 35.16 13.0537 35 12.8404 34.9C12.6337 34.8 12.4071 34.75 12.1604 34.75C11.9271 34.75 11.7304 34.8 11.5704 34.9C11.4171 34.9933 11.3404 35.1233 11.3404 35.29C11.3404 35.41 11.3737 35.51 11.4404 35.59C11.5137 35.6633 11.6237 35.73 11.7704 35.79C11.9237 35.8433 12.1104 35.8967 12.3304 35.95C12.5371 35.9967 12.7471 36.0533 12.9604 36.12C13.1737 36.1867 13.3704 36.2733 13.5504 36.38C13.7304 36.4867 13.8771 36.63 13.9904 36.81C14.1037 36.99 14.1604 37.2233 14.1604 37.51C14.1604 37.8233 14.0804 38.1 13.9204 38.34C13.7604 38.5733 13.5371 38.7567 13.2504 38.89C12.9637 39.0233 12.6271 39.09 12.2404 39.09ZM17.0074 39.09C16.7674 39.09 16.5441 39.0433 16.3374 38.95C16.1374 38.8567 15.9774 38.7067 15.8574 38.5C15.7441 38.2867 15.6874 38.0133 15.6874 37.68V32.81L16.6774 32.26V37.42C16.6774 37.6933 16.7174 37.9067 16.7974 38.06C16.8841 38.2067 17.0408 38.28 17.2674 38.28C17.3341 38.28 17.4108 38.2733 17.4974 38.26C17.5908 38.24 17.6908 38.2167 17.7974 38.19V38.95C17.6641 38.9967 17.5308 39.03 17.3974 39.05C17.2641 39.0767 17.1341 39.09 17.0074 39.09ZM14.7074 34.83V34.07H17.7974V34.83H14.7074ZM20.9152 39.09C20.4485 39.09 20.0318 38.98 19.6652 38.76C19.2985 38.54 19.0085 38.2367 18.7952 37.85C18.5885 37.4633 18.4852 37.0233 18.4852 36.53C18.4852 36.0367 18.5885 35.6 18.7952 35.22C19.0018 34.8333 19.2885 34.53 19.6552 34.31C20.0285 34.09 20.4485 33.98 20.9152 33.98C21.3885 33.98 21.8052 34.09 22.1652 34.31C22.5252 34.53 22.8085 34.8333 23.0152 35.22C23.2285 35.6 23.3352 36.0367 23.3352 36.53C23.3352 37.0233 23.2285 37.4633 23.0152 37.85C22.8085 38.23 22.5218 38.5333 22.1552 38.76C21.7952 38.98 21.3818 39.09 20.9152 39.09ZM20.9152 38.22C21.2085 38.22 21.4618 38.15 21.6752 38.01C21.8952 37.87 22.0618 37.6733 22.1752 37.42C22.2952 37.1667 22.3552 36.87 22.3552 36.53C22.3552 36.1833 22.2952 35.8833 22.1752 35.63C22.0618 35.3767 21.8952 35.1833 21.6752 35.05C21.4618 34.91 21.2085 34.84 20.9152 34.84C20.6152 34.84 20.3552 34.91 20.1352 35.05C19.9218 35.19 19.7552 35.3867 19.6352 35.64C19.5218 35.8867 19.4652 36.1833 19.4652 36.53C19.4652 36.87 19.5218 37.1667 19.6352 37.42C19.7552 37.6733 19.9218 37.87 20.1352 38.01C20.3552 38.15 20.6152 38.22 20.9152 38.22ZM24.4671 39V34.07H25.4571V35.4L25.2471 35.44C25.2804 35.1467 25.3804 34.8933 25.5471 34.68C25.7204 34.46 25.9238 34.29 26.1571 34.17C26.3904 34.0433 26.6204 33.98 26.8471 33.98C27.0071 33.98 27.1571 34 27.2971 34.04C27.4438 34.0733 27.5904 34.1333 27.7371 34.22L27.2571 35.1C27.1838 35.06 27.0904 35.0267 26.9771 35C26.8638 34.9733 26.7571 34.96 26.6571 34.96C26.5038 34.96 26.3538 34.9867 26.2071 35.04C26.0604 35.0933 25.9271 35.18 25.8071 35.3C25.6938 35.42 25.6071 35.5767 25.5471 35.77C25.5204 35.8633 25.4971 35.9867 25.4771 36.14C25.4638 36.2867 25.4571 36.49 25.4571 36.75V39H24.4671ZM29.058 41.03L30.018 38.71L28.118 34.07H29.198L30.538 37.73L31.898 34.07H32.958L30.128 41.03H29.058Z" fill="#575757"/>
<path d="M17 21C14.9 21 13.0417 20.3627 11.425 19.088C9.80833 17.8133 8.75833 16.184 8.275 14.2C8.20833 13.95 8.25833 13.721 8.425 13.513C8.59167 13.305 8.81667 13.184 9.1 13.15C9.36667 13.1167 9.60833 13.1667 9.825 13.3C10.0417 13.4333 10.1917 13.6333 10.275 13.9C10.675 15.4 11.5 16.625 12.75 17.575C14 18.525 15.4167 19 17 19C18.95 19 20.6043 18.321 21.963 16.963C23.3217 15.605 24.0007 13.9507 24 12C23.9993 10.0493 23.3203 8.39533 21.963 7.038C20.6057 5.68067 18.9513 5.00133 17 5C15.85 5 14.775 5.26667 13.775 5.8C12.775 6.33333 11.9333 7.06667 11.25 8H13C13.2833 8 13.521 8.096 13.713 8.288C13.905 8.48 14.0007 8.71733 14 9C13.9993 9.28267 13.9033 9.52033 13.712 9.713C13.5207 9.90567 13.2833 10.0013 13 10H9C8.71667 10 8.47933 9.904 8.288 9.712C8.09667 9.52 8.00067 9.28267 8 9V5C8 4.71667 8.096 4.47933 8.288 4.288C8.48 4.09667 8.71733 4.00067 9 4C9.28267 3.99933 9.52033 4.09533 9.713 4.288C9.90567 4.48067 10.0013 4.718 10 5V6.35C10.85 5.28333 11.8877 4.45833 13.113 3.875C14.3383 3.29167 15.634 3 17 3C18.25 3 19.421 3.23767 20.513 3.713C21.605 4.18833 22.555 4.82967 23.363 5.637C24.171 6.44433 24.8127 7.39433 25.288 8.487C25.7633 9.57967 26.0007 10.7507 26 12C25.9993 13.2493 25.762 14.4203 25.288 15.513C24.814 16.6057 24.1723 17.5557 23.363 18.363C22.5537 19.1703 21.6037 19.812 20.513 20.288C19.4223 20.764 18.2513 21.0013 17 21ZM18 11.6L20.5 14.1C20.6833 14.2833 20.775 14.5167 20.775 14.8C20.775 15.0833 20.6833 15.3167 20.5 15.5C20.3167 15.6833 20.0833 15.775 19.8 15.775C19.5167 15.775 19.2833 15.6833 19.1 15.5L16.3 12.7C16.2 12.6 16.125 12.4877 16.075 12.363C16.025 12.2383 16 12.109 16 11.975V8C16 7.71667 16.096 7.47933 16.288 7.288C16.48 7.09667 16.7173 7.00067 17 7C17.2827 6.99933 17.5203 7.09533 17.713 7.288C17.9057 7.48067 18.0013 7.718 18 8V11.6Z" fill="#575757"/>
</svg>
