<svg width="30" height="42" viewBox="0 0 30 42" fill="none" xmlns="http://www.w3.org/2000/svg">
<path d="M1 38V31.03H3.15C3.91667 31.03 4.49667 31.1967 4.89 31.53C5.29 31.8633 5.49 32.36 5.49 33.02C5.49 33.6733 5.29 34.1733 4.89 34.52C4.49 34.8667 3.91 35.04 3.15 35.04H2.01V38H1ZM2.01 34.14H3.05C3.49667 34.14 3.84667 34.0533 4.1 33.88C4.35333 33.7 4.48 33.4167 4.48 33.03C4.48 32.65 4.35667 32.3733 4.11 32.2C3.87 32.0267 3.51667 31.94 3.05 31.94H2.01V34.14ZM6.49641 38V33.07H7.48641V34.4L7.27641 34.44C7.30974 34.1467 7.40974 33.8933 7.57641 33.68C7.74974 33.46 7.95307 33.29 8.18641 33.17C8.41974 33.0433 8.64974 32.98 8.87641 32.98C9.03641 32.98 9.18641 33 9.32641 33.04C9.47307 33.0733 9.61974 33.1333 9.76641 33.22L9.28641 34.1C9.21307 34.06 9.11974 34.0267 9.00641 34C8.89307 33.9733 8.78641 33.96 8.68641 33.96C8.53307 33.96 8.38307 33.9867 8.23641 34.04C8.08974 34.0933 7.95641 34.18 7.83641 34.3C7.72307 34.42 7.63641 34.5767 7.57641 34.77C7.54974 34.8633 7.52641 34.9867 7.50641 35.14C7.49307 35.2867 7.48641 35.49 7.48641 35.75V38H6.49641ZM12.5538 38.09C12.0872 38.09 11.6705 37.98 11.3038 37.76C10.9372 37.54 10.6472 37.2367 10.4338 36.85C10.2272 36.4633 10.1238 36.0233 10.1238 35.53C10.1238 35.0367 10.2272 34.6 10.4338 34.22C10.6405 33.8333 10.9272 33.53 11.2938 33.31C11.6672 33.09 12.0872 32.98 12.5538 32.98C13.0272 32.98 13.4438 33.09 13.8038 33.31C14.1638 33.53 14.4472 33.8333 14.6538 34.22C14.8672 34.6 14.9738 35.0367 14.9738 35.53C14.9738 36.0233 14.8672 36.4633 14.6538 36.85C14.4472 37.23 14.1605 37.5333 13.7938 37.76C13.4338 37.98 13.0205 38.09 12.5538 38.09ZM12.5538 37.22C12.8472 37.22 13.1005 37.15 13.3138 37.01C13.5338 36.87 13.7005 36.6733 13.8138 36.42C13.9338 36.1667 13.9938 35.87 13.9938 35.53C13.9938 35.1833 13.9338 34.8833 13.8138 34.63C13.7005 34.3767 13.5338 34.1833 13.3138 34.05C13.1005 33.91 12.8472 33.84 12.5538 33.84C12.2538 33.84 11.9938 33.91 11.7738 34.05C11.5605 34.19 11.3938 34.3867 11.2738 34.64C11.1605 34.8867 11.1038 35.1833 11.1038 35.53C11.1038 35.87 11.1605 36.1667 11.2738 36.42C11.3938 36.6733 11.5605 36.87 11.7738 37.01C11.9938 37.15 12.2538 37.22 12.5538 37.22ZM16.2977 38V33.83H15.4477V33.07H16.2977V32.69C16.2977 32.31 16.3877 31.99 16.5677 31.73C16.7477 31.47 16.9843 31.2733 17.2777 31.14C17.5777 31.0067 17.8977 30.94 18.2377 30.94C18.611 30.94 18.9343 30.9833 19.2077 31.07C19.4877 31.15 19.7443 31.27 19.9777 31.43L19.5177 32.12C19.351 31.9933 19.1643 31.9 18.9577 31.84C18.751 31.7733 18.5277 31.74 18.2877 31.74C17.9477 31.74 17.691 31.8267 17.5177 32C17.351 32.1667 17.2677 32.4267 17.2677 32.78V33.07H19.3477V33.83H17.2677V38H16.2977ZM18.9977 38V33.07H19.9677V38H18.9977ZM22.3218 38.09C22.0085 38.09 21.7518 37.9933 21.5518 37.8C21.3518 37.6067 21.2518 37.3 21.2518 36.88V31.03H22.2218V36.69C22.2218 36.8633 22.2585 36.99 22.3318 37.07C22.4118 37.1433 22.5151 37.18 22.6418 37.18C22.6951 37.18 22.7551 37.1767 22.8218 37.17C22.8951 37.1567 22.9685 37.1367 23.0418 37.11V37.94C22.9218 37.9933 22.7951 38.03 22.6618 38.05C22.5351 38.0767 22.4218 38.09 22.3218 38.09ZM26.0773 38.09C25.6773 38.09 25.3307 38.0233 25.0373 37.89C24.744 37.7567 24.5007 37.5733 24.3073 37.34C24.114 37.1 23.9673 36.83 23.8673 36.53C23.774 36.2233 23.7273 35.9033 23.7273 35.57C23.7273 35.2367 23.774 34.9167 23.8673 34.61C23.9607 34.2967 24.1007 34.02 24.2873 33.78C24.474 33.5333 24.7073 33.34 24.9873 33.2C25.274 33.0533 25.6107 32.98 25.9973 32.98C26.384 32.98 26.7173 33.0467 26.9973 33.18C27.2773 33.3067 27.5073 33.4867 27.6873 33.72C27.8673 33.9467 28.0007 34.2033 28.0873 34.49C28.1807 34.7767 28.2273 35.08 28.2273 35.4C28.2273 35.4333 28.224 35.4967 28.2173 35.59C28.2173 35.6767 28.2107 35.76 28.1973 35.84H24.7073C24.7273 36.28 24.8607 36.62 25.1073 36.86C25.3607 37.0933 25.694 37.21 26.1073 37.21C26.3873 37.21 26.6373 37.1667 26.8573 37.08C27.0773 36.9867 27.2807 36.8433 27.4673 36.65L28.0673 37.27C27.874 37.4633 27.674 37.62 27.4673 37.74C27.2673 37.86 27.054 37.9467 26.8273 38C26.6073 38.06 26.3573 38.09 26.0773 38.09ZM27.2573 35.35C27.2707 35.2967 27.2773 35.2433 27.2773 35.19C27.284 35.1367 27.2873 35.0833 27.2873 35.03C27.2873 34.8767 27.2607 34.7267 27.2073 34.58C27.154 34.4333 27.074 34.3033 26.9673 34.19C26.8607 34.07 26.7273 33.9767 26.5673 33.91C26.414 33.8367 26.234 33.8 26.0273 33.8C25.754 33.8 25.5207 33.8633 25.3273 33.99C25.134 34.11 24.984 34.27 24.8773 34.47C24.7773 34.67 24.7173 34.8867 24.6973 35.12H27.5773L27.2573 35.35Z" fill="#575757"/>
<path fill-rule="evenodd" clip-rule="evenodd" d="M19.25 8C19.25 9.06087 18.8286 10.0783 18.0784 10.8284C17.3283 11.5786 16.3109 12 15.25 12C14.1891 12 13.1717 11.5786 12.4216 10.8284C11.6714 10.0783 11.25 9.06087 11.25 8C11.25 6.93913 11.6714 5.92172 12.4216 5.17157C13.1717 4.42143 14.1891 4 15.25 4C16.3109 4 17.3283 4.42143 18.0784 5.17157C18.8286 5.92172 19.25 6.93913 19.25 8ZM17.25 8C17.25 8.53043 17.0393 9.03914 16.6642 9.41421C16.2891 9.78929 15.7804 10 15.25 10C14.7196 10 14.2109 9.78929 13.8358 9.41421C13.4607 9.03914 13.25 8.53043 13.25 8C13.25 7.46957 13.4607 6.96086 13.8358 6.58579C14.2109 6.21071 14.7196 6 15.25 6C15.7804 6 16.2891 6.21071 16.6642 6.58579C17.0393 6.96086 17.25 7.46957 17.25 8Z" fill="#575757"/>
<path fill-rule="evenodd" clip-rule="evenodd" d="M15.25 0C9.175 0 4.25 4.925 4.25 11C4.25 17.075 9.175 22 15.25 22C21.325 22 26.25 17.075 26.25 11C26.25 4.925 21.325 0 15.25 0ZM6.25 11C6.25 13.09 6.963 15.014 8.158 16.542C8.99744 15.4401 10.0802 14.5471 11.3216 13.9327C12.5631 13.3183 13.9298 12.9991 15.315 13C16.6824 12.9984 18.0321 13.3091 19.2611 13.9084C20.4902 14.5077 21.5662 15.3797 22.407 16.458C23.2734 15.3216 23.8568 13.9952 24.1089 12.5886C24.361 11.182 24.2744 9.73553 23.8565 8.36898C23.4386 7.00243 22.7012 5.75505 21.7055 4.73004C20.7098 3.70503 19.4843 2.93186 18.1304 2.47451C16.7765 2.01716 15.3332 1.88877 13.9199 2.09997C12.5065 2.31117 11.1638 2.85589 10.0028 3.68905C8.84175 4.52222 7.89581 5.61987 7.24323 6.8912C6.59065 8.16252 6.25018 9.57097 6.25 11ZM15.25 20C13.1839 20.0033 11.1801 19.2926 9.578 17.988C10.2228 17.0646 11.0812 16.3107 12.0801 15.7905C13.079 15.2702 14.1888 14.999 15.315 15C16.4272 14.999 17.5235 15.2635 18.513 15.7713C19.5024 16.2792 20.3564 17.0158 21.004 17.92C19.3895 19.267 17.3526 20.0033 15.25 20Z" fill="#575757"/>
</svg>
