<svg width="50" height="43" viewBox="0 0 50 43" fill="none" xmlns="http://www.w3.org/2000/svg">
<path d="M3.69 39.12C2.97667 39.12 2.39 38.9333 1.93 38.56C1.47667 38.1867 1.2 37.69 1.1 37.07L2.09 36.83C2.16333 37.2833 2.34667 37.6267 2.64 37.86C2.93333 38.0933 3.29333 38.21 3.72 38.21C3.96667 38.21 4.18333 38.1667 4.37 38.08C4.56333 37.9867 4.71667 37.8567 4.83 37.69C4.94333 37.5167 5 37.3233 5 37.11C5 36.8833 4.93667 36.6967 4.81 36.55C4.69 36.4033 4.51667 36.2733 4.29 36.16C4.07 36.04 3.80333 35.92 3.49 35.8C3.08333 35.6467 2.73333 35.48 2.44 35.3C2.15333 35.12 1.93 34.9067 1.77 34.66C1.61667 34.4067 1.54 34.1033 1.54 33.75C1.54 33.39 1.62667 33.0733 1.8 32.8C1.98 32.52 2.23 32.3 2.55 32.14C2.87 31.98 3.24 31.9 3.66 31.9C4.10667 31.9 4.50333 32.0033 4.85 32.21C5.20333 32.41 5.48333 32.7133 5.69 33.12L4.88 33.62C4.73333 33.3533 4.55333 33.15 4.34 33.01C4.13333 32.87 3.89667 32.8 3.63 32.8C3.42333 32.8 3.23667 32.84 3.07 32.92C2.91 33 2.78333 33.11 2.69 33.25C2.60333 33.3833 2.56 33.5433 2.56 33.73C2.56 33.9233 2.61333 34.09 2.72 34.23C2.83333 34.37 2.99667 34.4967 3.21 34.61C3.43 34.7167 3.70333 34.83 4.03 34.95C4.44333 35.11 4.79667 35.2833 5.09 35.47C5.38333 35.65 5.61 35.8667 5.77 36.12C5.93 36.3733 6.01 36.6833 6.01 37.05C6.01 37.45 5.91 37.8067 5.71 38.12C5.51667 38.4267 5.24667 38.67 4.9 38.85C4.55333 39.03 4.15 39.12 3.69 39.12ZM10.3336 39L10.2536 38.09V35.9C10.2536 35.5533 10.1536 35.2867 9.95359 35.1C9.75359 34.9133 9.46359 34.82 9.08359 34.82C8.81693 34.82 8.56026 34.8733 8.31359 34.98C8.07359 35.0867 7.84359 35.26 7.62359 35.5L7.01359 34.87C7.30693 34.5633 7.63026 34.34 7.98359 34.2C8.34359 34.0533 8.73359 33.98 9.15359 33.98C9.81359 33.98 10.3236 34.15 10.6836 34.49C11.0503 34.8233 11.2336 35.2933 11.2336 35.9V39H10.3336ZM8.74359 39.09C8.37693 39.09 8.05359 39.0233 7.77359 38.89C7.49359 38.7567 7.27693 38.5733 7.12359 38.34C6.97026 38.1 6.89359 37.8233 6.89359 37.51C6.89359 37.2367 6.95026 37.0033 7.06359 36.81C7.17693 36.61 7.32359 36.4567 7.50359 36.35C7.67026 36.2433 7.86026 36.17 8.07359 36.13C8.29359 36.0833 8.52693 36.06 8.77359 36.06H10.3436V36.8H8.91359C8.78026 36.8 8.64026 36.8133 8.49359 36.84C8.35359 36.86 8.23359 36.9067 8.13359 36.98C8.05359 37.04 7.99026 37.1167 7.94359 37.21C7.89693 37.2967 7.87359 37.4 7.87359 37.52C7.87359 37.7533 7.96359 37.94 8.14359 38.08C8.32359 38.22 8.56359 38.29 8.86359 38.29C9.11693 38.29 9.34693 38.2333 9.55359 38.12C9.76693 38 9.93693 37.84 10.0636 37.64C10.1903 37.4333 10.2536 37.2 10.2536 36.94L10.6036 37.4C10.5436 37.7467 10.4269 38.05 10.2536 38.31C10.0803 38.5633 9.86359 38.7567 9.60359 38.89C9.35026 39.0233 9.06359 39.09 8.74359 39.09ZM13.9466 39L11.9266 34.07H13.0066L14.3466 37.73L15.7066 34.07H16.7666L14.7666 39H13.9466ZM19.6438 39.09C19.2438 39.09 18.8971 39.0233 18.6038 38.89C18.3104 38.7567 18.0671 38.5733 17.8738 38.34C17.6804 38.1 17.5338 37.83 17.4338 37.53C17.3404 37.2233 17.2938 36.9033 17.2938 36.57C17.2938 36.2367 17.3404 35.9167 17.4338 35.61C17.5271 35.2967 17.6671 35.02 17.8538 34.78C18.0404 34.5333 18.2738 34.34 18.5538 34.2C18.8404 34.0533 19.1771 33.98 19.5638 33.98C19.9504 33.98 20.2838 34.0467 20.5638 34.18C20.8438 34.3067 21.0738 34.4867 21.2538 34.72C21.4338 34.9467 21.5671 35.2033 21.6538 35.49C21.7471 35.7767 21.7938 36.08 21.7938 36.4C21.7938 36.4333 21.7904 36.4967 21.7838 36.59C21.7838 36.6767 21.7771 36.76 21.7638 36.84H18.2738C18.2938 37.28 18.4271 37.62 18.6738 37.86C18.9271 38.0933 19.2604 38.21 19.6738 38.21C19.9538 38.21 20.2038 38.1667 20.4238 38.08C20.6438 37.9867 20.8471 37.8433 21.0338 37.65L21.6338 38.27C21.4404 38.4633 21.2404 38.62 21.0338 38.74C20.8338 38.86 20.6204 38.9467 20.3938 39C20.1738 39.06 19.9238 39.09 19.6438 39.09ZM20.8238 36.35C20.8371 36.2967 20.8438 36.2433 20.8438 36.19C20.8504 36.1367 20.8538 36.0833 20.8538 36.03C20.8538 35.8767 20.8271 35.7267 20.7738 35.58C20.7204 35.4333 20.6404 35.3033 20.5338 35.19C20.4271 35.07 20.2938 34.9767 20.1338 34.91C19.9804 34.8367 19.8004 34.8 19.5938 34.8C19.3204 34.8 19.0871 34.8633 18.8938 34.99C18.7004 35.11 18.5504 35.27 18.4438 35.47C18.3438 35.67 18.2838 35.8867 18.2638 36.12H21.1438L20.8238 36.35ZM28.5618 39.13C27.9151 39.13 27.3451 38.98 26.8518 38.68C26.3651 38.38 25.9851 37.9567 25.7118 37.41C25.4385 36.8633 25.3018 36.23 25.3018 35.51C25.3018 34.79 25.4385 34.16 25.7118 33.62C25.9851 33.0733 26.3651 32.65 26.8518 32.35C27.3451 32.05 27.9151 31.9 28.5618 31.9C29.2751 31.9 29.8918 32.0767 30.4118 32.43C30.9385 32.7833 31.3151 33.2733 31.5418 33.9L30.5918 34.25C30.4251 33.8167 30.1685 33.48 29.8218 33.24C29.4751 32.9933 29.0551 32.87 28.5618 32.87C28.1085 32.87 27.7118 32.98 27.3718 33.2C27.0385 33.4133 26.7785 33.7167 26.5918 34.11C26.4118 34.4967 26.3218 34.9633 26.3218 35.51C26.3218 36.0567 26.4118 36.5267 26.5918 36.92C26.7785 37.3133 27.0385 37.62 27.3718 37.84C27.7118 38.0533 28.1085 38.16 28.5618 38.16C29.0551 38.16 29.4751 38.04 29.8218 37.8C30.1685 37.5533 30.4251 37.2133 30.5918 36.78L31.5418 37.12C31.3151 37.74 30.9385 38.23 30.4118 38.59C29.8918 38.95 29.2751 39.13 28.5618 39.13ZM33.6323 39.09C33.319 39.09 33.0623 38.9933 32.8623 38.8C32.6623 38.6067 32.5623 38.3 32.5623 37.88V32.03H33.5323V37.69C33.5323 37.8633 33.569 37.99 33.6423 38.07C33.7223 38.1433 33.8257 38.18 33.9523 38.18C34.0057 38.18 34.0657 38.1767 34.1323 38.17C34.2057 38.1567 34.279 38.1367 34.3523 38.11V38.94C34.2323 38.9933 34.1057 39.03 33.9723 39.05C33.8457 39.0767 33.7323 39.09 33.6323 39.09ZM38.4879 39L38.4079 38.09V35.9C38.4079 35.5533 38.3079 35.2867 38.1079 35.1C37.9079 34.9133 37.6179 34.82 37.2379 34.82C36.9712 34.82 36.7146 34.8733 36.4679 34.98C36.2279 35.0867 35.9979 35.26 35.7779 35.5L35.1679 34.87C35.4612 34.5633 35.7846 34.34 36.1379 34.2C36.4979 34.0533 36.8879 33.98 37.3079 33.98C37.9679 33.98 38.4779 34.15 38.8379 34.49C39.2046 34.8233 39.3879 35.2933 39.3879 35.9V39H38.4879ZM36.8979 39.09C36.5312 39.09 36.2079 39.0233 35.9279 38.89C35.6479 38.7567 35.4312 38.5733 35.2779 38.34C35.1246 38.1 35.0479 37.8233 35.0479 37.51C35.0479 37.2367 35.1046 37.0033 35.2179 36.81C35.3312 36.61 35.4779 36.4567 35.6579 36.35C35.8246 36.2433 36.0146 36.17 36.2279 36.13C36.4479 36.0833 36.6812 36.06 36.9279 36.06H38.4979V36.8H37.0679C36.9346 36.8 36.7946 36.8133 36.6479 36.84C36.5079 36.86 36.3879 36.9067 36.2879 36.98C36.2079 37.04 36.1446 37.1167 36.0979 37.21C36.0512 37.2967 36.0279 37.4 36.0279 37.52C36.0279 37.7533 36.1179 37.94 36.2979 38.08C36.4779 38.22 36.7179 38.29 37.0179 38.29C37.2712 38.29 37.5012 38.2333 37.7079 38.12C37.9212 38 38.0912 37.84 38.2179 37.64C38.3446 37.4333 38.4079 37.2 38.4079 36.94L38.7579 37.4C38.6979 37.7467 38.5812 38.05 38.4079 38.31C38.2346 38.5633 38.0179 38.7567 37.7579 38.89C37.5046 39.0233 37.2179 39.09 36.8979 39.09ZM42.3478 39.09C42.0011 39.09 41.6945 39.04 41.4278 38.94C41.1611 38.8333 40.9311 38.7 40.7378 38.54C40.5511 38.3733 40.4011 38.2033 40.2878 38.03L40.9578 37.45C41.0845 37.6767 41.2645 37.8733 41.4978 38.04C41.7378 38.2 42.0245 38.28 42.3578 38.28C42.6511 38.28 42.8811 38.22 43.0478 38.1C43.2211 37.9733 43.3078 37.81 43.3078 37.61C43.3078 37.45 43.2545 37.3233 43.1478 37.23C43.0411 37.13 42.9011 37.05 42.7278 36.99C42.5545 36.9233 42.3645 36.8667 42.1578 36.82C41.9711 36.7667 41.7811 36.7067 41.5878 36.64C41.3945 36.5733 41.2178 36.49 41.0578 36.39C40.9045 36.2833 40.7778 36.15 40.6778 35.99C40.5845 35.8233 40.5378 35.62 40.5378 35.38C40.5378 34.96 40.6978 34.6233 41.0178 34.37C41.3445 34.11 41.7745 33.98 42.3078 33.98C42.6878 33.98 43.0345 34.06 43.3478 34.22C43.6611 34.3733 43.9045 34.6033 44.0778 34.91L43.4678 35.38C43.3345 35.16 43.1611 35 42.9478 34.9C42.7411 34.8 42.5145 34.75 42.2678 34.75C42.0345 34.75 41.8378 34.8 41.6778 34.9C41.5245 34.9933 41.4478 35.1233 41.4478 35.29C41.4478 35.41 41.4811 35.51 41.5478 35.59C41.6211 35.6633 41.7311 35.73 41.8778 35.79C42.0311 35.8433 42.2178 35.8967 42.4378 35.95C42.6445 35.9967 42.8545 36.0533 43.0678 36.12C43.2811 36.1867 43.4778 36.2733 43.6578 36.38C43.8378 36.4867 43.9845 36.63 44.0978 36.81C44.2111 36.99 44.2678 37.2233 44.2678 37.51C44.2678 37.8233 44.1878 38.1 44.0278 38.34C43.8678 38.5733 43.6445 38.7567 43.3578 38.89C43.0711 39.0233 42.7345 39.09 42.3478 39.09ZM47.0548 39.09C46.7082 39.09 46.4015 39.04 46.1348 38.94C45.8682 38.8333 45.6382 38.7 45.4448 38.54C45.2582 38.3733 45.1082 38.2033 44.9948 38.03L45.6648 37.45C45.7915 37.6767 45.9715 37.8733 46.2048 38.04C46.4448 38.2 46.7315 38.28 47.0648 38.28C47.3582 38.28 47.5882 38.22 47.7548 38.1C47.9282 37.9733 48.0148 37.81 48.0148 37.61C48.0148 37.45 47.9615 37.3233 47.8548 37.23C47.7482 37.13 47.6082 37.05 47.4348 36.99C47.2615 36.9233 47.0715 36.8667 46.8648 36.82C46.6782 36.7667 46.4882 36.7067 46.2948 36.64C46.1015 36.5733 45.9248 36.49 45.7648 36.39C45.6115 36.2833 45.4848 36.15 45.3848 35.99C45.2915 35.8233 45.2448 35.62 45.2448 35.38C45.2448 34.96 45.4048 34.6233 45.7248 34.37C46.0515 34.11 46.4815 33.98 47.0148 33.98C47.3948 33.98 47.7415 34.06 48.0548 34.22C48.3682 34.3733 48.6115 34.6033 48.7848 34.91L48.1748 35.38C48.0415 35.16 47.8682 35 47.6548 34.9C47.4482 34.8 47.2215 34.75 46.9748 34.75C46.7415 34.75 46.5448 34.8 46.3848 34.9C46.2315 34.9933 46.1548 35.1233 46.1548 35.29C46.1548 35.41 46.1882 35.51 46.2548 35.59C46.3282 35.6633 46.4382 35.73 46.5848 35.79C46.7382 35.8433 46.9248 35.8967 47.1448 35.95C47.3515 35.9967 47.5615 36.0533 47.7748 36.12C47.9882 36.1867 48.1848 36.2733 48.3648 36.38C48.5448 36.4867 48.6915 36.63 48.8048 36.81C48.9182 36.99 48.9748 37.2233 48.9748 37.51C48.9748 37.8233 48.8948 38.1 48.7348 38.34C48.5748 38.5733 48.3515 38.7567 48.0648 38.89C47.7782 39.0233 47.4415 39.09 47.0548 39.09Z" fill="#575757"/>
<path d="M26.75 12.8C26.25 12.31 25.53 12 24.75 12C24.0435 12.0001 23.3597 12.2499 22.8195 12.7053C22.2793 13.1607 21.9174 13.7923 21.7978 14.4887C21.6781 15.185 21.8084 15.9012 22.1657 16.5108C22.5229 17.1203 23.084 17.5841 23.75 17.82C23.7831 16.7975 24.0759 15.8002 24.6007 14.922C25.1255 14.0438 25.8652 13.3135 26.75 12.8ZM23.84 19H17.75V5H28.92L31.75 7.83V12.35C32.5 12.61 33.17 13 33.75 13.54V7L29.75 3H17.75C17.2196 3 16.7109 3.21071 16.3358 3.58579C15.9607 3.96086 15.75 4.46957 15.75 5V19C15.75 19.5304 15.9607 20.0391 16.3358 20.4142C16.7109 20.7893 17.2196 21 17.75 21H24.56C24.21 20.39 23.96 19.72 23.84 19ZM18.75 10H27.75V6H18.75V10ZM28.5 21L25.75 18L26.91 16.84L28.5 18.43L32.09 14.84L33.25 16.25L28.5 21Z" fill="#575757"/>
</svg>
