<svg width="51" height="43" viewBox="0 0 51 43" fill="none" xmlns="http://www.w3.org/2000/svg">
<path d="M0.75 39V32.03H2.25L4.32 37.39H4.14L6.21 32.03H7.7V39H6.68V33.21L6.77 33.23L4.72 38.4H3.73L1.68 33.23L1.77 33.21V39H0.75ZM9.58727 41.03L10.5473 38.71L8.64727 34.07H9.72727L11.0673 37.73L12.4273 34.07H13.4873L10.6573 41.03H9.58727ZM20.0286 39.13C19.3819 39.13 18.8119 38.98 18.3186 38.68C17.8319 38.38 17.4519 37.9567 17.1786 37.41C16.9053 36.8633 16.7686 36.23 16.7686 35.51C16.7686 34.79 16.9053 34.16 17.1786 33.62C17.4519 33.0733 17.8319 32.65 18.3186 32.35C18.8119 32.05 19.3819 31.9 20.0286 31.9C20.7419 31.9 21.3586 32.0767 21.8786 32.43C22.4053 32.7833 22.7819 33.2733 23.0086 33.9L22.0586 34.25C21.8919 33.8167 21.6353 33.48 21.2886 33.24C20.9419 32.9933 20.5219 32.87 20.0286 32.87C19.5753 32.87 19.1786 32.98 18.8386 33.2C18.5053 33.4133 18.2453 33.7167 18.0586 34.11C17.8786 34.4967 17.7886 34.9633 17.7886 35.51C17.7886 36.0567 17.8786 36.5267 18.0586 36.92C18.2453 37.3133 18.5053 37.62 18.8386 37.84C19.1786 38.0533 19.5753 38.16 20.0286 38.16C20.5219 38.16 20.9419 38.04 21.2886 37.8C21.6353 37.5533 21.8919 37.2133 22.0586 36.78L23.0086 37.12C22.7819 37.74 22.4053 38.23 21.8786 38.59C21.3586 38.95 20.7419 39.13 20.0286 39.13ZM25.0991 39.09C24.7858 39.09 24.5291 38.9933 24.3291 38.8C24.1291 38.6067 24.0291 38.3 24.0291 37.88V32.03H24.9991V37.69C24.9991 37.8633 25.0358 37.99 25.1091 38.07C25.1891 38.1433 25.2925 38.18 25.4191 38.18C25.4725 38.18 25.5325 38.1767 25.5991 38.17C25.6725 38.1567 25.7458 38.1367 25.8191 38.11V38.94C25.6991 38.9933 25.5725 39.03 25.4391 39.05C25.3125 39.0767 25.1991 39.09 25.0991 39.09ZM29.9547 39L29.8747 38.09V35.9C29.8747 35.5533 29.7747 35.2867 29.5747 35.1C29.3747 34.9133 29.0847 34.82 28.7047 34.82C28.438 34.82 28.1814 34.8733 27.9347 34.98C27.6947 35.0867 27.4647 35.26 27.2447 35.5L26.6347 34.87C26.928 34.5633 27.2514 34.34 27.6047 34.2C27.9647 34.0533 28.3547 33.98 28.7747 33.98C29.4347 33.98 29.9447 34.15 30.3047 34.49C30.6714 34.8233 30.8547 35.2933 30.8547 35.9V39H29.9547ZM28.3647 39.09C27.998 39.09 27.6747 39.0233 27.3947 38.89C27.1147 38.7567 26.898 38.5733 26.7447 38.34C26.5914 38.1 26.5147 37.8233 26.5147 37.51C26.5147 37.2367 26.5714 37.0033 26.6847 36.81C26.798 36.61 26.9447 36.4567 27.1247 36.35C27.2914 36.2433 27.4814 36.17 27.6947 36.13C27.9147 36.0833 28.148 36.06 28.3947 36.06H29.9647V36.8H28.5347C28.4014 36.8 28.2614 36.8133 28.1147 36.84C27.9747 36.86 27.8547 36.9067 27.7547 36.98C27.6747 37.04 27.6114 37.1167 27.5647 37.21C27.518 37.2967 27.4947 37.4 27.4947 37.52C27.4947 37.7533 27.5847 37.94 27.7647 38.08C27.9447 38.22 28.1847 38.29 28.4847 38.29C28.738 38.29 28.968 38.2333 29.1747 38.12C29.388 38 29.558 37.84 29.6847 37.64C29.8114 37.4333 29.8747 37.2 29.8747 36.94L30.2247 37.4C30.1647 37.7467 30.048 38.05 29.8747 38.31C29.7014 38.5633 29.4847 38.7567 29.2247 38.89C28.9714 39.0233 28.6847 39.09 28.3647 39.09ZM33.8146 39.09C33.4679 39.09 33.1613 39.04 32.8946 38.94C32.6279 38.8333 32.3979 38.7 32.2046 38.54C32.0179 38.3733 31.8679 38.2033 31.7546 38.03L32.4246 37.45C32.5513 37.6767 32.7313 37.8733 32.9646 38.04C33.2046 38.2 33.4913 38.28 33.8246 38.28C34.1179 38.28 34.3479 38.22 34.5146 38.1C34.6879 37.9733 34.7746 37.81 34.7746 37.61C34.7746 37.45 34.7213 37.3233 34.6146 37.23C34.5079 37.13 34.3679 37.05 34.1946 36.99C34.0213 36.9233 33.8313 36.8667 33.6246 36.82C33.4379 36.7667 33.2479 36.7067 33.0546 36.64C32.8613 36.5733 32.6846 36.49 32.5246 36.39C32.3713 36.2833 32.2446 36.15 32.1446 35.99C32.0513 35.8233 32.0046 35.62 32.0046 35.38C32.0046 34.96 32.1646 34.6233 32.4846 34.37C32.8113 34.11 33.2413 33.98 33.7746 33.98C34.1546 33.98 34.5013 34.06 34.8146 34.22C35.1279 34.3733 35.3713 34.6033 35.5446 34.91L34.9346 35.38C34.8013 35.16 34.6279 35 34.4146 34.9C34.2079 34.8 33.9813 34.75 33.7346 34.75C33.5013 34.75 33.3046 34.8 33.1446 34.9C32.9913 34.9933 32.9146 35.1233 32.9146 35.29C32.9146 35.41 32.9479 35.51 33.0146 35.59C33.0879 35.6633 33.1979 35.73 33.3446 35.79C33.4979 35.8433 33.6846 35.8967 33.9046 35.95C34.1113 35.9967 34.3213 36.0533 34.5346 36.12C34.7479 36.1867 34.9446 36.2733 35.1246 36.38C35.3046 36.4867 35.4513 36.63 35.5646 36.81C35.6779 36.99 35.7346 37.2233 35.7346 37.51C35.7346 37.8233 35.6546 38.1 35.4946 38.34C35.3346 38.5733 35.1113 38.7567 34.8246 38.89C34.5379 39.0233 34.2013 39.09 33.8146 39.09ZM38.5216 39.09C38.175 39.09 37.8683 39.04 37.6016 38.94C37.335 38.8333 37.105 38.7 36.9116 38.54C36.725 38.3733 36.575 38.2033 36.4616 38.03L37.1316 37.45C37.2583 37.6767 37.4383 37.8733 37.6716 38.04C37.9116 38.2 38.1983 38.28 38.5316 38.28C38.825 38.28 39.055 38.22 39.2216 38.1C39.395 37.9733 39.4816 37.81 39.4816 37.61C39.4816 37.45 39.4283 37.3233 39.3216 37.23C39.215 37.13 39.075 37.05 38.9016 36.99C38.7283 36.9233 38.5383 36.8667 38.3316 36.82C38.145 36.7667 37.955 36.7067 37.7616 36.64C37.5683 36.5733 37.3916 36.49 37.2316 36.39C37.0783 36.2833 36.9516 36.15 36.8516 35.99C36.7583 35.8233 36.7116 35.62 36.7116 35.38C36.7116 34.96 36.8716 34.6233 37.1916 34.37C37.5183 34.11 37.9483 33.98 38.4816 33.98C38.8616 33.98 39.2083 34.06 39.5216 34.22C39.835 34.3733 40.0783 34.6033 40.2516 34.91L39.6416 35.38C39.5083 35.16 39.335 35 39.1216 34.9C38.915 34.8 38.6883 34.75 38.4416 34.75C38.2083 34.75 38.0116 34.8 37.8516 34.9C37.6983 34.9933 37.6216 35.1233 37.6216 35.29C37.6216 35.41 37.655 35.51 37.7216 35.59C37.795 35.6633 37.905 35.73 38.0516 35.79C38.205 35.8433 38.3916 35.8967 38.6116 35.95C38.8183 35.9967 39.0283 36.0533 39.2416 36.12C39.455 36.1867 39.6516 36.2733 39.8316 36.38C40.0116 36.4867 40.1583 36.63 40.2716 36.81C40.385 36.99 40.4416 37.2233 40.4416 37.51C40.4416 37.8233 40.3616 38.1 40.2016 38.34C40.0416 38.5733 39.8183 38.7567 39.5316 38.89C39.245 39.0233 38.9083 39.09 38.5216 39.09ZM43.6887 39.09C43.2887 39.09 42.942 39.0233 42.6487 38.89C42.3553 38.7567 42.112 38.5733 41.9187 38.34C41.7253 38.1 41.5787 37.83 41.4787 37.53C41.3853 37.2233 41.3387 36.9033 41.3387 36.57C41.3387 36.2367 41.3853 35.9167 41.4787 35.61C41.572 35.2967 41.712 35.02 41.8987 34.78C42.0853 34.5333 42.3187 34.34 42.5987 34.2C42.8853 34.0533 43.222 33.98 43.6087 33.98C43.9953 33.98 44.3287 34.0467 44.6087 34.18C44.8887 34.3067 45.1187 34.4867 45.2987 34.72C45.4787 34.9467 45.612 35.2033 45.6987 35.49C45.792 35.7767 45.8387 36.08 45.8387 36.4C45.8387 36.4333 45.8353 36.4967 45.8287 36.59C45.8287 36.6767 45.822 36.76 45.8087 36.84H42.3187C42.3387 37.28 42.472 37.62 42.7187 37.86C42.972 38.0933 43.3053 38.21 43.7187 38.21C43.9987 38.21 44.2487 38.1667 44.4687 38.08C44.6887 37.9867 44.892 37.8433 45.0787 37.65L45.6787 38.27C45.4853 38.4633 45.2853 38.62 45.0787 38.74C44.8787 38.86 44.6653 38.9467 44.4387 39C44.2187 39.06 43.9687 39.09 43.6887 39.09ZM44.8687 36.35C44.882 36.2967 44.8887 36.2433 44.8887 36.19C44.8953 36.1367 44.8987 36.0833 44.8987 36.03C44.8987 35.8767 44.872 35.7267 44.8187 35.58C44.7653 35.4333 44.6853 35.3033 44.5787 35.19C44.472 35.07 44.3387 34.9767 44.1787 34.91C44.0253 34.8367 43.8453 34.8 43.6387 34.8C43.3653 34.8 43.132 34.8633 42.9387 34.99C42.7453 35.11 42.5953 35.27 42.4887 35.47C42.3887 35.67 42.3287 35.8867 42.3087 36.12H45.1887L44.8687 36.35ZM48.6291 39.09C48.2824 39.09 47.9757 39.04 47.7091 38.94C47.4424 38.8333 47.2124 38.7 47.0191 38.54C46.8324 38.3733 46.6824 38.2033 46.5691 38.03L47.2391 37.45C47.3657 37.6767 47.5457 37.8733 47.7791 38.04C48.0191 38.2 48.3057 38.28 48.6391 38.28C48.9324 38.28 49.1624 38.22 49.3291 38.1C49.5024 37.9733 49.5891 37.81 49.5891 37.61C49.5891 37.45 49.5357 37.3233 49.4291 37.23C49.3224 37.13 49.1824 37.05 49.0091 36.99C48.8357 36.9233 48.6457 36.8667 48.4391 36.82C48.2524 36.7667 48.0624 36.7067 47.8691 36.64C47.6757 36.5733 47.4991 36.49 47.3391 36.39C47.1857 36.2833 47.0591 36.15 46.9591 35.99C46.8657 35.8233 46.8191 35.62 46.8191 35.38C46.8191 34.96 46.9791 34.6233 47.2991 34.37C47.6257 34.11 48.0557 33.98 48.5891 33.98C48.9691 33.98 49.3157 34.06 49.6291 34.22C49.9424 34.3733 50.1857 34.6033 50.3591 34.91L49.7491 35.38C49.6157 35.16 49.4424 35 49.2291 34.9C49.0224 34.8 48.7957 34.75 48.5491 34.75C48.3157 34.75 48.1191 34.8 47.9591 34.9C47.8057 34.9933 47.7291 35.1233 47.7291 35.29C47.7291 35.41 47.7624 35.51 47.8291 35.59C47.9024 35.6633 48.0124 35.73 48.1591 35.79C48.3124 35.8433 48.4991 35.8967 48.7191 35.95C48.9257 35.9967 49.1357 36.0533 49.3491 36.12C49.5624 36.1867 49.7591 36.2733 49.9391 36.38C50.1191 36.4867 50.2657 36.63 50.3791 36.81C50.4924 36.99 50.5491 37.2233 50.5491 37.51C50.5491 37.8233 50.4691 38.1 50.3091 38.34C50.1491 38.5733 49.9257 38.7567 49.6391 38.89C49.3524 39.0233 49.0157 39.09 48.6291 39.09Z" fill="url(#paint0_linear_1161_683)"/>
<path d="M19 6C19 5.73478 19.1054 5.48043 19.2929 5.29289C19.4804 5.10536 19.7348 5 20 5H30C30.2652 5 30.5196 5.10536 30.7071 5.29289C30.8946 5.48043 31 5.73478 31 6C31 6.26522 30.8946 6.51957 30.7071 6.70711C30.5196 6.89464 30.2652 7 30 7H20C19.7348 7 19.4804 6.89464 19.2929 6.70711C19.1054 6.51957 19 6.26522 19 6ZM19 10C19 9.73478 19.1054 9.48043 19.2929 9.29289C19.4804 9.10536 19.7348 9 20 9H30C30.2652 9 30.5196 9.10536 30.7071 9.29289C30.8946 9.48043 31 9.73478 31 10C31 10.2652 30.8946 10.5196 30.7071 10.7071C30.5196 10.8946 30.2652 11 30 11H20C19.7348 11 19.4804 10.8946 19.2929 10.7071C19.1054 10.5196 19 10.2652 19 10ZM20 13C19.7348 13 19.4804 13.1054 19.2929 13.2929C19.1054 13.4804 19 13.7348 19 14C19 14.2652 19.1054 14.5196 19.2929 14.7071C19.4804 14.8946 19.7348 15 20 15H30C30.2652 15 30.5196 14.8946 30.7071 14.7071C30.8946 14.5196 31 14.2652 31 14C31 13.7348 30.8946 13.4804 30.7071 13.2929C30.5196 13.1054 30.2652 13 30 13H20ZM19 18C19 17.7348 19.1054 17.4804 19.2929 17.2929C19.4804 17.1054 19.7348 17 20 17H24C24.2652 17 24.5196 17.1054 24.7071 17.2929C24.8946 17.4804 25 17.7348 25 18C25 18.2652 24.8946 18.5196 24.7071 18.7071C24.5196 18.8946 24.2652 19 24 19H20C19.7348 19 19.4804 18.8946 19.2929 18.7071C19.1054 18.5196 19 18.2652 19 18Z" fill="url(#paint1_linear_1161_683)"/>
<path fill-rule="evenodd" clip-rule="evenodd" d="M15 4C15 3.20435 15.3161 2.44129 15.8787 1.87868C16.4413 1.31607 17.2044 1 18 1H32C32.7956 1 33.5587 1.31607 34.1213 1.87868C34.6839 2.44129 35 3.20435 35 4V20C35 20.7956 34.6839 21.5587 34.1213 22.1213C33.5587 22.6839 32.7956 23 32 23H18C17.2044 23 16.4413 22.6839 15.8787 22.1213C15.3161 21.5587 15 20.7956 15 20V4ZM18 3H32C32.2652 3 32.5196 3.10536 32.7071 3.29289C32.8946 3.48043 33 3.73478 33 4V20C33 20.2652 32.8946 20.5196 32.7071 20.7071C32.5196 20.8946 32.2652 21 32 21H18C17.7348 21 17.4804 20.8946 17.2929 20.7071C17.1054 20.5196 17 20.2652 17 20V4C17 3.73478 17.1054 3.48043 17.2929 3.29289C17.4804 3.10536 17.7348 3 18 3Z" fill="url(#paint2_linear_1161_683)"/>
<defs>
<linearGradient id="paint0_linear_1161_683" x1="25.5" y1="28" x2="25.5" y2="43" gradientUnits="userSpaceOnUse">
<stop stop-color="#591DA9"/>
<stop offset="1" stop-color="#051960"/>
</linearGradient>
<linearGradient id="paint1_linear_1161_683" x1="25" y1="5" x2="25" y2="19" gradientUnits="userSpaceOnUse">
<stop stop-color="#591DA9"/>
<stop offset="1" stop-color="#051960"/>
</linearGradient>
<linearGradient id="paint2_linear_1161_683" x1="25" y1="1" x2="25" y2="23" gradientUnits="userSpaceOnUse">
<stop stop-color="#591DA9"/>
<stop offset="1" stop-color="#051960"/>
</linearGradient>
</defs>
</svg>
