<svg width="41" height="43" viewBox="0 0 41 43" fill="none" xmlns="http://www.w3.org/2000/svg">
<path d="M0.75 39V32.03H2.25L4.32 37.39H4.14L6.21 32.03H7.7V39H6.68V33.21L6.77 33.23L4.72 38.4H3.73L1.68 33.23L1.77 33.21V39H0.75ZM9.58727 41.03L10.5473 38.71L8.64727 34.07H9.72727L11.0673 37.73L12.4273 34.07H13.4873L10.6573 41.03H9.58727ZM20.0286 39.13C19.3819 39.13 18.8119 38.98 18.3186 38.68C17.8319 38.38 17.4519 37.9567 17.1786 37.41C16.9053 36.8633 16.7686 36.23 16.7686 35.51C16.7686 34.79 16.9053 34.16 17.1786 33.62C17.4519 33.0733 17.8319 32.65 18.3186 32.35C18.8119 32.05 19.3819 31.9 20.0286 31.9C20.7419 31.9 21.3586 32.0767 21.8786 32.43C22.4053 32.7833 22.7819 33.2733 23.0086 33.9L22.0586 34.25C21.8919 33.8167 21.6353 33.48 21.2886 33.24C20.9419 32.9933 20.5219 32.87 20.0286 32.87C19.5753 32.87 19.1786 32.98 18.8386 33.2C18.5053 33.4133 18.2453 33.7167 18.0586 34.11C17.8786 34.4967 17.7886 34.9633 17.7886 35.51C17.7886 36.0567 17.8786 36.5267 18.0586 36.92C18.2453 37.3133 18.5053 37.62 18.8386 37.84C19.1786 38.0533 19.5753 38.16 20.0286 38.16C20.5219 38.16 20.9419 38.04 21.2886 37.8C21.6353 37.5533 21.8919 37.2133 22.0586 36.78L23.0086 37.12C22.7819 37.74 22.4053 38.23 21.8786 38.59C21.3586 38.95 20.7419 39.13 20.0286 39.13ZM25.0991 39.09C24.7858 39.09 24.5291 38.9933 24.3291 38.8C24.1291 38.6067 24.0291 38.3 24.0291 37.88V32.03H24.9991V37.69C24.9991 37.8633 25.0358 37.99 25.1091 38.07C25.1891 38.1433 25.2925 38.18 25.4191 38.18C25.4725 38.18 25.5325 38.1767 25.5991 38.17C25.6725 38.1567 25.7458 38.1367 25.8191 38.11V38.94C25.6991 38.9933 25.5725 39.03 25.4391 39.05C25.3125 39.0767 25.1991 39.09 25.0991 39.09ZM29.9547 39L29.8747 38.09V35.9C29.8747 35.5533 29.7747 35.2867 29.5747 35.1C29.3747 34.9133 29.0847 34.82 28.7047 34.82C28.438 34.82 28.1814 34.8733 27.9347 34.98C27.6947 35.0867 27.4647 35.26 27.2447 35.5L26.6347 34.87C26.928 34.5633 27.2514 34.34 27.6047 34.2C27.9647 34.0533 28.3547 33.98 28.7747 33.98C29.4347 33.98 29.9447 34.15 30.3047 34.49C30.6714 34.8233 30.8547 35.2933 30.8547 35.9V39H29.9547ZM28.3647 39.09C27.998 39.09 27.6747 39.0233 27.3947 38.89C27.1147 38.7567 26.898 38.5733 26.7447 38.34C26.5914 38.1 26.5147 37.8233 26.5147 37.51C26.5147 37.2367 26.5714 37.0033 26.6847 36.81C26.798 36.61 26.9447 36.4567 27.1247 36.35C27.2914 36.2433 27.4814 36.17 27.6947 36.13C27.9147 36.0833 28.148 36.06 28.3947 36.06H29.9647V36.8H28.5347C28.4014 36.8 28.2614 36.8133 28.1147 36.84C27.9747 36.86 27.8547 36.9067 27.7547 36.98C27.6747 37.04 27.6114 37.1167 27.5647 37.21C27.518 37.2967 27.4947 37.4 27.4947 37.52C27.4947 37.7533 27.5847 37.94 27.7647 38.08C27.9447 38.22 28.1847 38.29 28.4847 38.29C28.738 38.29 28.968 38.2333 29.1747 38.12C29.388 38 29.558 37.84 29.6847 37.64C29.8114 37.4333 29.8747 37.2 29.8747 36.94L30.2247 37.4C30.1647 37.7467 30.048 38.05 29.8747 38.31C29.7014 38.5633 29.4847 38.7567 29.2247 38.89C28.9714 39.0233 28.6847 39.09 28.3647 39.09ZM33.8146 39.09C33.4679 39.09 33.1613 39.04 32.8946 38.94C32.6279 38.8333 32.3979 38.7 32.2046 38.54C32.0179 38.3733 31.8679 38.2033 31.7546 38.03L32.4246 37.45C32.5513 37.6767 32.7313 37.8733 32.9646 38.04C33.2046 38.2 33.4913 38.28 33.8246 38.28C34.1179 38.28 34.3479 38.22 34.5146 38.1C34.6879 37.9733 34.7746 37.81 34.7746 37.61C34.7746 37.45 34.7213 37.3233 34.6146 37.23C34.5079 37.13 34.3679 37.05 34.1946 36.99C34.0213 36.9233 33.8313 36.8667 33.6246 36.82C33.4379 36.7667 33.2479 36.7067 33.0546 36.64C32.8613 36.5733 32.6846 36.49 32.5246 36.39C32.3713 36.2833 32.2446 36.15 32.1446 35.99C32.0513 35.8233 32.0046 35.62 32.0046 35.38C32.0046 34.96 32.1646 34.6233 32.4846 34.37C32.8113 34.11 33.2413 33.98 33.7746 33.98C34.1546 33.98 34.5013 34.06 34.8146 34.22C35.1279 34.3733 35.3713 34.6033 35.5446 34.91L34.9346 35.38C34.8013 35.16 34.6279 35 34.4146 34.9C34.2079 34.8 33.9813 34.75 33.7346 34.75C33.5013 34.75 33.3046 34.8 33.1446 34.9C32.9913 34.9933 32.9146 35.1233 32.9146 35.29C32.9146 35.41 32.9479 35.51 33.0146 35.59C33.0879 35.6633 33.1979 35.73 33.3446 35.79C33.4979 35.8433 33.6846 35.8967 33.9046 35.95C34.1113 35.9967 34.3213 36.0533 34.5346 36.12C34.7479 36.1867 34.9446 36.2733 35.1246 36.38C35.3046 36.4867 35.4513 36.63 35.5646 36.81C35.6779 36.99 35.7346 37.2233 35.7346 37.51C35.7346 37.8233 35.6546 38.1 35.4946 38.34C35.3346 38.5733 35.1113 38.7567 34.8246 38.89C34.5379 39.0233 34.2013 39.09 33.8146 39.09ZM38.5216 39.09C38.175 39.09 37.8683 39.04 37.6016 38.94C37.335 38.8333 37.105 38.7 36.9116 38.54C36.725 38.3733 36.575 38.2033 36.4616 38.03L37.1316 37.45C37.2583 37.6767 37.4383 37.8733 37.6716 38.04C37.9116 38.2 38.1983 38.28 38.5316 38.28C38.825 38.28 39.055 38.22 39.2216 38.1C39.395 37.9733 39.4816 37.81 39.4816 37.61C39.4816 37.45 39.4283 37.3233 39.3216 37.23C39.215 37.13 39.075 37.05 38.9016 36.99C38.7283 36.9233 38.5383 36.8667 38.3316 36.82C38.145 36.7667 37.955 36.7067 37.7616 36.64C37.5683 36.5733 37.3916 36.49 37.2316 36.39C37.0783 36.2833 36.9516 36.15 36.8516 35.99C36.7583 35.8233 36.7116 35.62 36.7116 35.38C36.7116 34.96 36.8716 34.6233 37.1916 34.37C37.5183 34.11 37.9483 33.98 38.4816 33.98C38.8616 33.98 39.2083 34.06 39.5216 34.22C39.835 34.3733 40.0783 34.6033 40.2516 34.91L39.6416 35.38C39.5083 35.16 39.335 35 39.1216 34.9C38.915 34.8 38.6883 34.75 38.4416 34.75C38.2083 34.75 38.0116 34.8 37.8516 34.9C37.6983 34.9933 37.6216 35.1233 37.6216 35.29C37.6216 35.41 37.655 35.51 37.7216 35.59C37.795 35.6633 37.905 35.73 38.0516 35.79C38.205 35.8433 38.3916 35.8967 38.6116 35.95C38.8183 35.9967 39.0283 36.0533 39.2416 36.12C39.455 36.1867 39.6516 36.2733 39.8316 36.38C40.0116 36.4867 40.1583 36.63 40.2716 36.81C40.385 36.99 40.4416 37.2233 40.4416 37.51C40.4416 37.8233 40.3616 38.1 40.2016 38.34C40.0416 38.5733 39.8183 38.7567 39.5316 38.89C39.245 39.0233 38.9083 39.09 38.5216 39.09Z" fill="url(#paint0_linear_2_51)"/>
<path d="M15 6C15 5.73478 15.1054 5.48043 15.2929 5.29289C15.4804 5.10536 15.7348 5 16 5H26C26.2652 5 26.5196 5.10536 26.7071 5.29289C26.8946 5.48043 27 5.73478 27 6C27 6.26522 26.8946 6.51957 26.7071 6.70711C26.5196 6.89464 26.2652 7 26 7H16C15.7348 7 15.4804 6.89464 15.2929 6.70711C15.1054 6.51957 15 6.26522 15 6ZM15 10C15 9.73478 15.1054 9.48043 15.2929 9.29289C15.4804 9.10536 15.7348 9 16 9H26C26.2652 9 26.5196 9.10536 26.7071 9.29289C26.8946 9.48043 27 9.73478 27 10C27 10.2652 26.8946 10.5196 26.7071 10.7071C26.5196 10.8946 26.2652 11 26 11H16C15.7348 11 15.4804 10.8946 15.2929 10.7071C15.1054 10.5196 15 10.2652 15 10ZM16 13C15.7348 13 15.4804 13.1054 15.2929 13.2929C15.1054 13.4804 15 13.7348 15 14C15 14.2652 15.1054 14.5196 15.2929 14.7071C15.4804 14.8946 15.7348 15 16 15H26C26.2652 15 26.5196 14.8946 26.7071 14.7071C26.8946 14.5196 27 14.2652 27 14C27 13.7348 26.8946 13.4804 26.7071 13.2929C26.5196 13.1054 26.2652 13 26 13H16ZM15 18C15 17.7348 15.1054 17.4804 15.2929 17.2929C15.4804 17.1054 15.7348 17 16 17H20C20.2652 17 20.5196 17.1054 20.7071 17.2929C20.8946 17.4804 21 17.7348 21 18C21 18.2652 20.8946 18.5196 20.7071 18.7071C20.5196 18.8946 20.2652 19 20 19H16C15.7348 19 15.4804 18.8946 15.2929 18.7071C15.1054 18.5196 15 18.2652 15 18Z" fill="url(#paint1_linear_2_51)"/>
<path fill-rule="evenodd" clip-rule="evenodd" d="M11 4C11 3.20435 11.3161 2.44129 11.8787 1.87868C12.4413 1.31607 13.2044 1 14 1H28C28.7956 1 29.5587 1.31607 30.1213 1.87868C30.6839 2.44129 31 3.20435 31 4V20C31 20.7956 30.6839 21.5587 30.1213 22.1213C29.5587 22.6839 28.7956 23 28 23H14C13.2044 23 12.4413 22.6839 11.8787 22.1213C11.3161 21.5587 11 20.7956 11 20V4ZM14 3H28C28.2652 3 28.5196 3.10536 28.7071 3.29289C28.8946 3.48043 29 3.73478 29 4V20C29 20.2652 28.8946 20.5196 28.7071 20.7071C28.5196 20.8946 28.2652 21 28 21H14C13.7348 21 13.4804 20.8946 13.2929 20.7071C13.1054 20.5196 13 20.2652 13 20V4C13 3.73478 13.1054 3.48043 13.2929 3.29289C13.4804 3.10536 13.7348 3 14 3Z" fill="url(#paint2_linear_2_51)"/>
<defs>
<linearGradient id="paint0_linear_2_51" x1="20.5" y1="28" x2="20.5" y2="43" gradientUnits="userSpaceOnUse">
<stop stop-color="#591DA9"/>
<stop offset="1" stop-color="#051960"/>
</linearGradient>
<linearGradient id="paint1_linear_2_51" x1="21" y1="5" x2="21" y2="19" gradientUnits="userSpaceOnUse">
<stop stop-color="#591DA9"/>
<stop offset="1" stop-color="#051960"/>
</linearGradient>
<linearGradient id="paint2_linear_2_51" x1="21" y1="1" x2="21" y2="23" gradientUnits="userSpaceOnUse">
<stop stop-color="#591DA9"/>
<stop offset="1" stop-color="#051960"/>
</linearGradient>
</defs>
</svg>
