<svg width="49" height="43" viewBox="0 0 49 43" fill="none" xmlns="http://www.w3.org/2000/svg">
<g clip-path="url(#clip0_1036_8395)">
<path d="M16.496 1.55966C15.272 1.99166 14.264 3.16766 14.096 4.41566C14 4.96766 13.976 8.63966 14.024 12.5997C14.096 20.4717 14.12 20.5917 15.608 21.7197C16.232 22.1757 16.688 22.1997 24.416 22.2717C32.216 22.3197 32.6 22.2957 33.368 21.8397C33.8 21.5757 34.352 21.0237 34.616 20.5917C35.072 19.8237 35.096 19.4397 35.048 11.5917L34.976 3.38367L34.136 2.51966C33.68 2.06366 32.936 1.55966 32.456 1.43966C31.064 1.05566 17.648 1.15166 16.496 1.55966ZM33.2 3.31166L33.896 4.07966V11.9037V19.7277L33.2 20.4237L32.504 21.1197H24.68H16.856L16.088 20.4237L15.296 19.7277L15.224 12.2637C15.176 6.07166 15.224 4.67967 15.512 3.95967C16.16 2.44767 16.496 2.39966 24.968 2.47166L32.504 2.51966L33.2 3.31166Z" fill="url(#paint0_linear_1036_8395)"/>
<path d="M18.3917 6.36011C18.2957 6.57611 18.3437 6.86411 18.4877 7.00811C18.8477 7.36811 19.5437 7.03211 19.4477 6.55211C19.3517 6.00011 18.5837 5.85611 18.3917 6.36011Z" fill="url(#paint1_linear_1036_8395)"/>
<path d="M20.5513 6.35971C20.4793 6.55171 20.4793 6.81571 20.5753 6.95971C20.7673 7.27171 30.6793 7.29571 30.8713 6.98371C30.9673 6.86371 30.9433 6.59971 30.8713 6.38371C30.7513 6.04771 30.0793 5.99971 25.7113 5.99971C21.5353 5.99971 20.6473 6.04771 20.5513 6.35971Z" fill="url(#paint2_linear_1036_8395)"/>
<path d="M18.3917 11.6394C18.2957 11.8554 18.3437 12.1434 18.4877 12.2874C18.8477 12.6474 19.5437 12.3114 19.4477 11.8314C19.3517 11.2794 18.5837 11.1354 18.3917 11.6394Z" fill="url(#paint3_linear_1036_8395)"/>
<path d="M20.5036 11.808C20.5756 12.36 20.5996 12.36 25.5196 12.432C29.6476 12.48 30.5116 12.432 30.7516 12.144C31.3996 11.376 30.7996 11.28 25.5916 11.28H20.4316L20.5036 11.808Z" fill="url(#paint4_linear_1036_8395)"/>
<path d="M18.2969 17.016C18.2969 17.592 18.8969 17.832 19.2569 17.4C19.6169 16.968 19.3769 16.56 18.7529 16.56C18.4649 16.56 18.2969 16.728 18.2969 17.016Z" fill="url(#paint5_linear_1036_8395)"/>
<path d="M20.5036 17.0873C20.5756 17.6393 20.5996 17.6393 25.5196 17.7113C29.6476 17.7593 30.5116 17.7113 30.7516 17.4233C31.3996 16.6553 30.7996 16.5593 25.5916 16.5593H20.4316L20.5036 17.0873Z" fill="url(#paint6_linear_1036_8395)"/>
</g>
<path d="M2.94 39.12C2.22667 39.12 1.64 38.9333 1.18 38.56C0.726667 38.1867 0.45 37.69 0.35 37.07L1.34 36.83C1.41333 37.2833 1.59667 37.6267 1.89 37.86C2.18333 38.0933 2.54333 38.21 2.97 38.21C3.21667 38.21 3.43333 38.1667 3.62 38.08C3.81333 37.9867 3.96667 37.8567 4.08 37.69C4.19333 37.5167 4.25 37.3233 4.25 37.11C4.25 36.8833 4.18667 36.6967 4.06 36.55C3.94 36.4033 3.76667 36.2733 3.54 36.16C3.32 36.04 3.05333 35.92 2.74 35.8C2.33333 35.6467 1.98333 35.48 1.69 35.3C1.40333 35.12 1.18 34.9067 1.02 34.66C0.866667 34.4067 0.79 34.1033 0.79 33.75C0.79 33.39 0.876667 33.0733 1.05 32.8C1.23 32.52 1.48 32.3 1.8 32.14C2.12 31.98 2.49 31.9 2.91 31.9C3.35667 31.9 3.75333 32.0033 4.1 32.21C4.45333 32.41 4.73333 32.7133 4.94 33.12L4.13 33.62C3.98333 33.3533 3.80333 33.15 3.59 33.01C3.38333 32.87 3.14667 32.8 2.88 32.8C2.67333 32.8 2.48667 32.84 2.32 32.92C2.16 33 2.03333 33.11 1.94 33.25C1.85333 33.3833 1.81 33.5433 1.81 33.73C1.81 33.9233 1.86333 34.09 1.97 34.23C2.08333 34.37 2.24667 34.4967 2.46 34.61C2.68 34.7167 2.95333 34.83 3.28 34.95C3.69333 35.11 4.04667 35.2833 4.34 35.47C4.63333 35.65 4.86 35.8667 5.02 36.12C5.18 36.3733 5.26 36.6833 5.26 37.05C5.26 37.45 5.16 37.8067 4.96 38.12C4.76667 38.4267 4.49667 38.67 4.15 38.85C3.80333 39.03 3.4 39.12 2.94 39.12ZM9.58359 39L9.50359 38.09V35.9C9.50359 35.5533 9.40359 35.2867 9.20359 35.1C9.00359 34.9133 8.71359 34.82 8.33359 34.82C8.06693 34.82 7.81026 34.8733 7.56359 34.98C7.32359 35.0867 7.09359 35.26 6.87359 35.5L6.26359 34.87C6.55693 34.5633 6.88026 34.34 7.23359 34.2C7.59359 34.0533 7.98359 33.98 8.40359 33.98C9.06359 33.98 9.57359 34.15 9.93359 34.49C10.3003 34.8233 10.4836 35.2933 10.4836 35.9V39H9.58359ZM7.99359 39.09C7.62693 39.09 7.30359 39.0233 7.02359 38.89C6.74359 38.7567 6.52693 38.5733 6.37359 38.34C6.22026 38.1 6.14359 37.8233 6.14359 37.51C6.14359 37.2367 6.20026 37.0033 6.31359 36.81C6.42693 36.61 6.57359 36.4567 6.75359 36.35C6.92026 36.2433 7.11026 36.17 7.32359 36.13C7.54359 36.0833 7.77693 36.06 8.02359 36.06H9.59359V36.8H8.16359C8.03026 36.8 7.89026 36.8133 7.74359 36.84C7.60359 36.86 7.48359 36.9067 7.38359 36.98C7.30359 37.04 7.24026 37.1167 7.19359 37.21C7.14693 37.2967 7.12359 37.4 7.12359 37.52C7.12359 37.7533 7.21359 37.94 7.39359 38.08C7.57359 38.22 7.81359 38.29 8.11359 38.29C8.36693 38.29 8.59693 38.2333 8.80359 38.12C9.01693 38 9.18693 37.84 9.31359 37.64C9.44026 37.4333 9.50359 37.2 9.50359 36.94L9.85359 37.4C9.79359 37.7467 9.67693 38.05 9.50359 38.31C9.33026 38.5633 9.11359 38.7567 8.85359 38.89C8.60026 39.0233 8.31359 39.09 7.99359 39.09ZM13.1966 39L11.1766 34.07H12.2566L13.5966 37.73L14.9566 34.07H16.0166L14.0166 39H13.1966ZM18.8938 39.09C18.4938 39.09 18.1471 39.0233 17.8538 38.89C17.5604 38.7567 17.3171 38.5733 17.1238 38.34C16.9304 38.1 16.7838 37.83 16.6838 37.53C16.5904 37.2233 16.5438 36.9033 16.5438 36.57C16.5438 36.2367 16.5904 35.9167 16.6838 35.61C16.7771 35.2967 16.9171 35.02 17.1038 34.78C17.2904 34.5333 17.5238 34.34 17.8038 34.2C18.0904 34.0533 18.4271 33.98 18.8138 33.98C19.2004 33.98 19.5338 34.0467 19.8138 34.18C20.0938 34.3067 20.3238 34.4867 20.5038 34.72C20.6838 34.9467 20.8171 35.2033 20.9038 35.49C20.9971 35.7767 21.0438 36.08 21.0438 36.4C21.0438 36.4333 21.0404 36.4967 21.0338 36.59C21.0338 36.6767 21.0271 36.76 21.0138 36.84H17.5238C17.5438 37.28 17.6771 37.62 17.9238 37.86C18.1771 38.0933 18.5104 38.21 18.9238 38.21C19.2038 38.21 19.4538 38.1667 19.6738 38.08C19.8938 37.9867 20.0971 37.8433 20.2838 37.65L20.8838 38.27C20.6904 38.4633 20.4904 38.62 20.2838 38.74C20.0838 38.86 19.8704 38.9467 19.6438 39C19.4238 39.06 19.1738 39.09 18.8938 39.09ZM20.0738 36.35C20.0871 36.2967 20.0938 36.2433 20.0938 36.19C20.1004 36.1367 20.1038 36.0833 20.1038 36.03C20.1038 35.8767 20.0771 35.7267 20.0238 35.58C19.9704 35.4333 19.8904 35.3033 19.7838 35.19C19.6771 35.07 19.5438 34.9767 19.3838 34.91C19.2304 34.8367 19.0504 34.8 18.8438 34.8C18.5704 34.8 18.3371 34.8633 18.1438 34.99C17.9504 35.11 17.8004 35.27 17.6938 35.47C17.5938 35.67 17.5338 35.8867 17.5138 36.12H20.3938L20.0738 36.35ZM27.8118 39.13C27.1651 39.13 26.5951 38.98 26.1018 38.68C25.6151 38.38 25.2351 37.9567 24.9618 37.41C24.6885 36.8633 24.5518 36.23 24.5518 35.51C24.5518 34.79 24.6885 34.16 24.9618 33.62C25.2351 33.0733 25.6151 32.65 26.1018 32.35C26.5951 32.05 27.1651 31.9 27.8118 31.9C28.5251 31.9 29.1418 32.0767 29.6618 32.43C30.1885 32.7833 30.5651 33.2733 30.7918 33.9L29.8418 34.25C29.6751 33.8167 29.4185 33.48 29.0718 33.24C28.7251 32.9933 28.3051 32.87 27.8118 32.87C27.3585 32.87 26.9618 32.98 26.6218 33.2C26.2885 33.4133 26.0285 33.7167 25.8418 34.11C25.6618 34.4967 25.5718 34.9633 25.5718 35.51C25.5718 36.0567 25.6618 36.5267 25.8418 36.92C26.0285 37.3133 26.2885 37.62 26.6218 37.84C26.9618 38.0533 27.3585 38.16 27.8118 38.16C28.3051 38.16 28.7251 38.04 29.0718 37.8C29.4185 37.5533 29.6751 37.2133 29.8418 36.78L30.7918 37.12C30.5651 37.74 30.1885 38.23 29.6618 38.59C29.1418 38.95 28.5251 39.13 27.8118 39.13ZM32.8823 39.09C32.569 39.09 32.3123 38.9933 32.1123 38.8C31.9123 38.6067 31.8123 38.3 31.8123 37.88V32.03H32.7823V37.69C32.7823 37.8633 32.819 37.99 32.8923 38.07C32.9723 38.1433 33.0757 38.18 33.2023 38.18C33.2557 38.18 33.3157 38.1767 33.3823 38.17C33.4557 38.1567 33.529 38.1367 33.6023 38.11V38.94C33.4823 38.9933 33.3557 39.03 33.2223 39.05C33.0957 39.0767 32.9823 39.09 32.8823 39.09ZM37.7379 39L37.6579 38.09V35.9C37.6579 35.5533 37.5579 35.2867 37.3579 35.1C37.1579 34.9133 36.8679 34.82 36.4879 34.82C36.2212 34.82 35.9646 34.8733 35.7179 34.98C35.4779 35.0867 35.2479 35.26 35.0279 35.5L34.4179 34.87C34.7112 34.5633 35.0346 34.34 35.3879 34.2C35.7479 34.0533 36.1379 33.98 36.5579 33.98C37.2179 33.98 37.7279 34.15 38.0879 34.49C38.4546 34.8233 38.6379 35.2933 38.6379 35.9V39H37.7379ZM36.1479 39.09C35.7812 39.09 35.4579 39.0233 35.1779 38.89C34.8979 38.7567 34.6812 38.5733 34.5279 38.34C34.3746 38.1 34.2979 37.8233 34.2979 37.51C34.2979 37.2367 34.3546 37.0033 34.4679 36.81C34.5812 36.61 34.7279 36.4567 34.9079 36.35C35.0746 36.2433 35.2646 36.17 35.4779 36.13C35.6979 36.0833 35.9312 36.06 36.1779 36.06H37.7479V36.8H36.3179C36.1846 36.8 36.0446 36.8133 35.8979 36.84C35.7579 36.86 35.6379 36.9067 35.5379 36.98C35.4579 37.04 35.3946 37.1167 35.3479 37.21C35.3012 37.2967 35.2779 37.4 35.2779 37.52C35.2779 37.7533 35.3679 37.94 35.5479 38.08C35.7279 38.22 35.9679 38.29 36.2679 38.29C36.5212 38.29 36.7512 38.2333 36.9579 38.12C37.1712 38 37.3412 37.84 37.4679 37.64C37.5946 37.4333 37.6579 37.2 37.6579 36.94L38.0079 37.4C37.9479 37.7467 37.8312 38.05 37.6579 38.31C37.4846 38.5633 37.2679 38.7567 37.0079 38.89C36.7546 39.0233 36.4679 39.09 36.1479 39.09ZM41.5978 39.09C41.2511 39.09 40.9445 39.04 40.6778 38.94C40.4111 38.8333 40.1811 38.7 39.9878 38.54C39.8011 38.3733 39.6511 38.2033 39.5378 38.03L40.2078 37.45C40.3345 37.6767 40.5145 37.8733 40.7478 38.04C40.9878 38.2 41.2745 38.28 41.6078 38.28C41.9011 38.28 42.1311 38.22 42.2978 38.1C42.4711 37.9733 42.5578 37.81 42.5578 37.61C42.5578 37.45 42.5045 37.3233 42.3978 37.23C42.2911 37.13 42.1511 37.05 41.9778 36.99C41.8045 36.9233 41.6145 36.8667 41.4078 36.82C41.2211 36.7667 41.0311 36.7067 40.8378 36.64C40.6445 36.5733 40.4678 36.49 40.3078 36.39C40.1545 36.2833 40.0278 36.15 39.9278 35.99C39.8345 35.8233 39.7878 35.62 39.7878 35.38C39.7878 34.96 39.9478 34.6233 40.2678 34.37C40.5945 34.11 41.0245 33.98 41.5578 33.98C41.9378 33.98 42.2845 34.06 42.5978 34.22C42.9111 34.3733 43.1545 34.6033 43.3278 34.91L42.7178 35.38C42.5845 35.16 42.4111 35 42.1978 34.9C41.9911 34.8 41.7645 34.75 41.5178 34.75C41.2845 34.75 41.0878 34.8 40.9278 34.9C40.7745 34.9933 40.6978 35.1233 40.6978 35.29C40.6978 35.41 40.7311 35.51 40.7978 35.59C40.8711 35.6633 40.9811 35.73 41.1278 35.79C41.2811 35.8433 41.4678 35.8967 41.6878 35.95C41.8945 35.9967 42.1045 36.0533 42.3178 36.12C42.5311 36.1867 42.7278 36.2733 42.9078 36.38C43.0878 36.4867 43.2345 36.63 43.3478 36.81C43.4611 36.99 43.5178 37.2233 43.5178 37.51C43.5178 37.8233 43.4378 38.1 43.2778 38.34C43.1178 38.5733 42.8945 38.7567 42.6078 38.89C42.3211 39.0233 41.9845 39.09 41.5978 39.09ZM46.3048 39.09C45.9582 39.09 45.6515 39.04 45.3848 38.94C45.1182 38.8333 44.8882 38.7 44.6948 38.54C44.5082 38.3733 44.3582 38.2033 44.2448 38.03L44.9148 37.45C45.0415 37.6767 45.2215 37.8733 45.4548 38.04C45.6948 38.2 45.9815 38.28 46.3148 38.28C46.6082 38.28 46.8382 38.22 47.0048 38.1C47.1782 37.9733 47.2648 37.81 47.2648 37.61C47.2648 37.45 47.2115 37.3233 47.1048 37.23C46.9982 37.13 46.8582 37.05 46.6848 36.99C46.5115 36.9233 46.3215 36.8667 46.1148 36.82C45.9282 36.7667 45.7382 36.7067 45.5448 36.64C45.3515 36.5733 45.1748 36.49 45.0148 36.39C44.8615 36.2833 44.7348 36.15 44.6348 35.99C44.5415 35.8233 44.4948 35.62 44.4948 35.38C44.4948 34.96 44.6548 34.6233 44.9748 34.37C45.3015 34.11 45.7315 33.98 46.2648 33.98C46.6448 33.98 46.9915 34.06 47.3048 34.22C47.6182 34.3733 47.8615 34.6033 48.0348 34.91L47.4248 35.38C47.2915 35.16 47.1182 35 46.9048 34.9C46.6982 34.8 46.4715 34.75 46.2248 34.75C45.9915 34.75 45.7948 34.8 45.6348 34.9C45.4815 34.9933 45.4048 35.1233 45.4048 35.29C45.4048 35.41 45.4382 35.51 45.5048 35.59C45.5782 35.6633 45.6882 35.73 45.8348 35.79C45.9882 35.8433 46.1748 35.8967 46.3948 35.95C46.6015 35.9967 46.8115 36.0533 47.0248 36.12C47.2382 36.1867 47.4348 36.2733 47.6148 36.38C47.7948 36.4867 47.9415 36.63 48.0548 36.81C48.1682 36.99 48.2248 37.2233 48.2248 37.51C48.2248 37.8233 48.1448 38.1 47.9848 38.34C47.8248 38.5733 47.6015 38.7567 47.3148 38.89C47.0282 39.0233 46.6915 39.09 46.3048 39.09Z" fill="url(#paint7_linear_1036_8395)"/>
<defs>
<linearGradient id="paint0_linear_1036_8395" x1="24.5327" y1="22.2891" x2="24.5327" y2="1.19719" gradientUnits="userSpaceOnUse">
<stop stop-color="#591DA9"/>
<stop offset="1" stop-color="#051960"/>
</linearGradient>
<linearGradient id="paint1_linear_1036_8395" x1="18.8993" y1="7.15918" x2="18.8993" y2="6.0502" gradientUnits="userSpaceOnUse">
<stop stop-color="#591DA9"/>
<stop offset="1" stop-color="#051960"/>
</linearGradient>
<linearGradient id="paint2_linear_1036_8395" x1="25.7173" y1="7.20605" x2="25.7173" y2="5.99971" gradientUnits="userSpaceOnUse">
<stop stop-color="#591DA9"/>
<stop offset="1" stop-color="#051960"/>
</linearGradient>
<linearGradient id="paint3_linear_1036_8395" x1="18.8993" y1="12.4385" x2="18.8993" y2="11.3295" gradientUnits="userSpaceOnUse">
<stop stop-color="#591DA9"/>
<stop offset="1" stop-color="#051960"/>
</linearGradient>
<linearGradient id="paint4_linear_1036_8395" x1="25.6978" y1="12.4482" x2="25.6978" y2="11.28" gradientUnits="userSpaceOnUse">
<stop stop-color="#591DA9"/>
<stop offset="1" stop-color="#051960"/>
</linearGradient>
<linearGradient id="paint5_linear_1036_8395" x1="18.8611" y1="17.6211" x2="18.8611" y2="16.56" gradientUnits="userSpaceOnUse">
<stop stop-color="#591DA9"/>
<stop offset="1" stop-color="#051960"/>
</linearGradient>
<linearGradient id="paint6_linear_1036_8395" x1="25.6978" y1="17.7275" x2="25.6978" y2="16.5593" gradientUnits="userSpaceOnUse">
<stop stop-color="#591DA9"/>
<stop offset="1" stop-color="#051960"/>
</linearGradient>
<linearGradient id="paint7_linear_1036_8395" x1="24.5" y1="28" x2="24.5" y2="43" gradientUnits="userSpaceOnUse">
<stop stop-color="#591DA9"/>
<stop offset="1" stop-color="#051960"/>
</linearGradient>
<clipPath id="clip0_1036_8395">
<rect width="24" height="24" fill="white" transform="translate(11.25)"/>
</clipPath>
</defs>
</svg>
