<svg width="50" height="42" viewBox="0 0 50 42" fill="none" xmlns="http://www.w3.org/2000/svg">
<path d="M3.69 38.12C2.97667 38.12 2.39 37.9333 1.93 37.56C1.47667 37.1867 1.2 36.69 1.1 36.07L2.09 35.83C2.16333 36.2833 2.34667 36.6267 2.64 36.86C2.93333 37.0933 3.29333 37.21 3.72 37.21C3.96667 37.21 4.18333 37.1667 4.37 37.08C4.56333 36.9867 4.71667 36.8567 4.83 36.69C4.94333 36.5167 5 36.3233 5 36.11C5 35.8833 4.93667 35.6967 4.81 35.55C4.69 35.4033 4.51667 35.2733 4.29 35.16C4.07 35.04 3.80333 34.92 3.49 34.8C3.08333 34.6467 2.73333 34.48 2.44 34.3C2.15333 34.12 1.93 33.9067 1.77 33.66C1.61667 33.4067 1.54 33.1033 1.54 32.75C1.54 32.39 1.62667 32.0733 1.8 31.8C1.98 31.52 2.23 31.3 2.55 31.14C2.87 30.98 3.24 30.9 3.66 30.9C4.10667 30.9 4.50333 31.0033 4.85 31.21C5.20333 31.41 5.48333 31.7133 5.69 32.12L4.88 32.62C4.73333 32.3533 4.55333 32.15 4.34 32.01C4.13333 31.87 3.89667 31.8 3.63 31.8C3.42333 31.8 3.23667 31.84 3.07 31.92C2.91 32 2.78333 32.11 2.69 32.25C2.60333 32.3833 2.56 32.5433 2.56 32.73C2.56 32.9233 2.61333 33.09 2.72 33.23C2.83333 33.37 2.99667 33.4967 3.21 33.61C3.43 33.7167 3.70333 33.83 4.03 33.95C4.44333 34.11 4.79667 34.2833 5.09 34.47C5.38333 34.65 5.61 34.8667 5.77 35.12C5.93 35.3733 6.01 35.6833 6.01 36.05C6.01 36.45 5.91 36.8067 5.71 37.12C5.51667 37.4267 5.24667 37.67 4.9 37.85C4.55333 38.03 4.15 38.12 3.69 38.12ZM10.3336 38L10.2536 37.09V34.9C10.2536 34.5533 10.1536 34.2867 9.95359 34.1C9.75359 33.9133 9.46359 33.82 9.08359 33.82C8.81693 33.82 8.56026 33.8733 8.31359 33.98C8.07359 34.0867 7.84359 34.26 7.62359 34.5L7.01359 33.87C7.30693 33.5633 7.63026 33.34 7.98359 33.2C8.34359 33.0533 8.73359 32.98 9.15359 32.98C9.81359 32.98 10.3236 33.15 10.6836 33.49C11.0503 33.8233 11.2336 34.2933 11.2336 34.9V38H10.3336ZM8.74359 38.09C8.37693 38.09 8.05359 38.0233 7.77359 37.89C7.49359 37.7567 7.27693 37.5733 7.12359 37.34C6.97026 37.1 6.89359 36.8233 6.89359 36.51C6.89359 36.2367 6.95026 36.0033 7.06359 35.81C7.17693 35.61 7.32359 35.4567 7.50359 35.35C7.67026 35.2433 7.86026 35.17 8.07359 35.13C8.29359 35.0833 8.52693 35.06 8.77359 35.06H10.3436V35.8H8.91359C8.78026 35.8 8.64026 35.8133 8.49359 35.84C8.35359 35.86 8.23359 35.9067 8.13359 35.98C8.05359 36.04 7.99026 36.1167 7.94359 36.21C7.89693 36.2967 7.87359 36.4 7.87359 36.52C7.87359 36.7533 7.96359 36.94 8.14359 37.08C8.32359 37.22 8.56359 37.29 8.86359 37.29C9.11693 37.29 9.34693 37.2333 9.55359 37.12C9.76693 37 9.93693 36.84 10.0636 36.64C10.1903 36.4333 10.2536 36.2 10.2536 35.94L10.6036 36.4C10.5436 36.7467 10.4269 37.05 10.2536 37.31C10.0803 37.5633 9.86359 37.7567 9.60359 37.89C9.35026 38.0233 9.06359 38.09 8.74359 38.09ZM13.9466 38L11.9266 33.07H13.0066L14.3466 36.73L15.7066 33.07H16.7666L14.7666 38H13.9466ZM19.6438 38.09C19.2438 38.09 18.8971 38.0233 18.6038 37.89C18.3104 37.7567 18.0671 37.5733 17.8738 37.34C17.6804 37.1 17.5338 36.83 17.4338 36.53C17.3404 36.2233 17.2938 35.9033 17.2938 35.57C17.2938 35.2367 17.3404 34.9167 17.4338 34.61C17.5271 34.2967 17.6671 34.02 17.8538 33.78C18.0404 33.5333 18.2738 33.34 18.5538 33.2C18.8404 33.0533 19.1771 32.98 19.5638 32.98C19.9504 32.98 20.2838 33.0467 20.5638 33.18C20.8438 33.3067 21.0738 33.4867 21.2538 33.72C21.4338 33.9467 21.5671 34.2033 21.6538 34.49C21.7471 34.7767 21.7938 35.08 21.7938 35.4C21.7938 35.4333 21.7904 35.4967 21.7838 35.59C21.7838 35.6767 21.7771 35.76 21.7638 35.84H18.2738C18.2938 36.28 18.4271 36.62 18.6738 36.86C18.9271 37.0933 19.2604 37.21 19.6738 37.21C19.9538 37.21 20.2038 37.1667 20.4238 37.08C20.6438 36.9867 20.8471 36.8433 21.0338 36.65L21.6338 37.27C21.4404 37.4633 21.2404 37.62 21.0338 37.74C20.8338 37.86 20.6204 37.9467 20.3938 38C20.1738 38.06 19.9238 38.09 19.6438 38.09ZM20.8238 35.35C20.8371 35.2967 20.8438 35.2433 20.8438 35.19C20.8504 35.1367 20.8538 35.0833 20.8538 35.03C20.8538 34.8767 20.8271 34.7267 20.7738 34.58C20.7204 34.4333 20.6404 34.3033 20.5338 34.19C20.4271 34.07 20.2938 33.9767 20.1338 33.91C19.9804 33.8367 19.8004 33.8 19.5938 33.8C19.3204 33.8 19.0871 33.8633 18.8938 33.99C18.7004 34.11 18.5504 34.27 18.4438 34.47C18.3438 34.67 18.2838 34.8867 18.2638 35.12H21.1438L20.8238 35.35ZM28.5618 38.13C27.9151 38.13 27.3451 37.98 26.8518 37.68C26.3651 37.38 25.9851 36.9567 25.7118 36.41C25.4385 35.8633 25.3018 35.23 25.3018 34.51C25.3018 33.79 25.4385 33.16 25.7118 32.62C25.9851 32.0733 26.3651 31.65 26.8518 31.35C27.3451 31.05 27.9151 30.9 28.5618 30.9C29.2751 30.9 29.8918 31.0767 30.4118 31.43C30.9385 31.7833 31.3151 32.2733 31.5418 32.9L30.5918 33.25C30.4251 32.8167 30.1685 32.48 29.8218 32.24C29.4751 31.9933 29.0551 31.87 28.5618 31.87C28.1085 31.87 27.7118 31.98 27.3718 32.2C27.0385 32.4133 26.7785 32.7167 26.5918 33.11C26.4118 33.4967 26.3218 33.9633 26.3218 34.51C26.3218 35.0567 26.4118 35.5267 26.5918 35.92C26.7785 36.3133 27.0385 36.62 27.3718 36.84C27.7118 37.0533 28.1085 37.16 28.5618 37.16C29.0551 37.16 29.4751 37.04 29.8218 36.8C30.1685 36.5533 30.4251 36.2133 30.5918 35.78L31.5418 36.12C31.3151 36.74 30.9385 37.23 30.4118 37.59C29.8918 37.95 29.2751 38.13 28.5618 38.13ZM33.6323 38.09C33.319 38.09 33.0623 37.9933 32.8623 37.8C32.6623 37.6067 32.5623 37.3 32.5623 36.88V31.03H33.5323V36.69C33.5323 36.8633 33.569 36.99 33.6423 37.07C33.7223 37.1433 33.8257 37.18 33.9523 37.18C34.0057 37.18 34.0657 37.1767 34.1323 37.17C34.2057 37.1567 34.279 37.1367 34.3523 37.11V37.94C34.2323 37.9933 34.1057 38.03 33.9723 38.05C33.8457 38.0767 33.7323 38.09 33.6323 38.09ZM38.4879 38L38.4079 37.09V34.9C38.4079 34.5533 38.3079 34.2867 38.1079 34.1C37.9079 33.9133 37.6179 33.82 37.2379 33.82C36.9712 33.82 36.7146 33.8733 36.4679 33.98C36.2279 34.0867 35.9979 34.26 35.7779 34.5L35.1679 33.87C35.4612 33.5633 35.7846 33.34 36.1379 33.2C36.4979 33.0533 36.8879 32.98 37.3079 32.98C37.9679 32.98 38.4779 33.15 38.8379 33.49C39.2046 33.8233 39.3879 34.2933 39.3879 34.9V38H38.4879ZM36.8979 38.09C36.5312 38.09 36.2079 38.0233 35.9279 37.89C35.6479 37.7567 35.4312 37.5733 35.2779 37.34C35.1246 37.1 35.0479 36.8233 35.0479 36.51C35.0479 36.2367 35.1046 36.0033 35.2179 35.81C35.3312 35.61 35.4779 35.4567 35.6579 35.35C35.8246 35.2433 36.0146 35.17 36.2279 35.13C36.4479 35.0833 36.6812 35.06 36.9279 35.06H38.4979V35.8H37.0679C36.9346 35.8 36.7946 35.8133 36.6479 35.84C36.5079 35.86 36.3879 35.9067 36.2879 35.98C36.2079 36.04 36.1446 36.1167 36.0979 36.21C36.0512 36.2967 36.0279 36.4 36.0279 36.52C36.0279 36.7533 36.1179 36.94 36.2979 37.08C36.4779 37.22 36.7179 37.29 37.0179 37.29C37.2712 37.29 37.5012 37.2333 37.7079 37.12C37.9212 37 38.0912 36.84 38.2179 36.64C38.3446 36.4333 38.4079 36.2 38.4079 35.94L38.7579 36.4C38.6979 36.7467 38.5812 37.05 38.4079 37.31C38.2346 37.5633 38.0179 37.7567 37.7579 37.89C37.5046 38.0233 37.2179 38.09 36.8979 38.09ZM42.3478 38.09C42.0011 38.09 41.6945 38.04 41.4278 37.94C41.1611 37.8333 40.9311 37.7 40.7378 37.54C40.5511 37.3733 40.4011 37.2033 40.2878 37.03L40.9578 36.45C41.0845 36.6767 41.2645 36.8733 41.4978 37.04C41.7378 37.2 42.0245 37.28 42.3578 37.28C42.6511 37.28 42.8811 37.22 43.0478 37.1C43.2211 36.9733 43.3078 36.81 43.3078 36.61C43.3078 36.45 43.2545 36.3233 43.1478 36.23C43.0411 36.13 42.9011 36.05 42.7278 35.99C42.5545 35.9233 42.3645 35.8667 42.1578 35.82C41.9711 35.7667 41.7811 35.7067 41.5878 35.64C41.3945 35.5733 41.2178 35.49 41.0578 35.39C40.9045 35.2833 40.7778 35.15 40.6778 34.99C40.5845 34.8233 40.5378 34.62 40.5378 34.38C40.5378 33.96 40.6978 33.6233 41.0178 33.37C41.3445 33.11 41.7745 32.98 42.3078 32.98C42.6878 32.98 43.0345 33.06 43.3478 33.22C43.6611 33.3733 43.9045 33.6033 44.0778 33.91L43.4678 34.38C43.3345 34.16 43.1611 34 42.9478 33.9C42.7411 33.8 42.5145 33.75 42.2678 33.75C42.0345 33.75 41.8378 33.8 41.6778 33.9C41.5245 33.9933 41.4478 34.1233 41.4478 34.29C41.4478 34.41 41.4811 34.51 41.5478 34.59C41.6211 34.6633 41.7311 34.73 41.8778 34.79C42.0311 34.8433 42.2178 34.8967 42.4378 34.95C42.6445 34.9967 42.8545 35.0533 43.0678 35.12C43.2811 35.1867 43.4778 35.2733 43.6578 35.38C43.8378 35.4867 43.9845 35.63 44.0978 35.81C44.2111 35.99 44.2678 36.2233 44.2678 36.51C44.2678 36.8233 44.1878 37.1 44.0278 37.34C43.8678 37.5733 43.6445 37.7567 43.3578 37.89C43.0711 38.0233 42.7345 38.09 42.3478 38.09ZM47.0548 38.09C46.7082 38.09 46.4015 38.04 46.1348 37.94C45.8682 37.8333 45.6382 37.7 45.4448 37.54C45.2582 37.3733 45.1082 37.2033 44.9948 37.03L45.6648 36.45C45.7915 36.6767 45.9715 36.8733 46.2048 37.04C46.4448 37.2 46.7315 37.28 47.0648 37.28C47.3582 37.28 47.5882 37.22 47.7548 37.1C47.9282 36.9733 48.0148 36.81 48.0148 36.61C48.0148 36.45 47.9615 36.3233 47.8548 36.23C47.7482 36.13 47.6082 36.05 47.4348 35.99C47.2615 35.9233 47.0715 35.8667 46.8648 35.82C46.6782 35.7667 46.4882 35.7067 46.2948 35.64C46.1015 35.5733 45.9248 35.49 45.7648 35.39C45.6115 35.2833 45.4848 35.15 45.3848 34.99C45.2915 34.8233 45.2448 34.62 45.2448 34.38C45.2448 33.96 45.4048 33.6233 45.7248 33.37C46.0515 33.11 46.4815 32.98 47.0148 32.98C47.3948 32.98 47.7415 33.06 48.0548 33.22C48.3682 33.3733 48.6115 33.6033 48.7848 33.91L48.1748 34.38C48.0415 34.16 47.8682 34 47.6548 33.9C47.4482 33.8 47.2215 33.75 46.9748 33.75C46.7415 33.75 46.5448 33.8 46.3848 33.9C46.2315 33.9933 46.1548 34.1233 46.1548 34.29C46.1548 34.41 46.1882 34.51 46.2548 34.59C46.3282 34.6633 46.4382 34.73 46.5848 34.79C46.7382 34.8433 46.9248 34.8967 47.1448 34.95C47.3515 34.9967 47.5615 35.0533 47.7748 35.12C47.9882 35.1867 48.1848 35.2733 48.3648 35.38C48.5448 35.4867 48.6915 35.63 48.8048 35.81C48.9182 35.99 48.9748 36.2233 48.9748 36.51C48.9748 36.8233 48.8948 37.1 48.7348 37.34C48.5748 37.5733 48.3515 37.7567 48.0648 37.89C47.7782 38.0233 47.4415 38.09 47.0548 38.09Z" fill="#575757"/>
<path d="M15.9608 0.559664C14.7368 0.991664 13.7288 2.16766 13.5608 3.41566C13.4648 3.96766 13.4408 7.63966 13.4888 11.5997C13.5608 19.4717 13.5848 19.5917 15.0728 20.7197C15.6968 21.1757 16.1528 21.1997 23.8808 21.2717C31.6808 21.3197 32.0648 21.2957 32.8328 20.8397C33.2648 20.5757 33.8168 20.0237 34.0808 19.5917C34.5368 18.8237 34.5608 18.4397 34.5128 10.5917L34.4408 2.38366L33.6008 1.51966C33.1448 1.06366 32.4008 0.559664 31.9208 0.439664C30.5288 0.0556644 17.1128 0.151664 15.9608 0.559664ZM32.6648 2.31166L33.3608 3.07966V10.9037V18.7277L32.6648 19.4237L31.9688 20.1197H24.1448H16.3208L15.5528 19.4237L14.7608 18.7277L14.6888 11.2637C14.6408 5.07166 14.6888 3.67966 14.9768 2.95966C15.6248 1.44766 15.9608 1.39966 24.4328 1.47166L31.9688 1.51966L32.6648 2.31166Z" fill="#575757"/>
<path d="M17.8566 5.36011C17.7606 5.57611 17.8086 5.86411 17.9526 6.00811C18.3126 6.36811 19.0086 6.03211 18.9126 5.55211C18.8166 5.00011 18.0486 4.85611 17.8566 5.36011Z" fill="#575757"/>
<path d="M20.0162 5.35971C19.9442 5.55171 19.9442 5.81571 20.0402 5.95971C20.2322 6.27171 30.1442 6.29571 30.3362 5.98371C30.4322 5.86371 30.4082 5.59971 30.3362 5.38371C30.2162 5.04771 29.5442 4.99971 25.1762 4.99971C21.0002 4.99971 20.1122 5.04771 20.0162 5.35971Z" fill="#575757"/>
<path d="M17.8566 10.6394C17.7606 10.8554 17.8086 11.1434 17.9526 11.2874C18.3126 11.6474 19.0086 11.3114 18.9126 10.8314C18.8166 10.2794 18.0486 10.1354 17.8566 10.6394Z" fill="#575757"/>
<path d="M19.9685 10.808C20.0405 11.36 20.0645 11.36 24.9845 11.432C29.1125 11.48 29.9765 11.432 30.2165 11.144C30.8645 10.376 30.2645 10.28 25.0565 10.28H19.8965L19.9685 10.808Z" fill="#575757"/>
<path d="M17.7617 16.016C17.7617 16.592 18.3617 16.832 18.7217 16.4C19.0817 15.968 18.8417 15.56 18.2177 15.56C17.9297 15.56 17.7617 15.728 17.7617 16.016Z" fill="#575757"/>
<path d="M19.9685 16.0873C20.0405 16.6393 20.0645 16.6393 24.9845 16.7113C29.1125 16.7593 29.9765 16.7113 30.2165 16.4233C30.8645 15.6553 30.2645 15.5593 25.0565 15.5593H19.8965L19.9685 16.0873Z" fill="#575757"/>
</svg>
