<svg width="52" height="44" viewBox="0 0 52 44" fill="none" xmlns="http://www.w3.org/2000/svg">
<path d="M20 6C20 5.73478 20.1054 5.48043 20.2929 5.29289C20.4804 5.10536 20.7348 5 21 5H31C31.2652 5 31.5196 5.10536 31.7071 5.29289C31.8946 5.48043 32 5.73478 32 6C32 6.26522 31.8946 6.51957 31.7071 6.70711C31.5196 6.89464 31.2652 7 31 7H21C20.7348 7 20.4804 6.89464 20.2929 6.70711C20.1054 6.51957 20 6.26522 20 6ZM20 10C20 9.73478 20.1054 9.48043 20.2929 9.29289C20.4804 9.10536 20.7348 9 21 9H31C31.2652 9 31.5196 9.10536 31.7071 9.29289C31.8946 9.48043 32 9.73478 32 10C32 10.2652 31.8946 10.5196 31.7071 10.7071C31.5196 10.8946 31.2652 11 31 11H21C20.7348 11 20.4804 10.8946 20.2929 10.7071C20.1054 10.5196 20 10.2652 20 10ZM21 13C20.7348 13 20.4804 13.1054 20.2929 13.2929C20.1054 13.4804 20 13.7348 20 14C20 14.2652 20.1054 14.5196 20.2929 14.7071C20.4804 14.8946 20.7348 15 21 15H31C31.2652 15 31.5196 14.8946 31.7071 14.7071C31.8946 14.5196 32 14.2652 32 14C32 13.7348 31.8946 13.4804 31.7071 13.2929C31.5196 13.1054 31.2652 13 31 13H21ZM20 18C20 17.7348 20.1054 17.4804 20.2929 17.2929C20.4804 17.1054 20.7348 17 21 17H25C25.2652 17 25.5196 17.1054 25.7071 17.2929C25.8946 17.4804 26 17.7348 26 18C26 18.2652 25.8946 18.5196 25.7071 18.7071C25.5196 18.8946 25.2652 19 25 19H21C20.7348 19 20.4804 18.8946 20.2929 18.7071C20.1054 18.5196 20 18.2652 20 18Z" fill="#575757"/>
<path fill-rule="evenodd" clip-rule="evenodd" d="M16 4C16 3.20435 16.3161 2.44129 16.8787 1.87868C17.4413 1.31607 18.2044 1 19 1H33C33.7956 1 34.5587 1.31607 35.1213 1.87868C35.6839 2.44129 36 3.20435 36 4V20C36 20.7956 35.6839 21.5587 35.1213 22.1213C34.5587 22.6839 33.7956 23 33 23H19C18.2044 23 17.4413 22.6839 16.8787 22.1213C16.3161 21.5587 16 20.7956 16 20V4ZM19 3H33C33.2652 3 33.5196 3.10536 33.7071 3.29289C33.8946 3.48043 34 3.73478 34 4V20C34 20.2652 33.8946 20.5196 33.7071 20.7071C33.5196 20.8946 33.2652 21 33 21H19C18.7348 21 18.4804 20.8946 18.2929 20.7071C18.1054 20.5196 18 20.2652 18 20V4C18 3.73478 18.1054 3.48043 18.2929 3.29289C18.4804 3.10536 18.7348 3 19 3Z" fill="#575757"/>
<path d="M1.5 40V33.03H3L5.07 38.39H4.89L6.96 33.03H8.45V40H7.43V34.21L7.52 34.23L5.47 39.4H4.48L2.43 34.23L2.52 34.21V40H1.5ZM10.3373 42.03L11.2973 39.71L9.39727 35.07H10.4773L11.8173 38.73L13.1773 35.07H14.2373L11.4073 42.03H10.3373ZM20.7786 40.13C20.1319 40.13 19.5619 39.98 19.0686 39.68C18.5819 39.38 18.2019 38.9567 17.9286 38.41C17.6553 37.8633 17.5186 37.23 17.5186 36.51C17.5186 35.79 17.6553 35.16 17.9286 34.62C18.2019 34.0733 18.5819 33.65 19.0686 33.35C19.5619 33.05 20.1319 32.9 20.7786 32.9C21.4919 32.9 22.1086 33.0767 22.6286 33.43C23.1553 33.7833 23.5319 34.2733 23.7586 34.9L22.8086 35.25C22.6419 34.8167 22.3853 34.48 22.0386 34.24C21.6919 33.9933 21.2719 33.87 20.7786 33.87C20.3253 33.87 19.9286 33.98 19.5886 34.2C19.2553 34.4133 18.9953 34.7167 18.8086 35.11C18.6286 35.4967 18.5386 35.9633 18.5386 36.51C18.5386 37.0567 18.6286 37.5267 18.8086 37.92C18.9953 38.3133 19.2553 38.62 19.5886 38.84C19.9286 39.0533 20.3253 39.16 20.7786 39.16C21.2719 39.16 21.6919 39.04 22.0386 38.8C22.3853 38.5533 22.6419 38.2133 22.8086 37.78L23.7586 38.12C23.5319 38.74 23.1553 39.23 22.6286 39.59C22.1086 39.95 21.4919 40.13 20.7786 40.13ZM25.8491 40.09C25.5358 40.09 25.2791 39.9933 25.0791 39.8C24.8791 39.6067 24.7791 39.3 24.7791 38.88V33.03H25.7491V38.69C25.7491 38.8633 25.7858 38.99 25.8591 39.07C25.9391 39.1433 26.0425 39.18 26.1691 39.18C26.2225 39.18 26.2825 39.1767 26.3491 39.17C26.4225 39.1567 26.4958 39.1367 26.5691 39.11V39.94C26.4491 39.9933 26.3225 40.03 26.1891 40.05C26.0625 40.0767 25.9491 40.09 25.8491 40.09ZM30.7047 40L30.6247 39.09V36.9C30.6247 36.5533 30.5247 36.2867 30.3247 36.1C30.1247 35.9133 29.8347 35.82 29.4547 35.82C29.188 35.82 28.9314 35.8733 28.6847 35.98C28.4447 36.0867 28.2147 36.26 27.9947 36.5L27.3847 35.87C27.678 35.5633 28.0014 35.34 28.3547 35.2C28.7147 35.0533 29.1047 34.98 29.5247 34.98C30.1847 34.98 30.6947 35.15 31.0547 35.49C31.4214 35.8233 31.6047 36.2933 31.6047 36.9V40H30.7047ZM29.1147 40.09C28.748 40.09 28.4247 40.0233 28.1447 39.89C27.8647 39.7567 27.648 39.5733 27.4947 39.34C27.3414 39.1 27.2647 38.8233 27.2647 38.51C27.2647 38.2367 27.3214 38.0033 27.4347 37.81C27.548 37.61 27.6947 37.4567 27.8747 37.35C28.0414 37.2433 28.2314 37.17 28.4447 37.13C28.6647 37.0833 28.898 37.06 29.1447 37.06H30.7147V37.8H29.2847C29.1514 37.8 29.0114 37.8133 28.8647 37.84C28.7247 37.86 28.6047 37.9067 28.5047 37.98C28.4247 38.04 28.3614 38.1167 28.3147 38.21C28.268 38.2967 28.2447 38.4 28.2447 38.52C28.2447 38.7533 28.3347 38.94 28.5147 39.08C28.6947 39.22 28.9347 39.29 29.2347 39.29C29.488 39.29 29.718 39.2333 29.9247 39.12C30.138 39 30.308 38.84 30.4347 38.64C30.5614 38.4333 30.6247 38.2 30.6247 37.94L30.9747 38.4C30.9147 38.7467 30.798 39.05 30.6247 39.31C30.4514 39.5633 30.2347 39.7567 29.9747 39.89C29.7214 40.0233 29.4347 40.09 29.1147 40.09ZM34.5646 40.09C34.2179 40.09 33.9113 40.04 33.6446 39.94C33.3779 39.8333 33.1479 39.7 32.9546 39.54C32.7679 39.3733 32.6179 39.2033 32.5046 39.03L33.1746 38.45C33.3013 38.6767 33.4813 38.8733 33.7146 39.04C33.9546 39.2 34.2413 39.28 34.5746 39.28C34.8679 39.28 35.0979 39.22 35.2646 39.1C35.4379 38.9733 35.5246 38.81 35.5246 38.61C35.5246 38.45 35.4713 38.3233 35.3646 38.23C35.2579 38.13 35.1179 38.05 34.9446 37.99C34.7713 37.9233 34.5813 37.8667 34.3746 37.82C34.1879 37.7667 33.9979 37.7067 33.8046 37.64C33.6113 37.5733 33.4346 37.49 33.2746 37.39C33.1213 37.2833 32.9946 37.15 32.8946 36.99C32.8013 36.8233 32.7546 36.62 32.7546 36.38C32.7546 35.96 32.9146 35.6233 33.2346 35.37C33.5613 35.11 33.9913 34.98 34.5246 34.98C34.9046 34.98 35.2513 35.06 35.5646 35.22C35.8779 35.3733 36.1213 35.6033 36.2946 35.91L35.6846 36.38C35.5513 36.16 35.3779 36 35.1646 35.9C34.9579 35.8 34.7313 35.75 34.4846 35.75C34.2513 35.75 34.0546 35.8 33.8946 35.9C33.7413 35.9933 33.6646 36.1233 33.6646 36.29C33.6646 36.41 33.6979 36.51 33.7646 36.59C33.8379 36.6633 33.9479 36.73 34.0946 36.79C34.2479 36.8433 34.4346 36.8967 34.6546 36.95C34.8613 36.9967 35.0713 37.0533 35.2846 37.12C35.4979 37.1867 35.6946 37.2733 35.8746 37.38C36.0546 37.4867 36.2013 37.63 36.3146 37.81C36.4279 37.99 36.4846 38.2233 36.4846 38.51C36.4846 38.8233 36.4046 39.1 36.2446 39.34C36.0846 39.5733 35.8613 39.7567 35.5746 39.89C35.2879 40.0233 34.9513 40.09 34.5646 40.09ZM39.2716 40.09C38.925 40.09 38.6183 40.04 38.3516 39.94C38.085 39.8333 37.855 39.7 37.6616 39.54C37.475 39.3733 37.325 39.2033 37.2116 39.03L37.8816 38.45C38.0083 38.6767 38.1883 38.8733 38.4216 39.04C38.6616 39.2 38.9483 39.28 39.2816 39.28C39.575 39.28 39.805 39.22 39.9716 39.1C40.145 38.9733 40.2316 38.81 40.2316 38.61C40.2316 38.45 40.1783 38.3233 40.0716 38.23C39.965 38.13 39.825 38.05 39.6516 37.99C39.4783 37.9233 39.2883 37.8667 39.0816 37.82C38.895 37.7667 38.705 37.7067 38.5116 37.64C38.3183 37.5733 38.1416 37.49 37.9816 37.39C37.8283 37.2833 37.7016 37.15 37.6016 36.99C37.5083 36.8233 37.4616 36.62 37.4616 36.38C37.4616 35.96 37.6216 35.6233 37.9416 35.37C38.2683 35.11 38.6983 34.98 39.2316 34.98C39.6116 34.98 39.9583 35.06 40.2716 35.22C40.585 35.3733 40.8283 35.6033 41.0016 35.91L40.3916 36.38C40.2583 36.16 40.085 36 39.8716 35.9C39.665 35.8 39.4383 35.75 39.1916 35.75C38.9583 35.75 38.7616 35.8 38.6016 35.9C38.4483 35.9933 38.3716 36.1233 38.3716 36.29C38.3716 36.41 38.405 36.51 38.4716 36.59C38.545 36.6633 38.655 36.73 38.8016 36.79C38.955 36.8433 39.1416 36.8967 39.3616 36.95C39.5683 36.9967 39.7783 37.0533 39.9916 37.12C40.205 37.1867 40.4016 37.2733 40.5816 37.38C40.7616 37.4867 40.9083 37.63 41.0216 37.81C41.135 37.99 41.1916 38.2233 41.1916 38.51C41.1916 38.8233 41.1116 39.1 40.9516 39.34C40.7916 39.5733 40.5683 39.7567 40.2816 39.89C39.995 40.0233 39.6583 40.09 39.2716 40.09ZM44.4387 40.09C44.0387 40.09 43.692 40.0233 43.3987 39.89C43.1053 39.7567 42.862 39.5733 42.6687 39.34C42.4753 39.1 42.3287 38.83 42.2287 38.53C42.1353 38.2233 42.0887 37.9033 42.0887 37.57C42.0887 37.2367 42.1353 36.9167 42.2287 36.61C42.322 36.2967 42.462 36.02 42.6487 35.78C42.8353 35.5333 43.0687 35.34 43.3487 35.2C43.6353 35.0533 43.972 34.98 44.3587 34.98C44.7453 34.98 45.0787 35.0467 45.3587 35.18C45.6387 35.3067 45.8687 35.4867 46.0487 35.72C46.2287 35.9467 46.362 36.2033 46.4487 36.49C46.542 36.7767 46.5887 37.08 46.5887 37.4C46.5887 37.4333 46.5853 37.4967 46.5787 37.59C46.5787 37.6767 46.572 37.76 46.5587 37.84H43.0687C43.0887 38.28 43.222 38.62 43.4687 38.86C43.722 39.0933 44.0553 39.21 44.4687 39.21C44.7487 39.21 44.9987 39.1667 45.2187 39.08C45.4387 38.9867 45.642 38.8433 45.8287 38.65L46.4287 39.27C46.2353 39.4633 46.0353 39.62 45.8287 39.74C45.6287 39.86 45.4153 39.9467 45.1887 40C44.9687 40.06 44.7187 40.09 44.4387 40.09ZM45.6187 37.35C45.632 37.2967 45.6387 37.2433 45.6387 37.19C45.6453 37.1367 45.6487 37.0833 45.6487 37.03C45.6487 36.8767 45.622 36.7267 45.5687 36.58C45.5153 36.4333 45.4353 36.3033 45.3287 36.19C45.222 36.07 45.0887 35.9767 44.9287 35.91C44.7753 35.8367 44.5953 35.8 44.3887 35.8C44.1153 35.8 43.882 35.8633 43.6887 35.99C43.4953 36.11 43.3453 36.27 43.2387 36.47C43.1387 36.67 43.0787 36.8867 43.0587 37.12H45.9387L45.6187 37.35ZM49.3791 40.09C49.0324 40.09 48.7257 40.04 48.4591 39.94C48.1924 39.8333 47.9624 39.7 47.7691 39.54C47.5824 39.3733 47.4324 39.2033 47.3191 39.03L47.9891 38.45C48.1157 38.6767 48.2957 38.8733 48.5291 39.04C48.7691 39.2 49.0557 39.28 49.3891 39.28C49.6824 39.28 49.9124 39.22 50.0791 39.1C50.2524 38.9733 50.3391 38.81 50.3391 38.61C50.3391 38.45 50.2857 38.3233 50.1791 38.23C50.0724 38.13 49.9324 38.05 49.7591 37.99C49.5857 37.9233 49.3957 37.8667 49.1891 37.82C49.0024 37.7667 48.8124 37.7067 48.6191 37.64C48.4257 37.5733 48.2491 37.49 48.0891 37.39C47.9357 37.2833 47.8091 37.15 47.7091 36.99C47.6157 36.8233 47.5691 36.62 47.5691 36.38C47.5691 35.96 47.7291 35.6233 48.0491 35.37C48.3757 35.11 48.8057 34.98 49.3391 34.98C49.7191 34.98 50.0657 35.06 50.3791 35.22C50.6924 35.3733 50.9357 35.6033 51.1091 35.91L50.4991 36.38C50.3657 36.16 50.1924 36 49.9791 35.9C49.7724 35.8 49.5457 35.75 49.2991 35.75C49.0657 35.75 48.8691 35.8 48.7091 35.9C48.5557 35.9933 48.4791 36.1233 48.4791 36.29C48.4791 36.41 48.5124 36.51 48.5791 36.59C48.6524 36.6633 48.7624 36.73 48.9091 36.79C49.0624 36.8433 49.2491 36.8967 49.4691 36.95C49.6757 36.9967 49.8857 37.0533 50.0991 37.12C50.3124 37.1867 50.5091 37.2733 50.6891 37.38C50.8691 37.4867 51.0157 37.63 51.1291 37.81C51.2424 37.99 51.2991 38.2233 51.2991 38.51C51.2991 38.8233 51.2191 39.1 51.0591 39.34C50.8991 39.5733 50.6757 39.7567 50.3891 39.89C50.1024 40.0233 49.7657 40.09 49.3791 40.09Z" fill="#575757"/>
</svg>
