 <svg width="50" height="17" viewBox="0 0 101 17" fill="none" xmlns="http://www.w3.org/2000/svg">
<path d="M15.6893 7.35437C15.6893 3.29266 18.982 0 23.0437 0H75.9441C80.034 0 83.3495 3.31553 83.3495 7.40544C83.3495 11.4552 86.6027 14.7539 90.6521 14.8102L101 14.9539C101 15.9016 100.232 16.6699 99.284 16.6699H0.980585C0.439024 16.6699 0 16.2309 0 15.6893C0 15.1478 0.439022 14.7087 0.980583 14.7087H8.33496C12.3967 14.7087 15.6893 11.4161 15.6893 7.35437Z" fill="url(#paint0_linear_52_3188)"/>
<path d="M29.26 7.8641C29.5133 7.9041 29.7433 8.00743 29.95 8.1741C30.1633 8.34077 30.33 8.54743 30.45 8.7941C30.5767 9.04077 30.64 9.3041 30.64 9.5841C30.64 9.93743 30.55 10.2574 30.37 10.5441C30.19 10.8241 29.9267 11.0474 29.58 11.2141C29.24 11.3741 28.8367 11.4541 28.37 11.4541H25.77V4.4841H28.27C28.7433 4.4841 29.1467 4.5641 29.48 4.7241C29.8133 4.87743 30.0633 5.08743 30.23 5.3541C30.3967 5.62077 30.48 5.92077 30.48 6.2541C30.48 6.66743 30.3667 7.01077 30.14 7.2841C29.92 7.55077 29.6267 7.7441 29.26 7.8641ZM26.68 7.4941H28.21C28.6367 7.4941 28.9667 7.3941 29.2 7.1941C29.4333 6.9941 29.55 6.71743 29.55 6.3641C29.55 6.01077 29.4333 5.7341 29.2 5.5341C28.9667 5.3341 28.63 5.2341 28.19 5.2341H26.68V7.4941ZM28.29 10.7041C28.7433 10.7041 29.0967 10.5974 29.35 10.3841C29.6033 10.1708 29.73 9.8741 29.73 9.4941C29.73 9.10743 29.5967 8.8041 29.33 8.5841C29.0633 8.35743 28.7067 8.2441 28.26 8.2441H26.68V10.7041H28.29ZM36.9028 8.5041C36.9028 8.67743 36.8928 8.86077 36.8728 9.0541H32.4928C32.5261 9.5941 32.7095 10.0174 33.0428 10.3241C33.3828 10.6241 33.7928 10.7741 34.2728 10.7741C34.6661 10.7741 34.9928 10.6841 35.2528 10.5041C35.5195 10.3174 35.7061 10.0708 35.8128 9.7641H36.7928C36.6461 10.2908 36.3528 10.7208 35.9128 11.0541C35.4728 11.3808 34.9261 11.5441 34.2728 11.5441C33.7528 11.5441 33.2861 11.4274 32.8728 11.1941C32.4661 10.9608 32.1461 10.6308 31.9128 10.2041C31.6795 9.77077 31.5628 9.27077 31.5628 8.7041C31.5628 8.13743 31.6761 7.64077 31.9028 7.2141C32.1295 6.78743 32.4461 6.46077 32.8528 6.2341C33.2661 6.00077 33.7395 5.8841 34.2728 5.8841C34.7928 5.8841 35.2528 5.99743 35.6528 6.2241C36.0528 6.45077 36.3595 6.7641 36.5728 7.1641C36.7928 7.55743 36.9028 8.0041 36.9028 8.5041ZM35.9628 8.3141C35.9628 7.96743 35.8861 7.67077 35.7328 7.4241C35.5795 7.17077 35.3695 6.98077 35.1028 6.8541C34.8428 6.72077 34.5528 6.6541 34.2328 6.6541C33.7728 6.6541 33.3795 6.80077 33.0528 7.0941C32.7328 7.38743 32.5495 7.7941 32.5028 8.3141H35.9628ZM40.044 11.5441C39.624 11.5441 39.2473 11.4741 38.914 11.3341C38.5807 11.1874 38.3173 10.9874 38.124 10.7341C37.9307 10.4741 37.824 10.1774 37.804 9.8441H38.744C38.7707 10.1174 38.8973 10.3408 39.124 10.5141C39.3573 10.6874 39.6607 10.7741 40.034 10.7741C40.3807 10.7741 40.654 10.6974 40.854 10.5441C41.054 10.3908 41.154 10.1974 41.154 9.9641C41.154 9.7241 41.0473 9.54743 40.834 9.4341C40.6207 9.3141 40.2907 9.19743 39.844 9.0841C39.4373 8.97743 39.104 8.87077 38.844 8.7641C38.5907 8.65077 38.3707 8.48743 38.184 8.2741C38.004 8.0541 37.914 7.76743 37.914 7.4141C37.914 7.1341 37.9973 6.87743 38.164 6.6441C38.3307 6.41077 38.5673 6.22743 38.874 6.0941C39.1807 5.9541 39.5307 5.8841 39.924 5.8841C40.5307 5.8841 41.0207 6.03743 41.394 6.3441C41.7673 6.65077 41.9673 7.07077 41.994 7.6041H41.084C41.064 7.31743 40.9473 7.08743 40.734 6.9141C40.5273 6.74077 40.2473 6.6541 39.894 6.6541C39.5673 6.6541 39.3073 6.7241 39.114 6.8641C38.9207 7.0041 38.824 7.18743 38.824 7.4141C38.824 7.5941 38.8807 7.7441 38.994 7.8641C39.114 7.97743 39.2607 8.07077 39.434 8.1441C39.614 8.21077 39.8607 8.28743 40.174 8.3741C40.5673 8.48077 40.8873 8.58743 41.134 8.6941C41.3807 8.7941 41.5907 8.94743 41.764 9.1541C41.944 9.36077 42.0373 9.63077 42.044 9.9641C42.044 10.2641 41.9607 10.5341 41.794 10.7741C41.6273 11.0141 41.3907 11.2041 41.084 11.3441C40.784 11.4774 40.4373 11.5441 40.044 11.5441ZM44.4386 6.7241V9.9541C44.4386 10.2208 44.4953 10.4108 44.6086 10.5241C44.7219 10.6308 44.9186 10.6841 45.1986 10.6841H45.8686V11.4541H45.0486C44.5419 11.4541 44.1619 11.3374 43.9086 11.1041C43.6553 10.8708 43.5286 10.4874 43.5286 9.9541V6.7241H42.8186V5.9741H43.5286V4.5941H44.4386V5.9741H45.8686V6.7241H44.4386ZM51.6772 10.6141L53.3772 5.9741H54.3472L52.1972 11.4541H51.1372L48.9872 5.9741H49.9672L51.6772 10.6141ZM54.9027 8.6941C54.9027 8.1341 55.016 7.6441 55.2427 7.2241C55.4693 6.79743 55.7793 6.46743 56.1727 6.2341C56.5727 6.00077 57.016 5.8841 57.5027 5.8841C57.9827 5.8841 58.3993 5.98743 58.7527 6.1941C59.106 6.40077 59.3693 6.66077 59.5427 6.9741V5.9741H60.4627V11.4541H59.5427V10.4341C59.3627 10.7541 59.0927 11.0208 58.7327 11.2341C58.3793 11.4408 57.966 11.5441 57.4927 11.5441C57.006 11.5441 56.566 11.4241 56.1727 11.1841C55.7793 10.9441 55.4693 10.6074 55.2427 10.1741C55.016 9.74077 54.9027 9.24743 54.9027 8.6941ZM59.5427 8.7041C59.5427 8.29077 59.4593 7.93077 59.2927 7.6241C59.126 7.31743 58.8993 7.0841 58.6127 6.9241C58.3327 6.75743 58.0227 6.6741 57.6827 6.6741C57.3427 6.6741 57.0327 6.7541 56.7527 6.9141C56.4727 7.0741 56.2493 7.30743 56.0827 7.6141C55.916 7.92077 55.8327 8.28077 55.8327 8.6941C55.8327 9.1141 55.916 9.48077 56.0827 9.7941C56.2493 10.1008 56.4727 10.3374 56.7527 10.5041C57.0327 10.6641 57.3427 10.7441 57.6827 10.7441C58.0227 10.7441 58.3327 10.6641 58.6127 10.5041C58.8993 10.3374 59.126 10.1008 59.2927 9.7941C59.4593 9.48077 59.5427 9.11743 59.5427 8.7041ZM62.9105 4.0541V11.4541H62.0005V4.0541H62.9105ZM69.3214 5.9741V11.4541H68.4114V10.6441C68.2381 10.9241 67.9947 11.1441 67.6814 11.3041C67.3747 11.4574 67.0347 11.5341 66.6614 11.5341C66.2347 11.5341 65.8514 11.4474 65.5114 11.2741C65.1714 11.0941 64.9014 10.8274 64.7014 10.4741C64.5081 10.1208 64.4114 9.69077 64.4114 9.1841V5.9741H65.3114V9.0641C65.3114 9.6041 65.4481 10.0208 65.7214 10.3141C65.9947 10.6008 66.3681 10.7441 66.8414 10.7441C67.3281 10.7441 67.7114 10.5941 67.9914 10.2941C68.2714 9.9941 68.4114 9.55743 68.4114 8.9841V5.9741H69.3214ZM75.8579 8.5041C75.8579 8.67743 75.8479 8.86077 75.8279 9.0541H71.4479C71.4812 9.5941 71.6646 10.0174 71.9979 10.3241C72.3379 10.6241 72.7479 10.7741 73.2279 10.7741C73.6212 10.7741 73.9479 10.6841 74.2079 10.5041C74.4746 10.3174 74.6612 10.0708 74.7679 9.7641H75.7479C75.6012 10.2908 75.3079 10.7208 74.8679 11.0541C74.4279 11.3808 73.8812 11.5441 73.2279 11.5441C72.7079 11.5441 72.2412 11.4274 71.8279 11.1941C71.4212 10.9608 71.1012 10.6308 70.8679 10.2041C70.6346 9.77077 70.5179 9.27077 70.5179 8.7041C70.5179 8.13743 70.6312 7.64077 70.8579 7.2141C71.0846 6.78743 71.4012 6.46077 71.8079 6.2341C72.2212 6.00077 72.6946 5.8841 73.2279 5.8841C73.7479 5.8841 74.2079 5.99743 74.6079 6.2241C75.0079 6.45077 75.3146 6.7641 75.5279 7.1641C75.7479 7.55743 75.8579 8.0041 75.8579 8.5041ZM74.9179 8.3141C74.9179 7.96743 74.8412 7.67077 74.6879 7.4241C74.5346 7.17077 74.3246 6.98077 74.0579 6.8541C73.7979 6.72077 73.5079 6.6541 73.1879 6.6541C72.7279 6.6541 72.3346 6.80077 72.0079 7.0941C71.6879 7.38743 71.5046 7.7941 71.4579 8.3141H74.9179Z" fill="white"/>
<defs>
<linearGradient id="paint0_linear_52_3188" x1="0" y1="8.33495" x2="101" y2="8.33495" gradientUnits="userSpaceOnUse">
<stop stop-color="#00B6FE"/>
<stop offset="0.5" stop-color="#5C7DFB"/>
<stop offset="1" stop-color="#8C3AFD"/>
</linearGradient>
</defs>
</svg>
