<svg width="22" height="22" viewBox="0 0 22 22" fill="none" xmlns="http://www.w3.org/2000/svg">
<path d="M2.496 0.559664C1.272 0.991664 0.264 2.16766 0.096 3.41566C0 3.96766 -0.024 7.63966 0.024 11.5997C0.096 19.4717 0.12 19.5917 1.608 20.7197C2.232 21.1757 2.688 21.1997 10.416 21.2717C18.216 21.3197 18.6 21.2957 19.368 20.8397C19.8 20.5757 20.352 20.0237 20.616 19.5917C21.072 18.8237 21.096 18.4397 21.048 10.5917L20.976 2.38367L20.136 1.51966C19.68 1.06366 18.936 0.559665 18.456 0.439665C17.064 0.0556648 3.648 0.151664 2.496 0.559664ZM19.2 2.31166L19.896 3.07966V10.9037V18.7277L19.2 19.4237L18.504 20.1197H10.68H2.856L2.088 19.4237L1.296 18.7277L1.224 11.2637C1.176 5.07166 1.224 3.67967 1.512 2.95967C2.16 1.44767 2.496 1.39966 10.968 1.47166L18.504 1.51966L19.2 2.31166Z" fill="url(#paint0_linear_1036_8387)"/>
<path d="M4.39174 5.36011C4.29574 5.57611 4.34374 5.86411 4.48774 6.00811C4.84774 6.36811 5.54374 6.03211 5.44774 5.55211C5.35174 5.00011 4.58374 4.85611 4.39174 5.36011Z" fill="url(#paint1_linear_1036_8387)"/>
<path d="M6.55132 5.35971C6.47932 5.55171 6.47932 5.81571 6.57532 5.95971C6.76732 6.27171 16.6793 6.29571 16.8713 5.98371C16.9673 5.86371 16.9433 5.59971 16.8713 5.38371C16.7513 5.04771 16.0793 4.99971 11.7113 4.99971C7.53532 4.99971 6.64732 5.04771 6.55132 5.35971Z" fill="url(#paint2_linear_1036_8387)"/>
<path d="M4.39174 10.6394C4.29574 10.8554 4.34374 11.1434 4.48774 11.2874C4.84774 11.6474 5.54374 11.3114 5.44774 10.8314C5.35174 10.2794 4.58374 10.1354 4.39174 10.6394Z" fill="url(#paint3_linear_1036_8387)"/>
<path d="M6.50364 10.808C6.57564 11.36 6.59964 11.36 11.5196 11.432C15.6476 11.48 16.5116 11.432 16.7516 11.144C17.3996 10.376 16.7996 10.28 11.5916 10.28H6.43164L6.50364 10.808Z" fill="url(#paint4_linear_1036_8387)"/>
<path d="M4.29688 16.016C4.29688 16.592 4.89688 16.832 5.25688 16.4C5.61688 15.968 5.37688 15.56 4.75288 15.56C4.46488 15.56 4.29688 15.728 4.29688 16.016Z" fill="url(#paint5_linear_1036_8387)"/>
<path d="M6.50364 16.0873C6.57564 16.6393 6.59964 16.6393 11.5196 16.7113C15.6476 16.7593 16.5116 16.7113 16.7516 16.4233C17.3996 15.6553 16.7996 15.5593 11.5916 15.5593H6.43164L6.50364 16.0873Z" fill="url(#paint6_linear_1036_8387)"/>
<defs>
<linearGradient id="paint0_linear_1036_8387" x1="10.5327" y1="21.2891" x2="10.5327" y2="0.197193" gradientUnits="userSpaceOnUse">
<stop stop-color="#591DA9"/>
<stop offset="1" stop-color="#051960"/>
</linearGradient>
<linearGradient id="paint1_linear_1036_8387" x1="4.89927" y1="6.15918" x2="4.89927" y2="5.0502" gradientUnits="userSpaceOnUse">
<stop stop-color="#591DA9"/>
<stop offset="1" stop-color="#051960"/>
</linearGradient>
<linearGradient id="paint2_linear_1036_8387" x1="11.7173" y1="6.20605" x2="11.7173" y2="4.99971" gradientUnits="userSpaceOnUse">
<stop stop-color="#591DA9"/>
<stop offset="1" stop-color="#051960"/>
</linearGradient>
<linearGradient id="paint3_linear_1036_8387" x1="4.89927" y1="11.4385" x2="4.89927" y2="10.3295" gradientUnits="userSpaceOnUse">
<stop stop-color="#591DA9"/>
<stop offset="1" stop-color="#051960"/>
</linearGradient>
<linearGradient id="paint4_linear_1036_8387" x1="11.6978" y1="11.4482" x2="11.6978" y2="10.28" gradientUnits="userSpaceOnUse">
<stop stop-color="#591DA9"/>
<stop offset="1" stop-color="#051960"/>
</linearGradient>
<linearGradient id="paint5_linear_1036_8387" x1="4.86106" y1="16.6211" x2="4.86106" y2="15.56" gradientUnits="userSpaceOnUse">
<stop stop-color="#591DA9"/>
<stop offset="1" stop-color="#051960"/>
</linearGradient>
<linearGradient id="paint6_linear_1036_8387" x1="11.6978" y1="16.7275" x2="11.6978" y2="15.5593" gradientUnits="userSpaceOnUse">
<stop stop-color="#591DA9"/>
<stop offset="1" stop-color="#051960"/>
</linearGradient>
</defs>
</svg>
