<svg width="22" height="22" viewBox="0 0 22 22" fill="none" xmlns="http://www.w3.org/2000/svg">
<path d="M16.5 13.7502H5.49998L1.83331 17.4168V2.75016C1.83331 2.50705 1.92989 2.27389 2.1018 2.10198C2.27371 1.93007 2.50686 1.8335 2.74998 1.8335H16.5C16.7431 1.8335 16.9763 1.93007 17.1482 2.10198C17.3201 2.27389 17.4166 2.50705 17.4166 2.75016V12.8335C17.4166 13.0766 17.3201 13.3098 17.1482 13.4817C16.9763 13.6536 16.7431 13.7502 16.5 13.7502ZM21.0833 8.25016V21.0835L17.4166 17.4168H7.33331C7.0902 17.4168 6.85704 17.3203 6.68513 17.1483C6.51322 16.9764 6.41665 16.7433 6.41665 16.5002V15.5835H19.25V7.3335H20.1666C20.4098 7.3335 20.6429 7.43007 20.8148 7.60198C20.9867 7.77389 21.0833 8.00705 21.0833 8.25016ZM7.50748 3.66683C6.70998 3.66683 6.06831 3.85016 5.57331 4.20766C5.09665 4.5835 4.85831 5.106 4.86748 5.83016L4.87665 5.85766H6.64581C6.65498 5.58266 6.73748 5.37183 6.90248 5.22516C7.07222 5.0844 7.28702 5.00955 7.50748 5.01433C7.79165 5.01433 8.02998 5.106 8.19498 5.271C8.35998 5.44516 8.43331 5.6835 8.43331 5.9585C8.43331 6.25183 8.36915 6.49933 8.22248 6.71016C8.09415 6.921 7.90165 7.10433 7.66331 7.251C7.19581 7.56266 6.87498 7.83766 6.70081 8.08516C6.51748 8.3235 6.41665 8.7085 6.41665 9.16683H8.24998C8.24998 8.88266 8.28665 8.6535 8.36915 8.4885C8.45165 8.3235 8.60748 8.1585 8.83665 8.01183C9.24915 7.79183 9.58831 7.526 9.85415 7.15933C10.12 6.79266 10.2575 6.41683 10.2575 5.9585C10.2575 5.26183 10.01 4.70266 9.51498 4.29016C9.02915 3.87766 8.35998 3.66683 7.50748 3.66683ZM6.41665 10.0835V11.9168H8.24998V10.0835H6.41665ZM11.9166 11.9168H13.75V10.0835H11.9166V11.9168ZM11.9166 3.66683V9.16683H13.75V3.66683H11.9166Z" fill="black"/>
</svg>
