<svg width="25" height="24" viewBox="0 0 25 24" fill="none" xmlns="http://www.w3.org/2000/svg">
<path fill-rule="evenodd" clip-rule="evenodd" d="M11.0859 20C11.0859 19.7348 10.9806 19.4804 10.793 19.2929C10.6055 19.1054 10.3512 19 10.0859 19H5.08594V5H10.0859C10.3512 5 10.6055 4.89464 10.793 4.70711C10.9806 4.51957 11.0859 4.26522 11.0859 4C11.0859 3.73478 10.9806 3.48043 10.793 3.29289C10.6055 3.10536 10.3512 3 10.0859 3H5.08594C4.5555 3 4.0468 3.21071 3.67172 3.58579C3.29665 3.96086 3.08594 4.46957 3.08594 5V19C3.08594 19.5304 3.29665 20.0391 3.67172 20.4142C4.0468 20.7893 4.5555 21 5.08594 21H10.0859C10.3512 21 10.6055 20.8946 10.793 20.7071C10.9806 20.5196 11.0859 20.2652 11.0859 20Z" fill="black"/>
<path d="M21.7999 12.7001C21.9825 12.5139 22.0851 12.2638 22.0859 12.0031V11.9971C22.0851 11.7329 21.9798 11.4798 21.7929 11.2931L17.7929 7.29308C17.7007 7.19757 17.5903 7.12139 17.4683 7.06898C17.3463 7.01657 17.2151 6.98898 17.0823 6.98783C16.9496 6.98668 16.8179 7.01198 16.695 7.06226C16.5721 7.11254 16.4604 7.18679 16.3665 7.28069C16.2726 7.37458 16.1984 7.48623 16.1481 7.60913C16.0978 7.73202 16.0725 7.8637 16.0737 7.99648C16.0748 8.12926 16.1024 8.26048 16.1548 8.38249C16.2072 8.50449 16.2834 8.61483 16.3789 8.70708L18.6719 11.0001H9.08594C8.82072 11.0001 8.56637 11.1054 8.37883 11.293C8.19129 11.4805 8.08594 11.7349 8.08594 12.0001C8.08594 12.2653 8.19129 12.5197 8.37883 12.7072C8.56637 12.8947 8.82072 13.0001 9.08594 13.0001H18.6719L16.3789 15.2931C16.1968 15.4817 16.096 15.7343 16.0983 15.9965C16.1005 16.2587 16.2057 16.5095 16.3911 16.6949C16.5765 16.8803 16.8273 16.9855 17.0895 16.9878C17.3517 16.99 17.6043 16.8892 17.7929 16.7071L21.7929 12.7071L21.7999 12.7001Z" fill="black"/>
</svg>
