<svg width="20" height="20" viewBox="0 0 20 20" fill="none" xmlns="http://www.w3.org/2000/svg">
<path d="M7.08331 12.4998H12.9166M7.08331 14.9998H9.99998M15.8333 1.6665H4.16665C3.94563 1.6665 3.73367 1.7543 3.57739 1.91058C3.42111 2.06686 3.33331 2.27882 3.33331 2.49984V17.4998C3.33331 17.7209 3.42111 17.9328 3.57739 18.0891C3.73367 18.2454 3.94563 18.3332 4.16665 18.3332H15.8333C16.0543 18.3332 16.2663 18.2454 16.4226 18.0891C16.5788 17.9328 16.6666 17.7209 16.6666 17.4998V2.49984C16.6666 2.27882 16.5788 2.06686 16.4226 1.91058C16.2663 1.7543 16.0543 1.6665 15.8333 1.6665Z" stroke="black" stroke-width="2" stroke-linecap="round" stroke-linejoin="round"/>
<path d="M12.5 5.4165L9.16667 8.74984L7.5 7.08317" stroke="black" stroke-width="2" stroke-linecap="round" stroke-linejoin="round"/>
</svg>
